<svg viewBox="0 0 40 40" fill="none" xmlns="http://www.w3.org/2000/svg">
    <rect type="background" width="40" height="40" rx="20" fill="#1E283D" />
    <circle type="primary" cx="14.5" cy="14.5" r="1.5" fill="#73ABFF" />
    <circle type="primary" cx="25.5" cy="14.5" r="1.5" fill="#73ABFF" />
    <circle type="primary" cx="14.5" cy="25.5" r="1.5" fill="#73ABFF" />
    <circle type="primary" cx="25.5" cy="25.5" r="1.5" fill="#73ABFF" />
    <circle type="secondary" cx="20.5" cy="13.5" r="2" fill="white" />
    <circle type="secondary" cx="19.5" cy="26.5" r="2" fill="white" />
    <circle type="secondary" cx="20.5" cy="20.5" r="2" fill="white" />
    <circle type="secondary" cx="13.5" cy="20.5" r="2" fill="white" />
    <circle type="secondary" cx="26.5" cy="19.5" r="2" fill="white" />
    <path type="secondary" fill="white"
        d="M13.7,21L13.3,20c3.8-1.4,5.3-2.9,6.7-6.7l0.9,0.4C19.4,17.8,17.8,19.4,13.7,21z" />
    <path type="secondary" fill="white" d="M19.1,26.8c0,0-2.2-3.4,1.1-6.6c3-3,6.6-1.1,6.6-1.1l-0.5,0.9c-0.1-0.1-2.9-1.6-5.4,0.9
		c-2.7,2.7-1,5.3-0.9,5.4L19.1,26.8z" />
</svg>