<svg xmlns="http://www.w3.org/2000/svg">
  <g xmlns="http://www.w3.org/2000/svg" fill="none" fill-rule="evenodd">
    <path type="background" fill="#1F2D45" d="M0 20c0 11.046 8.954 20 20 20s20-8.954 20-20S31.046 0 20 0 0 8.954 0 20z"/>
    <path type="secondary" fill="#FFF" fill-rule="nonzero" d="M20.243 10.03l8 2A1 1 0 0 1 29 13v7c0 2.97-1.646 4.644-4.341 7.003a22.465 22.465 0 0 1-2.879 2.126 17.31 17.31 0 0 1-1.333.765 1 1 0 0 1-.894 0 17.31 17.31 0 0 1-1.333-.765 22.465 22.465 0 0 1-2.879-2.126C12.646 24.643 11 22.969 11 20v-7a1 1 0 0 1 .757-.97l8-2a1 1 0 0 1 .486 0zm-.082 1.496a.813.813 0 0 0-.404 0l-6.667 1.71a.851.851 0 0 0-.631.829v5.984c0 2.54 1.371 3.747 3.618 5.763a18.758 18.758 0 0 0 3.509 2.473c.235.12.51.12.745 0a18.758 18.758 0 0 0 3.51-2.472c2.246-2.017 3.618-3.225 3.618-5.764v-5.984a.851.851 0 0 0-.632-.83z"/>
    <path type="primary" fill="#00A5FF" d="M12 15h16a1 1 0 0 1 1 1v4a1 1 0 0 1-1 1H12a1 1 0 0 1-1-1v-4a1 1 0 0 1 1-1z"/>
    <path type="secondary" style="fill: white;" fill="#FFF" d="M14 16.5a1.5 1.5 0 1 1 0 3 1.5 1.5 0 0 1 0-3zm4 0a1.5 1.5 0 1 1 0 3 1.5 1.5 0 0 1 0-3zm4 0a1.5 1.5 0 1 1 0 3 1.5 1.5 0 0 1 0-3zm4 0a1.5 1.5 0 1 1 0 3 1.5 1.5 0 0 1 0-3z"/>
  </g>
</svg>
