<svg xmlns="http://www.w3.org/2000/svg">
    <g fill="none" fill-rule="evenodd">
        <path type="background" fill="#1F2D45" d="M0 20c0 11.046 8.954 20 20 20s20-8.954 20-20S31.046 0 20 0 0 8.954 0 20z"/>
        <path type="secondary" fill-rule="evenodd" clip-rule="evenodd" d="M11.4599 17.1528C11.5535 16.8647 11.8266 16.6842 12.1295 16.6842C12.4996 16.6842 12.8192 16.9647 12.9926 17.3212C12.6743 18.1531 12.5 19.0562 12.5 20C12.5 24.1421 15.8579 27.5 20 27.5C24.1421 27.5 27.5 24.1421 27.5 20C27.5 15.8579 24.1421 12.5 20 12.5C18.4235 12.5 16.9605 12.9864 15.7531 13.8174H16.3217C16.8404 13.8174 17.2609 14.2379 17.2609 14.7565C17.2609 15.2752 16.8404 15.6957 16.3217 15.6957H13.5043C13.0181 15.6957 12.6182 15.3261 12.5701 14.8525C12.5669 14.821 12.5652 14.7889 12.5652 14.7565V11.9391C12.5652 11.4205 12.9857 11 13.5043 11C14.023 11 14.4435 11.4205 14.4435 11.9391V12.9196C15.9736 11.7172 17.903 11 20 11C24.9706 11 29 15.0294 29 20C29 24.9706 24.9706 29 20 29C15.0294 29 11 24.9706 11 20C11 18.7772 11.2732 17.7275 11.4599 17.1528Z" fill="white"/>
        <path type="primary" fill="#1F75F6" fill-rule="evenodd" clip-rule="evenodd" d="M23 21.4171C23 22.7995 22.1742 23.7558 20.669 23.9516V25H19.5087V23.9516C18.4007 23.8364 17.5958 23.3986 17 22.765L17.9512 21.2788C18.453 21.8318 19.2265 22.2926 20.1777 22.2926C20.7944 22.2926 21.1707 22.0046 21.1707 21.6359C21.1707 21.1982 20.7213 21.0253 19.9791 20.8525C18.8293 20.5991 17.2195 20.2765 17.2195 18.4562C17.2195 17.2926 18.0348 16.2673 19.5087 16.0829V15H20.669V16.0945C21.5052 16.2097 22.2474 16.5668 22.8328 17.1198L21.8502 18.5369C21.2648 18.0069 20.5017 17.7419 19.885 17.7419C19.2892 17.7419 19.0592 18.0069 19.0592 18.341C19.0592 18.7442 19.4878 18.8825 20.2613 19.0438C21.4111 19.3088 23 19.6774 23 21.4171Z"/>
    </g>
</svg>