<svg xmlns="http://www.w3.org/2000/svg" width="40" height="40" viewBox="0 0 40 40">
  <g fill="none" fill-rule="evenodd">
    <path type="background" fill="#1F2D45" d="M0 20c0 11.046 8.954 20 20 20s20-8.954 20-20S31.046 0 20 0 0 8.954 0 20z"/>
    <path type="secondary" fill="#FFF" d="M15.5 11a4.5 4.5 0 0 1 3.252 7.61l1.355 1.614-.766.643-1.355-1.615A4.5 4.5 0 1 1 15.5 11zm10 0a3.5 3.5 0 1 1-.688 6.932l-.622 1.712-.94-.342.62-1.704A3.5 3.5 0 0 1 25.5 11zm-10 1.5a3 3 0 1 0 0 6 3 3 0 0 0 0-6zm10 0a2 2 0 1 0 0 4 2 2 0 0 0 0-4z"/>
    <path type="primary" fill="#00A5FF" d="M22 19a5 5 0 1 1 0 10 5 5 0 0 1 0-10zm0 2a3 3 0 1 0 0 6 3 3 0 0 0 0-6z"/>
  </g>
</svg>
