<svg width="40" height="40"  fill="none" xmlns="http://www.w3.org/2000/svg" viewBox="0 0 40 40">
  <g fill="none" fill-rule="evenodd">
    <path type="background" fill="#1F2D45" d="M0 20c0 11.046 8.954 20 20 20s20-8.954 20-20S31.046 0 20 0 0 8.954 0 20z"/>
    <path type="secondary" fill="#FFF" fill-rule="nonzero" d="M19.83 12.171a1 1 0 0 1 .446.448l1.94 3.402h-1.987l-.847-1.489-7.176 12.503H26.5l-.571-1.002h1.998l.732 1.284a1 1 0 0 1-.894 1.447H11a1 1 0 0 1-.894-1.447l8.382-14.698a1 1 0 0 1 1.341-.448z"/>
    <path type="primary" fill="#00A5FF" d="M28.382 23.005a1 1 0 1 1 0 2h-3.039l-1.09-1.917-.037-.083h4.166z"/>
    <path type="primary" fill="#00A5FF" fill-opacity=".7" d="M28 20a1 1 0 1 1 0 2h-4.368l-1.138-2h5.507z"/>
    <path type="primary" fill="#00A5FF" fill-opacity=".4" d="M29.382 16.981a1 1 0 1 1 0 2h-7.468l-1.138-2h8.606z"/>
    <rect width="6" height="1" x="10" y="19" fill="#FFF" fill-rule="nonzero" rx=".5"/>
    <g filter="url(#filter0_d)" transform="translate(-2 0) scale(0.9)">
      <rect x="22" y="5" width="24" height="12" rx="2" fill="#D3720B"/>
      <path d="M24.9688 8.28906H26.6641C27.4505 8.28906 28.0182 8.40365 28.3672 8.63281C28.7188 8.86198 28.8945 9.22396 28.8945 9.71875C28.8945 10.0521 28.8086 10.3294 28.6367 10.5508C28.4648 10.7721 28.2174 10.9115 27.8945 10.9688V11.0078C28.2956 11.0833 28.5898 11.2331 28.7773 11.457C28.9674 11.6784 29.0625 11.9792 29.0625 12.3594C29.0625 12.8724 28.8828 13.2747 28.5234 13.5664C28.1667 13.8555 27.6693 14 27.0312 14H24.9688V8.28906ZM25.9023 10.6484H26.8008C27.1914 10.6484 27.4766 10.5872 27.6562 10.4648C27.8359 10.3398 27.9258 10.1289 27.9258 9.83203C27.9258 9.5638 27.8281 9.36979 27.6328 9.25C27.4401 9.13021 27.1328 9.07031 26.7109 9.07031H25.9023V10.6484ZM25.9023 11.4062V13.2148H26.8945C27.2852 13.2148 27.5794 13.1406 27.7773 12.9922C27.9779 12.8411 28.0781 12.6042 28.0781 12.2812C28.0781 11.9844 27.9766 11.7643 27.7734 11.6211C27.5703 11.4779 27.2617 11.4062 26.8477 11.4062H25.9023ZM33.4805 14H30.25V8.28906H33.4805V9.07812H31.1836V10.6328H33.3359V11.4141H31.1836V13.207H33.4805V14ZM36.6914 14H35.7578V9.08984H34.0781V8.28906H38.3711V9.08984H36.6914V14ZM42.793 14L42.2227 12.4141H40.0391L39.4805 14H38.4961L40.6328 8.26562H41.6484L43.7852 14H42.793ZM41.9766 11.6094L41.4414 10.0547C41.4023 9.95052 41.3477 9.78646 41.2773 9.5625C41.2096 9.33854 41.1628 9.17448 41.1367 9.07031C41.0664 9.39062 40.9635 9.74089 40.8281 10.1211L40.3125 11.6094H41.9766Z" fill="white"/>
    </g>
  </g>

<defs>
<filter id="filter0_d" x="14" y="0" width="40" height="28" filterUnits="userSpaceOnUse" color-interpolation-filters="sRGB">
<feFlood flood-opacity="0" result="BackgroundImageFix"/>
<feColorMatrix in="SourceAlpha" type="matrix" values="0 0 0 0 0 0 0 0 0 0 0 0 0 0 0 0 0 0 127 0" result="hardAlpha"/>
<feOffset dy="3"/>
<feGaussianBlur stdDeviation="4"/>
<feColorMatrix type="matrix" values="0 0 0 0 0.254902 0 0 0 0 0.384314 0 0 0 0 0.839216 0 0 0 0.16 0"/>
<feBlend mode="normal" in2="BackgroundImageFix" result="effect1_dropShadow"/>
<feBlend mode="normal" in="SourceGraphic" in2="effect1_dropShadow" result="shape"/>
</filter>
</defs>
</svg>
