<svg xmlns="http://www.w3.org/2000/svg" width="40" height="40" viewBox="0 0 40 40">
  <g fill="none" fill-rule="evenodd">
    <path type="background" fill="#1F2D45" d="M0 20c0 11.046 8.954 20 20 20s20-8.954 20-20S31.046 0 20 0 0 8.954 0 20z"/>
    <path type="shared-primary" fill="#FFF" d="M20 10c5.523 0 10 4.477 10 10s-4.477 10-10 10-10-4.477-10-10 4.477-10 10-10zm0 2.105a7.895 7.895 0 1 0 0 15.79 7.895 7.895 0 0 0 0-15.79zm.175 11.755l.114.006a.962.962 0 0 1 .851.959l-.006.113a.962.962 0 0 1-.959.851.963.963 0 0 1-.964-.964l.006-.114a.962.962 0 0 1 .958-.851zm0-9.65a3.859 3.859 0 0 1 3.86 3.86c0 2.412-2.895 2.654-2.895 4.825h-1.93c0-3.136 2.895-2.895 2.895-4.825 0-1.061-.868-1.93-1.93-1.93-1.061 0-1.93.869-1.93 1.93h-1.93a3.859 3.859 0 0 1 3.86-3.86z"/>
  </g>
</svg>
