<svg  viewBox="0 0 40 40" fill="none" xmlns="http://www.w3.org/2000/svg">
  <g clip-path="url(#clip0_2408_827)">
    <path type="background" fill="#1E283D" fill-rule="evenodd" clip-rule="evenodd"
      d="M20 0C8.95431 0 0 8.95431 0 20V20C0 31.0457 8.95431 40 20 40V40C31.0457 40 40 31.0457 40 20V20C40 8.95431 31.0457 0 20 0V0Z"/>
    <path type="primary" fill="#00A5FF"
      d="M29 19c-.2 0-.3 0-.5-.1l-8.8-4.7-8.2 4.7c-.5.3-1.1.1-1.4-.4-.3-.5-.1-1.1.4-1.4l8.2-4.7c.6-.3 1.3-.4 1.9 0l8.8 4.7c.5.3.7.9.4 1.4-.1.3-.4.5-.8.5z"/>
    <path type="secondary" fill="#FFF"
      d="M26 28.8h-2.1c-1 0-1.8-.8-1.8-1.8v-2.7c0-.1-.1-.2-.2-.2h-3.8c-.1 0-.2.1-.2.2V27c0 1-.8 1.8-1.8 1.8H14c-1 0-1.8-.8-1.8-1.8v-7c0-.4.3-.8.8-.8s.8.3.8.8v7c0 .1.1.2.2.2h2.1c.1 0 .2-.1.2-.2v-2.7c0-1 .8-1.8 1.8-1.8h3.8c1 0 1.8.8 1.8 1.8V27c0 .1.1.2.2.2H26c.1 0 .2-.1.2-.2v-7c0-.4.3-.8.8-.8s.8.3.8.8v7c0 1-.8 1.8-1.8 1.8z"/>
    <path type="primary" fill="#00A5FF"
      d="M26 17c-.6 0-1-.4-1-1v-2c0-.6.4-1 1-1s1 .4 1 1v2c0 .6-.4 1-1 1z"/>
  </g>
  <defs>
    <clipPath id="clip0_2408_827">
      <rect width="40" height="40" fill="FFF"/>
    </clipPath>
  </defs>
</svg>