<svg xmlns="http://www.w3.org/2000/svg">
  <g xmlns="http://www.w3.org/2000/svg" fill="none" fill-rule="evenodd">
    <path type="background" fill="#1F2D45" d="M20 0C8.95431 0 0 8.95431 0 20V20C0 31.0457 8.95431 40 20 40V40C31.0457 40 40 31.0457 40 20V20C40 8.95431 31.0457 0 20 0V0Z"/>
    <path type="primary" fill="#00A5FF" d="M20 18.8889C18.6188 18.8889 17.5 17.795 17.5 16.4444C17.5 15.0939 18.6188 14 20 14C21.3813 14 22.5 15.0939 22.5 16.4444C22.5 17.795 21.3813 18.8889 20 18.8889Z"/>
    <path type="primary" fill="#00A5FF" d="M16.6709 24C15.7481 24 15 23.2519 15 22.3291C15 20.1891 18.3313 19.1111 20 19.1111C21.6687 19.1111 25 20.1891 25 22.3291C25 23.2519 24.2519 24 23.3291 24H16.6709Z"/>
    <path type="secondary" fill="#FFF" fill-rule="zero" d="M21.78 29.1292C21.1889 29.4987 20.7241 29.756 20.4472 29.8944C20.1657 30.0352 19.8343 30.0352 19.5528 29.8944C19.2759 29.756 18.8111 29.4987 18.22 29.1292C17.2399 28.5167 16.2599 27.8062 15.3415 27.0026C12.6458 24.6438 11 22.9694 11 20V13C11 12.5411 11.3123 12.1411 11.7575 12.0299L19.7575 10.0299C19.9167 9.99005 20.0833 9.99005 20.2425 10.0299L28.2425 12.0299C28.6877 12.1411 29 12.5411 29 13V20C29 22.9694 27.3542 24.6438 24.6585 27.0026C23.7401 27.8062 22.7601 28.5167 21.78 29.1292ZM20.3313 28.2847C20.0967 28.4051 19.8206 28.4051 19.586 28.2847C19.3552 28.1664 18.9679 27.9464 18.4753 27.6306C17.6585 27.1068 16.8419 26.4995 16.0766 25.8124L16.0155 25.7576C13.8053 23.7737 12.4586 22.565 12.4586 20.0494V14.0648C12.4586 13.6725 12.7189 13.3305 13.0899 13.2354L19.7565 11.5255C19.8892 11.4915 20.0281 11.4915 20.1608 11.5255L26.8274 13.2354C27.1984 13.3305 27.4586 13.6725 27.4586 14.0648V20.0494C27.4586 22.565 26.112 23.7737 23.9018 25.7576L23.8407 25.8124C23.0754 26.4995 22.2587 27.1068 21.442 27.6306C20.9494 27.9464 20.562 28.1664 20.3313 28.2847Z"/>
  </g>
</svg>