<svg width="41" height="40" viewBox="0 0 41 40" fill="none" xmlns="http://www.w3.org/2000/svg">
    <rect type="background" x="0.5" width="40" height="40" rx="20" fill="#1E283D"/>
    <path type="secondary" fill-rule="evenodd" clip-rule="evenodd" d="M17.9998 8.5C17.4475 8.5 16.9998 8.94772 16.9998 9.5C16.9998 9.51802 17.0002 9.53593 17.0012 9.55371H14.6221C12.4129 9.55371 10.6221 11.3446 10.6221 13.5537V25.5537C10.6221 27.7628 12.4129 29.5537 14.6221 29.5537H26.6221C28.8312 29.5537 30.6221 27.7628 30.6221 25.5537V13.5537C30.6221 11.3446 28.8312 9.55371 26.6221 9.55371H23.9983C23.9993 9.53593 23.9998 9.51802 23.9998 9.5C23.9998 8.94772 23.552 8.5 22.9998 8.5H17.9998ZM14.2858 11.2263C13.1812 11.2263 12.2858 12.1218 12.2858 13.2263V25.9371C12.2858 27.0416 13.1812 27.9371 14.2858 27.9371H26.8419C27.9464 27.9371 28.8419 27.0416 28.8419 25.9371V13.2263C28.8419 12.1218 27.9464 11.2263 26.8419 11.2263H14.2858ZM18.9998 15.25C18.9998 14.8358 19.3355 14.5 19.7498 14.5H25.2498C25.664 14.5 25.9998 14.8358 25.9998 15.25C25.9998 15.6642 25.664 16 25.2498 16H19.7498C19.3355 16 18.9998 15.6642 18.9998 15.25ZM19.7498 19C19.3355 19 18.9998 19.3358 18.9998 19.75C18.9998 20.1642 19.3355 20.5 19.7498 20.5H25.2498C25.664 20.5 25.9998 20.1642 25.9998 19.75C25.9998 19.3358 25.664 19 25.2498 19H19.7498ZM18.9998 24.25C18.9998 23.8358 19.3355 23.5 19.7498 23.5H25.2498C25.664 23.5 25.9998 23.8358 25.9998 24.25C25.9998 24.6642 25.664 25 25.2498 25H19.7498C19.3355 25 18.9998 24.6642 18.9998 24.25Z" fill="#1E283D"/>
    <rect x="15.5" y="14.5" width="1.5" height="1.5" stroke="#7A7EEF" stroke-width="1.5" stroke-linecap="round" stroke-linejoin="round"/>
    <rect x="15.5" y="19" width="1.5" height="1.5" stroke="#7A7EEF" stroke-width="1.5" stroke-linecap="round" stroke-linejoin="round"/>
    <rect x="15.5" y="23.5" width="1.5" height="1.5" stroke="#7A7EEF" stroke-width="1.5" stroke-linecap="round" stroke-linejoin="round"/>
</svg>
    