<svg
  width="40"
  height="40"
  viewBox="0 0 40 40"
  fill="none"
  xmlns="http://www.w3.org/2000/svg">
  <rect type="background" width="40" height="40" rx="20" fill="#1E283D" />
  <mask id="path-2-inside-1_530_1341" fill="white">
    <path
      d="M28.6024 19.9984C29.0155 19.9984 29.3535 19.663 29.3205 19.2512C29.2071 17.8365 28.7727 16.4626 28.0464 15.2357C27.1928 13.7936 25.9673 12.6075 24.4982 11.8013C23.029 10.9952 21.3703 10.5987 19.6954 10.6534C18.2703 10.6999 16.8782 11.0716 15.624 11.7359C15.2589 11.9292 15.1576 12.3945 15.3795 12.743C15.6014 13.0914 16.0624 13.1905 16.4304 13.0027C17.4561 12.4793 18.5872 12.1864 19.7442 12.1486C21.1511 12.1027 22.5445 12.4357 23.7785 13.1129C25.0126 13.79 26.042 14.7864 26.759 15.9977C27.3487 16.9938 27.7093 18.1053 27.8188 19.2515C27.8581 19.6628 28.1893 19.9984 28.6024 19.9984Z" />
  </mask>
  <path
    d="M28.6024 19.9984C29.0155 19.9984 29.3535 19.663 29.3205 19.2512C29.2071 17.8365 28.7727 16.4626 28.0464 15.2357C27.1928 13.7936 25.9673 12.6075 24.4982 11.8013C23.029 10.9952 21.3703 10.5987 19.6954 10.6534C18.2703 10.6999 16.8782 11.0716 15.624 11.7359C15.2589 11.9292 15.1576 12.3945 15.3795 12.743C15.6014 13.0914 16.0624 13.1905 16.4304 13.0027C17.4561 12.4793 18.5872 12.1864 19.7442 12.1486C21.1511 12.1027 22.5445 12.4357 23.7785 13.1129C25.0126 13.79 26.042 14.7864 26.759 15.9977C27.3487 16.9938 27.7093 18.1053 27.8188 19.2515C27.8581 19.6628 28.1893 19.9984 28.6024 19.9984Z"
    stroke="white"
    stroke-width="2.6"
    mask="url(#path-2-inside-1_530_1341)" />
  <mask id="path-3-inside-2_530_1341" fill="white">
    <path
      d="M13.6124 14.2376C13.3056 13.9609 12.8299 13.9836 12.5787 14.3115C11.8822 15.2204 11.3573 16.2513 11.0323 17.3536C10.6365 18.6956 10.5469 20.1093 10.7702 21.4904C10.9935 22.8716 11.5238 24.1851 12.3222 25.334C12.9781 26.2778 13.801 27.0908 14.7483 27.734C15.0901 27.966 15.5487 27.8377 15.7527 27.4785C15.9567 27.1193 15.8284 26.6655 15.4901 26.4283C14.7358 25.8991 14.0788 25.2402 13.5507 24.4803C12.8801 23.5152 12.4346 22.4119 12.247 21.2517C12.0595 20.0915 12.1347 18.904 12.4672 17.7768C12.7289 16.8893 13.1449 16.0569 13.6941 15.317C13.9403 14.9853 13.9192 14.5142 13.6124 14.2376Z" />
  </mask>
  <path
    d="M13.6124 14.2376C13.3056 13.9609 12.8299 13.9836 12.5787 14.3115C11.8822 15.2204 11.3573 16.2513 11.0323 17.3536C10.6365 18.6956 10.5469 20.1093 10.7702 21.4904C10.9935 22.8716 11.5238 24.1851 12.3222 25.334C12.9781 26.2778 13.801 27.0908 14.7483 27.734C15.0901 27.966 15.5487 27.8377 15.7527 27.4785C15.9567 27.1193 15.8284 26.6655 15.4901 26.4283C14.7358 25.8991 14.0788 25.2402 13.5507 24.4803C12.8801 23.5152 12.4346 22.4119 12.247 21.2517C12.0595 20.0915 12.1347 18.904 12.4672 17.7768C12.7289 16.8893 13.1449 16.0569 13.6941 15.317C13.9403 14.9853 13.9192 14.5142 13.6124 14.2376Z"
    stroke="white"
    stroke-width="2.6"
    mask="url(#path-3-inside-2_530_1341)" />
  <mask id="path-4-inside-3_530_1341" fill="white">
    <path
      d="M17.8082 28.3164C17.7029 28.7159 17.9412 29.1282 18.3478 29.2012C20.4804 29.5843 22.6889 29.2156 24.5901 28.1444C26.4913 27.0733 27.9508 25.3752 28.728 23.3527C28.8762 22.9671 28.647 22.5497 28.2508 22.4328C27.8545 22.3159 27.4419 22.5441 27.2878 22.9274C26.6248 24.5772 25.4177 25.961 23.8557 26.8411C22.2937 27.7211 20.4848 28.0367 18.7301 27.7491C18.3224 27.6822 17.9135 27.9169 17.8082 28.3164Z" />
  </mask>
  <path
    d="M17.8082 28.3164C17.7029 28.7159 17.9412 29.1282 18.3478 29.2012C20.4804 29.5843 22.6889 29.2156 24.5901 28.1444C26.4913 27.0733 27.9508 25.3752 28.728 23.3527C28.8762 22.9671 28.647 22.5497 28.2508 22.4328C27.8545 22.3159 27.4419 22.5441 27.2878 22.9274C26.6248 24.5772 25.4177 25.961 23.8557 26.8411C22.2937 27.7211 20.4848 28.0367 18.7301 27.7491C18.3224 27.6822 17.9135 27.9169 17.8082 28.3164Z"
    stroke="white"
    stroke-width="2.6"
    mask="url(#path-4-inside-3_530_1341)" />
  <circle
    cx="20"
    cy="20"
    r="12"
    stroke="#73ABFF"
    stroke-width="2"
    stroke-linecap="round"
    stroke-linejoin="round"
    stroke-dasharray="1 4" />
  <path
    d="M20.1074 15.5116L23.6631 17.0311C23.8609 17.0771 24 17.2428 24 17.4325V20.4725C24 21.7004 23.2684 22.2853 22.0703 23.2606C21.6622 23.5928 21.2265 23.8863 20.791 24.1395C20.5286 24.2921 20.3223 24.3986 20.1992 24.4559C20.0741 24.5141 19.9259 24.5141 19.8008 24.4559C19.6777 24.3986 19.4714 24.2921 19.209 24.1395C18.7735 23.8863 18.3378 23.5928 17.9297 23.2606C16.7316 22.2853 16 21.7004 16 20.4725V17.4325C16 17.2428 16.1391 17.0771 16.3369 17.0311L19.8926 15.5116C19.9631 15.4952 20.0369 15.4952 20.1074 15.5116ZM21.8145 18.6395C21.6282 18.4533 21.3259 18.4533 21.1396 18.6395L19.4648 20.6385L18.8145 19.9647C18.6283 19.7785 18.3259 19.7786 18.1396 19.9647C17.9534 20.1509 17.9534 20.4533 18.1396 20.6395L19.1279 21.6512C19.3141 21.8373 19.6166 21.8373 19.8027 21.6512L21.8145 19.3133C22.0002 19.1272 22.0002 18.8256 21.8145 18.6395Z"
    fill="#73ABFF" />
</svg>
