<svg xmlns="http://www.w3.org/2000/svg" width="40" height="40" viewBox="0 0 40 40">
    <g fill="none" fill-rule="evenodd">
      <path type="background" fill="#1F2D45" d="M0 20c0 11.046 8.954 20 20 20s20-8.954 20-20S31.046 0 20 0 0 8.954 0 20z"/>
      <path type="secondary" fill="#F7F7F7" d="M27.4038952,17.6031959 C27.0370693,17.2364427 27.0370693,16.6418182 27.4038952,16.2750649 C27.7707211,15.9083117 28.3654634,15.9083117 28.7322893,16.2750649 L30.7248806,18.2672614 C31.0917065,18.6340147 31.0917065,19.2286392 30.7248806,19.5953924 L28.7322893,21.5875889 C28.3654634,21.9543422 27.7707211,21.9543422 27.4038952,21.5875889 C27.0370693,21.2208357 27.0370693,20.6262112 27.4038952,20.2594579 L27.6337283,19.8729971 L12.5261277,19.8729971 L12.5558638,25.2857143 L24.0089801,25.2857143 L24.0095358,24 L25.5648439,24 L25.5648439,25.4189415 C25.5648439,26.292136 24.8602484,27 23.9826958,27 L12.582148,27 C11.7083518,27 11,26.2825461 11,25.4189415 L11,15.5810585 C11,14.707864 11.7045955,14 12.582148,14 L23.9826958,14 C24.856492,14 25.5648439,14.7174539 25.5648439,15.5810585 L25.5648439,17 L24.0095358,17 L24.0089801,15.7142857 L12.5558638,15.7142857 L12.5261277,18.1402585 L27.7697553,18.1402585 L27.4038952,17.6031959 Z"/>
      <path type="primary" fill="#00A5FF" d="M25.6039978,23 L25.6039978,21 L20.6839978,21 C20.0875303,21 19.6039978,21.4477153 19.6039978,22 C19.6039978,22.5128358 20.0209212,22.9355072 20.558047,22.9932723 L20.6839978,23 L25.6039978,23 Z"/>
    </g>
  </svg>
