<svg width="40" height="40" viewBox="0 0 40 40" fill="none" xmlns="http://www.w3.org/2000/svg">
    <path type="background" fill="#1F2D45" d="M0 20c0 11.046 8.954 20 20 20s20-8.954 20-20S31.046 0 20 0 0 8.954 0 20z"/>
    <path type="secondary" d="M11 9.75C11 9.33579 11.3358 9 11.75 9H26V10.5H11.75C11.3358 10.5 11 10.1642 11 9.75V9.75Z" fill="#1E283D"/>
    <path type="secondary" d="M11 14.25C11 13.8358 11.3358 13.5 11.75 13.5H26V15H11.75C11.3358 15 11 14.6642 11 14.25V14.25Z" fill="#1E283D"/>
    <path type="secondary" d="M11 28.25C11 27.8358 11.3358 27.5 11.75 27.5H26V29H11.75C11.3358 29 11 28.6642 11 28.25V28.25Z" fill="#1E283D"/>
    <path type="secondary" d="M28.25 11C28.6642 11 29 11.3358 29 11.75L29 26L27.5 26L27.5 11.75C27.5 11.3358 27.8358 11 28.25 11V11Z" fill="#1E283D"/>
    <path type="secondary" d="M11.75 13.5C12.1642 13.5 12.5 13.8358 12.5 14.25L12.5 28.25C12.5 28.6642 12.1642 29 11.75 29V29C11.3358 29 11 28.6642 11 28.25L11 14.25C11 13.8358 11.3358 13.5 11.75 13.5V13.5Z" fill="#1E283D"/>
    <path type="secondary" d="M26 15C26.394 15 26.7841 14.9224 27.1481 14.7716C27.512 14.6209 27.8427 14.3999 28.1213 14.1213C28.3999 13.8427 28.6209 13.512 28.7716 13.1481C28.9224 12.7841 29 12.394 29 12C29 11.606 28.9224 11.2159 28.7716 10.8519C28.6209 10.488 28.3999 10.1573 28.1213 9.87868C27.8427 9.6001 27.512 9.37913 27.1481 9.22836C26.7841 9.0776 26.394 9 26 9L26 10.5C26.197 10.5 26.392 10.5388 26.574 10.6142C26.756 10.6896 26.9214 10.8001 27.0607 10.9393C27.1999 11.0786 27.3104 11.244 27.3858 11.426C27.4612 11.608 27.5 11.803 27.5 12C27.5 12.197 27.4612 12.392 27.3858 12.574C27.3104 12.756 27.1999 12.9214 27.0607 13.0607C26.9214 13.1999 26.756 13.3104 26.574 13.3858C26.392 13.4612 26.197 13.5 26 13.5L26 15Z" fill="#1E283D"/>
    <path type="secondary" d="M26 29C26.394 29 26.7841 28.9224 27.1481 28.7716C27.512 28.6209 27.8427 28.3999 28.1213 28.1213C28.3999 27.8427 28.6209 27.512 28.7716 27.1481C28.9224 26.7841 29 26.394 29 26L27.5002 26C27.5002 26.197 27.4614 26.3921 27.386 26.5741C27.3106 26.7561 27.2001 26.9215 27.0608 27.0608C26.9215 27.2001 26.7561 27.3106 26.5741 27.386C26.3921 27.4614 26.197 27.5002 26 27.5002L26 29Z" fill="#1E283D"/>
    <rect type="secondary" x="11" y="11.5" width="15.5" height="1" rx="0.5" fill="#1E283D"/>
    <path fill-rule="evenodd" clip-rule="evenodd" d="M19.8012 24.9612C19.9264 25.0129 20.0736 25.0129 20.1988 24.9612C20.3218 24.9103 20.5284 24.8157 20.7911 24.68C21.2267 24.4548 21.6622 24.1937 22.0704 23.8983L22.103 23.8747C23.2818 23.0218 24 22.5022 24 21.4207V18.7182C24 18.5496 23.8612 18.4026 23.6634 18.3617L20.1078 17.011C20.037 16.9963 19.963 16.9963 19.8922 17.011L16.3367 18.3617C16.1388 18.4026 16 18.5496 16 18.7182V21.4207C16 22.5022 16.7182 23.0218 17.897 23.8747L17.9296 23.8983C18.3378 24.1937 18.7733 24.4548 19.2089 24.68C19.4716 24.8157 19.6782 24.9103 19.8012 24.9612ZM19.1744 20.8256C18.9882 20.6394 18.6863 20.6394 18.5 20.8256C18.3138 21.0118 18.3138 21.3138 18.5 21.5L19.4884 22.5116C19.6747 22.6978 19.9766 22.6978 20.1628 22.5116L22.1744 20.1744C22.3606 19.9881 22.3606 19.6862 22.1744 19.5C21.9882 19.3138 21.6862 19.3138 21.5 19.5L19.8253 21.4997L19.1744 20.8256Z" fill="#00A5FF"/>
    </svg>
    