<svg xmlns="http://www.w3.org/2000/svg">
  <path type="background" fill="#1F2D45" d="M0 20c0 11.046 8.954 20 20 20s20-8.954 20-20S31.046 0 20 0 0 8.954 0 20z"/>
  <path type="secondary" fill="#FFF" fill-rule="evenodd" clip-rule="evenodd" d="M11 16H11V28C11 29.1046 11.8955 30 13 30H27C28.1046 30 29 29.1046 29 28V12C29 10.8954 28.1046 10 27 10H17L17 10L16.1834 10.0148C15.9234 10.0195 15.6754 10.1253 15.4921 10.3098L11.2906 14.5393C11.1044 14.7266 11 14.98 11 15.2441V16ZM26.5 11.5H17V14C17 15.1046 16.1046 16 15 16H12.5V27.5C12.5 28.0523 12.9477 28.5 13.5 28.5H26.5C27.0523 28.5 27.5 28.0523 27.5 27.5V12.5C27.5 11.9477 27.0523 11.5 26.5 11.5ZM22.6546 15C22.3785 15 22.1546 15.2239 22.1546 15.5C22.1546 15.7761 22.3785 16 22.6546 16H23.1766L21.6406 17.2899L18.5236 16.7818C18.3566 16.7254 18.166 16.7639 18.0338 16.8928C18.0106 16.9139 17.9893 16.9372 17.9703 16.9626L15.7233 19.5008C15.5482 19.6986 15.5652 20.0005 15.7613 20.1774C15.96 20.3566 16.2668 20.3394 16.4442 20.139L18.5229 17.7909L21.5479 18.2707C21.7214 18.3602 21.939 18.3427 22.0979 18.2093L24 16.6119V17.2069C24 17.483 24.2239 17.7069 24.5 17.7069C24.7761 17.7069 25 17.483 25 17.2069V15.5C25 15.2239 24.7761 15 24.5 15C24.4989 15 24.4979 15 24.4968 15C24.4912 15.0001 24.4855 15.0002 24.48 15.0004C24.4733 15.0001 24.4666 15 24.4599 15H22.6546Z"/>
  <path type="primary" fill-rule="evenodd" clip-rule="evenodd" d="M22 24.9951V19.9951H24V24.9951H22ZM19 24.9951V20.9951H21V24.9951H19ZM16 22.033V24.9951H18.0116V22.033H16Z" fill="#00A5FF"/>
</svg>