<svg xmlns="http://www.w3.org/2000/svg" width="40" height="40" viewBox="0 0 40 40">
  <g fill="none" fill-rule="evenodd">
    <path type="background" fill="#1F2D45" d="M0 20c0 11.046 8.954 20 20 20s20-8.954 20-20S31.046 0 20 0 0 8.954 0 20z"/>
    <path type="shared-primary" fill="#FFF" d="M21.579 10v1.191c1.295.231 2.495.74 3.533 1.465l.843-.843 2.232 2.232-.843.843a8.899 8.899 0 0 1 1.465 3.534H30v3.157h-1.191a8.899 8.899 0 0 1-1.465 3.533l.843.843-2.232 2.232-.843-.843a8.899 8.899 0 0 1-3.534 1.465V30h-3.157v-1.191a8.899 8.899 0 0 1-3.533-1.465l-.843.843-2.232-2.232.843-.843a8.899 8.899 0 0 1-1.465-3.534H10v-3.157h1.191a8.899 8.899 0 0 1 1.465-3.533l-.843-.843 2.232-2.232.843.843a8.899 8.899 0 0 1 3.534-1.465V10h3.157zM20 13.158a6.842 6.842 0 1 0 0 13.684 6.842 6.842 0 0 0 0-13.684zm0 3.158a3.684 3.684 0 1 1 0 7.368 3.684 3.684 0 0 1 0-7.368zm0 2.105a1.579 1.579 0 1 0 0 3.158 1.579 1.579 0 0 0 0-3.158z"/>
  </g>
</svg>
