<svg xmlns="http://www.w3.org/2000/svg">
    <g fill="none" fill-rule="evenodd">
        <path type="background" fill="#1F2D45" d="M0 20c0 11.046 8.954 20 20 20s20-8.954 20-20S31.046 0 20 0 0 8.954 0 20z"/>
        <path type="secondary" fill="#FFF" d="M25.45 13.052l4.242 4.243c.027.027.053.055.077.085l-.077-.085a1.007 1.007 0 0 1 .293.707v.033l-.003.052.003-.085a1.008 1.008 0 0 1-.213.617c-.05.063-.107.12-.17.17l.09-.08a1.008 1.008 0 0 1-.707.293h-18a1 1 0 1 1 0-2H26.57l-2.534-2.536a1 1 0 1 1 1.414-1.414z"/>
        <path type="primary" fill="#00A5FF" d="M14.536 27.95l-4.243-4.243a1.006 1.006 0 0 1-.076-.085l.076.085A1.007 1.007 0 0 1 10 23v-.033l.004-.052L10 23a1.008 1.008 0 0 1 .213-.617c.05-.063.107-.12.17-.17l-.09.08A1.008 1.008 0 0 1 11 22h18a1 1 0 0 1 0 2H13.415l2.535 2.536a1 1 0 0 1-1.414 1.414z"/>
    </g>
</svg>
