<svg width="40" height="40" viewBox="0 0 40 40" xmlns="http://www.w3.org/2000/svg">
  <g fill="none" fill-rule="evenodd">
      <path type="background" fill="#1F2D45" d="M0 20c0 11.046 8.954 20 20 20s20-8.954 20-20S31.046 0 20 0 0 8.954 0 20z"/>
      <path type="secondary" d="M20.156 12.8575C20.4601 12.8575 20.7419 12.7625 20.9736 12.6006L22.7929 13.7377C22.747 14.2729 23.0064 14.8116 23.5023 15.0979C23.9674 15.3664 24.5206 15.3438 24.951 15.0865L26.4584 16.0286C26.456 16.0629 26.4547 16.0975 26.4547 16.1324C26.4547 16.3446 26.501 16.546 26.584 16.727L25.2945 17.3718C25.0406 17.1352 24.7001 16.9904 24.3257 16.9904C23.5409 16.9904 22.9047 17.6266 22.9047 18.4114C22.9047 18.4625 22.9074 18.513 22.9126 18.5627L21.1295 19.4542C20.8744 19.2166 20.5322 19.0713 20.156 19.0713C19.7934 19.0713 19.4623 19.2064 19.2104 19.429L17.8333 18.6946C17.8696 18.5687 17.8891 18.4357 17.8891 18.2981C17.8891 17.5091 17.2494 16.8694 16.4603 16.8694C16.0214 16.8694 15.6286 17.0674 15.3665 17.3789L13.7978 16.5423C13.8205 16.4663 13.837 16.3877 13.8469 16.307L15.7428 15.0431C16.1618 15.2622 16.6805 15.2687 17.1204 15.0148C17.6171 14.728 17.8765 14.1879 17.8295 13.6519L19.3722 12.6235C19.5973 12.7714 19.8666 12.8575 20.156 12.8575ZM18.7273 11.4287C18.7273 11.563 18.7458 11.6929 18.7804 11.8161L17.3912 12.7423C16.9441 12.3164 16.2535 12.2157 15.6916 12.5401C15.0744 12.8965 14.8237 13.6438 15.0716 14.2887L13.5785 15.2841C13.3183 14.932 12.9002 14.7036 12.4287 14.7036C11.6397 14.7036 11 15.3433 11 16.1324C11 16.8282 11.4974 17.4078 12.156 17.5351V19.0973C11.4974 19.2246 11 19.8042 11 20.5C11 21.1958 11.4974 21.7754 12.156 21.9027V23.4649C11.4974 23.5922 11 24.1718 11 24.8677C11 25.6567 11.6397 26.2964 12.4287 26.2964C12.7668 26.2964 13.0774 26.179 13.3221 25.9827L15.0755 27.0348C14.992 27.5978 15.2519 28.1803 15.7748 28.4821C16.2829 28.7755 16.8963 28.7213 17.3396 28.3933L18.764 29.2479C18.74 29.3518 18.7273 29.4601 18.7273 29.5713C18.7273 30.3603 19.367 31 20.156 31C20.9451 31 21.5847 30.3603 21.5847 29.5713C21.5847 29.4736 21.5749 29.3782 21.5563 29.286L22.9972 28.4755C22.7827 28.2188 22.5901 27.9432 22.4223 27.6516L21.0253 28.4373C20.914 28.3519 20.7898 28.2825 20.656 28.2325V25.8838C21.1725 25.671 21.5361 25.1626 21.5361 24.5693C21.5361 23.9761 21.1725 23.4677 20.656 23.2549V21.8388C21.1985 21.6361 21.5847 21.1132 21.5847 20.5C21.5847 20.4489 21.5821 20.3984 21.5768 20.3486L23.3622 19.4559C23.6154 19.6897 23.9539 19.8325 24.3257 19.8325C24.3681 19.8325 24.41 19.8306 24.4514 19.827C24.7404 19.6526 25.046 19.5028 25.3651 19.3805C25.6019 19.1266 25.7468 18.786 25.7468 18.4114C25.7468 18.3628 25.7443 18.3147 25.7395 18.2673L27.3543 17.4599C27.4502 17.4981 27.5512 17.5263 27.656 17.5431V19.0043C27.9978 19.0174 28.332 19.0602 28.656 19.1302V17.3344C29.0508 17.0801 29.3122 16.6368 29.3122 16.1324C29.3122 15.3433 28.6725 14.7036 27.8834 14.7036C27.4931 14.7036 27.1394 14.8601 26.8815 15.1138L25.577 14.2985C25.7795 13.6712 25.525 12.9662 24.931 12.6233C24.3673 12.2978 23.6739 12.4002 23.2269 12.8297L21.5421 11.7767C21.5699 11.6653 21.5847 11.5487 21.5847 11.4287C21.5847 10.6397 20.9451 10 20.156 10C19.367 10 18.7273 10.6397 18.7273 11.4287ZM13.156 19.27V17.3624C13.1646 17.3573 13.1731 17.3522 13.1815 17.3469L15.0321 18.3339C15.051 19.1064 15.6832 19.7269 16.4603 19.7269C16.7423 19.7269 17.0051 19.6452 17.2265 19.5043L18.7396 20.3113C18.7315 20.373 18.7273 20.436 18.7273 20.5C18.7273 21.1132 19.1136 21.6361 19.656 21.8388V23.2241C19.0964 23.4149 18.694 23.9451 18.694 24.5693C18.694 25.1936 19.0964 25.7238 19.656 25.9146V28.2325C19.5346 28.2778 19.4211 28.3392 19.3179 28.4141L17.8844 27.5539C18.0159 26.9613 17.7571 26.3271 17.2035 26.0075C16.6645 25.6963 16.0071 25.7762 15.5598 26.1592L13.8345 25.124C13.8496 25.0408 13.8575 24.9552 13.8575 24.8677C13.8575 24.3442 13.5759 23.8865 13.156 23.6376V21.73C13.5759 21.4812 13.8575 21.0235 13.8575 20.5C13.8575 19.9765 13.5759 19.5188 13.156 19.27Z" fill="#FFF"/>
      <path type="primary" d="M25.2929 25.994C25.5112 26.1631 25.8264 26.149 26.0289 25.95L26.0795 25.893C26.2487 25.6746 26.2346 25.3594 26.0356 25.157L25.6519 24.7667L27.3648 24.7667L27.4905 24.7633C28.6974 24.698 29.656 23.6987 29.656 22.4755V21.6597L29.6516 21.5828C29.6135 21.2547 29.3346 21 28.9963 21C28.632 21 28.3366 21.2954 28.3366 21.6597V22.4755L28.3321 22.5691C28.2851 23.0619 27.8699 23.4473 27.3648 23.4473H25.6496L26.036 23.0531L26.0857 22.9952C26.2508 22.7738 26.231 22.4589 26.0284 22.2601C25.8073 22.0432 25.4523 22.0467 25.2354 22.2677L23.8165 23.7143L23.7674 23.7715C23.6039 23.9899 23.6205 24.3003 23.8169 24.5001L25.2359 25.9433L25.2929 25.994Z" fill="#00A5FF"/>
      <path type="primary" d="M26.0289 25.95L26.2041 26.1283L26.2101 26.1224L26.2157 26.1161L26.0289 25.95ZM25.2929 25.994L25.1268 26.1808L25.1331 26.1864L25.1398 26.1916L25.2929 25.994ZM26.0795 25.893L26.2664 26.0591L26.272 26.0528L26.2772 26.0461L26.0795 25.893ZM26.0356 25.157L25.8573 25.3323L25.8573 25.3323L26.0356 25.157ZM25.6519 24.7667V24.5167H25.0556L25.4736 24.9419L25.6519 24.7667ZM27.3648 24.7667V25.0168L27.3715 25.0166L27.3648 24.7667ZM27.4905 24.7633L27.4972 25.0133L27.504 25.0129L27.4905 24.7633ZM29.656 21.6597H29.906V21.6525L29.9056 21.6453L29.656 21.6597ZM29.6516 21.5828L29.9012 21.5684L29.9007 21.5611L29.8999 21.5539L29.6516 21.5828ZM28.3366 22.4755L28.5866 22.4874V22.4755H28.3366ZM28.3321 22.5691L28.5813 22.5929L28.5819 22.5809L28.3321 22.5691ZM25.6496 23.4473L25.4711 23.2723L25.0545 23.6973H25.6496V23.4473ZM26.036 23.0531L26.2146 23.2281L26.2204 23.2221L26.2259 23.2158L26.036 23.0531ZM26.0857 22.9952L26.2755 23.1579L26.281 23.1514L26.286 23.1447L26.0857 22.9952ZM26.0284 22.2601L26.2034 22.0816L26.2034 22.0816L26.0284 22.2601ZM25.2354 22.2677L25.0569 22.0927L25.0569 22.0927L25.2354 22.2677ZM23.8165 23.7143L23.638 23.5393L23.6322 23.5452L23.6268 23.5515L23.8165 23.7143ZM23.7674 23.7715L23.5777 23.6086L23.5723 23.615L23.5673 23.6217L23.7674 23.7715ZM23.8169 24.5001L23.9952 24.3249L23.9952 24.3249L23.8169 24.5001ZM25.2359 25.9433L25.0576 26.1186L25.0635 26.1246L25.0698 26.1301L25.2359 25.9433ZM25.8536 25.7717C25.7415 25.8819 25.5668 25.8899 25.4459 25.7963L25.1398 26.1916C25.4557 26.4363 25.9113 26.4162 26.2041 26.1283L25.8536 25.7717ZM25.8927 25.7269L25.842 25.7839L26.2157 26.1161L26.2664 26.0591L25.8927 25.7269ZM25.8573 25.3323C25.9675 25.4443 25.9755 25.6191 25.8819 25.7399L26.2772 26.0461C26.5219 25.7302 26.5017 25.2746 26.2138 24.9817L25.8573 25.3323ZM25.4736 24.9419L25.8573 25.3323L26.2139 24.9818L25.8302 24.5914L25.4736 24.9419ZM27.3648 24.5167L25.6519 24.5167V25.0167L27.3648 25.0167V24.5167ZM27.4838 24.5134L27.358 24.5168L27.3715 25.0166L27.4972 25.0132L27.4838 24.5134ZM29.406 22.4755C29.406 23.5651 28.552 24.4555 27.477 24.5137L27.504 25.0129C28.8428 24.9405 29.906 23.8322 29.906 22.4755H29.406ZM29.406 21.6597V22.4755H29.906V21.6597H29.406ZM29.402 21.5972L29.4064 21.6741L29.9056 21.6453L29.9012 21.5684L29.402 21.5972ZM28.9963 21.25C29.2062 21.25 29.3796 21.4081 29.4032 21.6116L29.8999 21.5539C29.8473 21.1012 29.463 20.75 28.9963 20.75V21.25ZM28.5866 21.6597C28.5866 21.4334 28.77 21.25 28.9963 21.25V20.75C28.4939 20.75 28.0866 21.1573 28.0866 21.6597H28.5866ZM28.5866 22.4755V21.6597H28.0866V22.4755H28.5866ZM28.5819 22.5809L28.5863 22.4873L28.0869 22.4636L28.0824 22.5572L28.5819 22.5809ZM27.3648 23.6973C28 23.6973 28.5218 23.2127 28.581 22.5928L28.0833 22.5453C28.0483 22.911 27.7398 23.1973 27.3648 23.1973V23.6973ZM25.6496 23.6973H27.3648V23.1973H25.6496V23.6973ZM25.8575 22.8781L25.4711 23.2723L25.8282 23.6223L26.2146 23.2281L25.8575 22.8781ZM25.8958 22.8325L25.8462 22.8904L26.2259 23.2158L26.2755 23.1579L25.8958 22.8325ZM25.8533 22.4386C25.9655 22.5486 25.9766 22.7232 25.8853 22.8457L26.286 23.1447C26.525 22.8244 26.4966 22.3692 26.2034 22.0816L25.8533 22.4386ZM25.4139 22.4428C25.534 22.3203 25.7308 22.3184 25.8533 22.4386L26.2034 22.0816C25.8838 21.7681 25.3705 21.773 25.0569 22.0927L25.4139 22.4428ZM23.9949 23.8894L25.4139 22.4428L25.0569 22.0927L23.638 23.5393L23.9949 23.8894ZM23.9571 23.9343L24.0062 23.8772L23.6268 23.5515L23.5777 23.6086L23.9571 23.9343ZM23.9952 24.3249C23.8865 24.2142 23.8771 24.0421 23.9676 23.9213L23.5673 23.6217C23.3307 23.9377 23.3545 24.3863 23.6387 24.6754L23.9952 24.3249ZM25.4141 25.768L23.9952 24.3249L23.6387 24.6754L25.0576 26.1186L25.4141 25.768ZM25.459 25.8071L25.402 25.7564L25.0698 26.1301L25.1268 26.1808L25.459 25.8071Z" fill="#00A5FF"/>
  </g>
</svg>
