<?xml version="1.0" encoding="UTF-8"?>
<svg version="1.1" xmlns="http://www.w3.org/2000/svg" width="144" height="192">
<path d="M0 0 C47.52 0 95.04 0 144 0 C144 63.36 144 126.72 144 192 C96.48 192 48.96 192 0 192 C0 128.64 0 65.28 0 0 Z " fill="#613F32" transform="translate(0,0)"/>
<path d="M0 0 C47.52 0 95.04 0 144 0 C144 41.91 144 83.82 144 127 C143.01 126.01 142.02 125.02 141 124 C138.61955303 122.70183606 136.25228765 121.48699701 133.8125 120.3125 C132.37100945 119.60564064 130.92960574 118.89860416 129.48828125 118.19140625 C128.74787598 117.83062988 128.0074707 117.46985352 127.24462891 117.09814453 C123.65081281 115.33993431 120.0761363 113.54381894 116.5 111.75 C115.23967957 111.11959923 113.97926579 110.48938505 112.71875 109.859375 C112.11466309 109.55531738 111.51057617 109.25125977 110.88818359 108.93798828 C109.55889555 108.27764116 108.22253946 107.63142744 106.88134766 106.99560547 C101.79087186 104.55278575 97.7082793 102.16829967 95 97 C95.52978741 92.76170069 97.74291537 89.69930772 99.91796875 86.07421875 C101.72178627 82.61635918 102.90823899 78.94164376 104.16796875 75.2578125 C105 73 105 73 106 72 C106.39943176 69.47804033 106.75079848 66.97036344 107.0625 64.4375 C107.15337891 63.72658203 107.24425781 63.01566406 107.33789062 62.28320312 C107.56239503 60.52261597 107.78168397 58.76136522 108 57 C108.99 56.67 109.98 56.34 111 56 C112.60840269 46.10629606 112.68563678 40.05659071 106.92578125 31.46875 C104.77644869 28.71341901 102.58123168 26.34657425 100 24 C100 23.34 100 22.68 100 22 C101.65 22.33 103.3 22.66 105 23 C102.37548383 20.37548383 100.5122172 20.4167132 96.875 19.875 C95.77929688 19.70742188 94.68359375 19.53984375 93.5546875 19.3671875 C92.71164063 19.24601562 91.86859375 19.12484375 91 19 C90.690625 17.39125 90.690625 17.39125 90.375 15.75 C89.28228236 11.89243136 89.28228236 11.89243136 86.375 9.5625 C81.13861523 7.13824779 77.53835018 7.20764207 72.171875 8.8828125 C62.77750418 12.52012018 54.36713393 17.3872953 48.3515625 25.6171875 C46.67335927 27.33419312 45.33408509 27.6126412 43 28 C41.58576236 35.07118818 42.5735387 39.4018341 45.07421875 46.11328125 C46.30601883 49.9542106 46.30727859 53.00537839 46 57 C45.67 57 45.34 57 45 57 C45 58.98 45 60.96 45 63 C45.33 61.35 45.66 59.7 46 58 C46.33 58 46.66 58 47 58 C47 60.31 47 62.62 47 65 C46.34 65 45.68 65 45 65 C45.34786708 66.97536745 45.34786708 66.97536745 46 69 C46.99 69.495 46.99 69.495 48 70 C48.70480158 72.26839499 49.31310465 74.56704967 49.875 76.875 C51.03065385 81.52500058 52.28946543 85.93684178 54.125 90.375 C56.91351992 97.60978201 57.31719686 105.3364332 58 113 C57.01 112.67 56.02 112.34 55 112 C54.67 112 54.34 112 54 112 C54.33 121.24 54.66 130.48 55 140 C53 138 53 138 52 135 C51.34 134.67 50.68 134.34 50 134 C49.87519854 123.82174796 50.14754288 113.72995924 50.78125 103.5703125 C50.89488736 101.71558845 51 99.85820203 51 98 C50.55736816 98.44657959 50.11473633 98.89315918 49.65869141 99.35327148 C44.10797038 104.61151707 38.45587307 107.3279643 31.375 110.0625 C29.24344067 110.92045141 27.11193005 111.77852383 24.98046875 112.63671875 C22.98729291 113.42527266 20.9938279 114.21309627 19 115 C16.22150278 116.10726272 13.45158605 117.23232425 10.6875 118.375 C9.63949219 118.79523438 8.59148438 119.21546875 7.51171875 119.6484375 C4.76697188 121.12539305 3.64028511 122.38563789 2 125 C1.34 125.99 0.68 126.98 0 128 C0 85.76 0 43.52 0 0 Z " fill="#D4CDBF" transform="translate(0,0)"/>
<path d="M0 0 C0.495 0.99 0.495 0.99 1 2 C0.67 2.66 0.34 3.32 0 4 C-0.2261782 6.54873282 -0.40078865 9.07896898 -0.53515625 11.6328125 C-0.57813339 12.38464813 -0.62111053 13.13648376 -0.66539001 13.91110229 C-0.80188248 16.3155236 -0.93225976 18.72023271 -1.0625 21.125 C-1.15389472 22.75392886 -1.2456866 24.3828355 -1.33789062 26.01171875 C-1.5632053 30.007569 -1.78303569 34.003688 -2 38 C-1.01 38.33 -0.02 38.66 1 39 C4.24956363 46.70420841 5.29301191 54.84434027 6.5625 63.0625 C7.97630114 72.75602529 7.97630114 72.75602529 10.08984375 82.30859375 C11 86 11 86 12 96 C-9.12 96 -30.24 96 -52 96 C-52.061875 85.56375 -52.12375 75.1275 -52.1875 64.375 C-52.21481201 61.08837402 -52.24212402 57.80174805 -52.27026367 54.41552734 C-52.27902689 51.8056678 -52.28667121 49.19580416 -52.29296875 46.5859375 C-52.30080887 45.91325836 -52.30864899 45.24057922 -52.31672668 44.54751587 C-52.33882418 42.55050112 -52.34001862 40.55328926 -52.34057617 38.55615234 C-52.34723801 37.43252289 -52.35389984 36.30889343 -52.36076355 35.1512146 C-51.85768504 30.75690052 -50.41649667 27.32636283 -47.16601562 24.28271484 C-44.62598007 22.77850533 -42.06959964 21.61233318 -39.34375 20.4765625 C-38.23773438 20.0125 -37.13171875 19.5484375 -35.9921875 19.0703125 C-34.83976562 18.59335938 -33.68734375 18.11640625 -32.5 17.625 C-31.37851562 17.15578125 -30.25703125 16.6865625 -29.1015625 16.203125 C-19.85242296 12.33685651 -19.85242296 12.33685651 -15.62988281 10.66821289 C-14.57124023 10.24531982 -13.51259766 9.82242676 -12.421875 9.38671875 C-11.47924805 9.01764404 -10.53662109 8.64856934 -9.56542969 8.26831055 C-5.58129041 6.29861093 -2.78974105 3.40859205 0 0 Z " fill="#2D2F41" transform="translate(52,96)"/>
<path d="M0 0 C0.41902588 0.38816895 0.83805176 0.77633789 1.26977539 1.17626953 C5.40433259 4.88027473 9.42342002 7.53157206 14.4375 9.875 C15.84259089 10.55439188 17.24753441 11.23408863 18.65234375 11.9140625 C19.3676123 12.25598633 20.08288086 12.59791016 20.81982422 12.95019531 C24.40098934 14.67460853 27.94879881 16.46492223 31.5 18.25 C32.76025635 18.88052887 34.02066805 19.51074733 35.28125 20.140625 C35.88324219 20.44419922 36.48523438 20.74777344 37.10546875 21.06054688 C38.45420146 21.72935144 39.81210004 22.37980621 41.17578125 23.01757812 C42.24892578 23.52708008 42.24892578 23.52708008 43.34375 24.046875 C43.99537109 24.34948242 44.64699219 24.65208984 45.31835938 24.96386719 C47 26 47 26 49 29 C49.24050903 31.82841492 49.24050903 31.82841492 49.22705078 35.30737305 C49.22689972 36.60849533 49.22674866 37.90961761 49.22659302 39.25016785 C49.21637969 40.67068637 49.2059477 42.09120333 49.1953125 43.51171875 C49.19158183 44.96474513 49.18873511 46.41777403 49.18673706 47.87080383 C49.17910481 51.69311482 49.15945992 55.51527354 49.1373291 59.33752441 C49.11326261 63.92469384 49.10408773 68.51191421 49.09242249 73.09912872 C49.07303518 80.06619167 49.03471006 87.03292062 49 94 C28.54 94 8.08 94 -13 94 C-11.87392157 84.99137257 -11.87392157 84.99137257 -11.29150391 81.95825195 C-11.09592392 80.93227654 -11.09592392 80.93227654 -10.89639282 79.88557434 C-10.75784882 79.17696762 -10.61930481 78.4683609 -10.4765625 77.73828125 C-10.32972015 76.98459763 -10.18287781 76.230914 -10.03158569 75.45439148 C-9.7222253 73.87511845 -9.41122143 72.29616653 -9.09863281 70.7175293 C-8.62452289 68.3100773 -8.16381595 65.90028516 -7.703125 63.49023438 C-7.3992626 61.9477539 -7.09460259 60.40543028 -6.7890625 58.86328125 C-6.65456696 58.14860184 -6.52007141 57.43392242 -6.38150024 56.69758606 C-5.54438167 52.56666834 -4.31061981 49.50730126 -2 46 C-1.23347675 43.76915303 -0.52641611 41.51713325 0.125 39.25 C1.90536278 33.09463722 1.90536278 33.09463722 3 32 C4.2156613 21.43309791 1.63544493 10.4114628 0 0 Z " fill="#181924" transform="translate(95,98)"/>
<path d="M0 0 C0.97517578 0.0928125 1.95035156 0.185625 2.95507812 0.28125 C10.01444597 1.15337506 10.01444597 1.15337506 13.33984375 4.71875 C15.13581856 8.92497506 14.99816728 11.37032445 14.6875 15.875 C13.6975 16.205 12.7075 16.535 11.6875 16.875 C12.3475 18.195 13.0075 19.515 13.6875 20.875 C12.77226563 20.99617188 11.85703125 21.11734375 10.9140625 21.2421875 C9.72554687 21.40976562 8.53703125 21.57734375 7.3125 21.75 C6.12914062 21.91242187 4.94578125 22.07484375 3.7265625 22.2421875 C0.59183341 22.6052585 0.59183341 22.6052585 -1.3125 24.875 C-3.625 25.140625 -3.625 25.140625 -6.3125 25.125 C-7.6428125 25.13273437 -7.6428125 25.13273437 -9 25.140625 C-11.3125 24.875 -11.3125 24.875 -13.3125 22.875 C-15.54285297 22.59758755 -15.54285297 22.59758755 -18.1015625 22.6796875 C-19.04257813 22.68613281 -19.98359375 22.69257812 -20.953125 22.69921875 C-21.93796875 22.71597656 -22.9228125 22.73273437 -23.9375 22.75 C-24.93007813 22.75902344 -25.92265625 22.76804687 -26.9453125 22.77734375 C-29.40128134 22.80095884 -31.85677168 22.83389201 -34.3125 22.875 C-34.3125 24.195 -34.3125 25.515 -34.3125 26.875 C-33.6525 26.875 -32.9925 26.875 -32.3125 26.875 C-31.6525 28.855 -30.9925 30.835 -30.3125 32.875 C-30.35375 31.76125 -30.395 30.6475 -30.4375 29.5 C-30.3125 25.875 -30.3125 25.875 -28.3125 23.875 C-25.62410615 23.60508094 -23.02108064 23.78762643 -20.3125 23.875 C-19.9825 27.175 -19.6525 30.475 -19.3125 33.875 C-17.3325 33.875 -15.3525 33.875 -13.3125 33.875 C-12.62756627 31.01721967 -12.62756627 31.01721967 -12.3125 27.875 C-12.9725 26.885 -13.6325 25.895 -14.3125 24.875 C-12.9925 25.535 -11.6725 26.195 -10.3125 26.875 C-10.1875 33.5 -10.1875 33.5 -11.3125 36.875 C-10.3225 34.895 -9.3325 32.915 -8.3125 30.875 C-7.6525 30.875 -6.9925 30.875 -6.3125 30.875 C-5.1188905 38.03665702 -4.87458516 44.68542579 -6.3125 51.875 C-12.0625 52 -12.0625 52 -14.3125 50.875 C-14.6425 51.865 -14.9725 52.855 -15.3125 53.875 C-15.6425 53.215 -15.9725 52.555 -16.3125 51.875 C-18.7875 52.37 -18.7875 52.37 -21.3125 52.875 C-21.3125 53.865 -21.3125 54.855 -21.3125 55.875 C-19.6625 56.535 -18.0125 57.195 -16.3125 57.875 C-16.3125 57.215 -16.3125 56.555 -16.3125 55.875 C-12.71165071 55.45137067 -11.25246275 55.90785057 -8 57.6875 C-7.113125 58.409375 -6.22625 59.13125 -5.3125 59.875 C-5.3125 62.875 -5.3125 62.875 -7.3125 65.875 C-10.9375 66.0625 -10.9375 66.0625 -14.3125 65.875 C-14.3125 66.865 -14.3125 67.855 -14.3125 68.875 C-12.8275 69.37 -12.8275 69.37 -11.3125 69.875 C-11.6425 70.865 -11.9725 71.855 -12.3125 72.875 C-17.68555699 73.84391192 -17.68555699 73.84391192 -20.3125 73.875 C-22.3125 72.4375 -22.3125 72.4375 -23.3125 70.875 C-23.3125 72.195 -23.3125 73.515 -23.3125 74.875 C-22.755625 75.143125 -22.19875 75.41125 -21.625 75.6875 C-19.3125 76.875 -19.3125 76.875 -16.8125 78.4375 C-14.54282448 79.74256343 -12.82958003 80.31505635 -10.3125 80.875 C-10.45345064 82.5004308 -10.60042087 84.12534051 -10.75 85.75 C-10.83121094 86.65492187 -10.91242188 87.55984375 -10.99609375 88.4921875 C-11.3125 90.875 -11.3125 90.875 -12.3125 92.875 C-15.6628698 92.29735003 -16.99483772 91.28923154 -19.3125 88.875 C-19.951875 88.606875 -20.59125 88.33875 -21.25 88.0625 C-24.25612886 86.33169854 -25.53742187 83.79119979 -27.3125 80.875 C-26.6525 80.875 -25.9925 80.875 -25.3125 80.875 C-25.745625 79.5446875 -25.745625 79.5446875 -26.1875 78.1875 C-27.18042767 74.77045926 -27.66842264 71.40151659 -28.125 67.875 C-28.9668065 61.98914324 -30.58001608 56.71720138 -32.5546875 51.14428711 C-34.12117801 46.66244923 -35.02313409 42.60130979 -35.3125 37.875 C-36.3025 37.545 -37.2925 37.215 -38.3125 36.875 C-38.3125 35.555 -38.3125 34.235 -38.3125 32.875 C-37.6525 32.875 -36.9925 32.875 -36.3125 32.875 C-36.6425 32.215 -36.9725 31.555 -37.3125 30.875 C-38.3025 31.37 -38.3025 31.37 -39.3125 31.875 C-39.3125 29.235 -39.3125 26.595 -39.3125 23.875 C-38.9825 23.875 -38.6525 23.875 -38.3125 23.875 C-38.3125 20.905 -38.3125 17.935 -38.3125 14.875 C-36.9925 14.545 -35.6725 14.215 -34.3125 13.875 C-33.9825 14.865 -33.6525 15.855 -33.3125 16.875 C-30.39399652 13.63221836 -28.10940542 10.70586652 -26.25 6.75 C-20.83121167 -4.38625002 -10.77889902 -1.30829523 0 0 Z " fill="#AC7F68" transform="translate(83.3125,32.125)"/>
<path d="M0 0 C0.99 0 1.98 0 3 0 C5.40765079 2.40765079 5.74716196 4.31045622 6.10546875 7.64453125 C5.90452346 12.1323095 3.85694461 15.97771363 2 20 C-1.19166057 27.52601444 -3.41714183 35.19253489 -5.04296875 43.19140625 C-5.21629227 44.02212143 -5.38961578 44.85283661 -5.56819153 45.70872498 C-6.11300257 48.32563407 -6.6503786 50.94400302 -7.1875 53.5625 C-7.55875111 55.35231601 -7.93049157 57.1420306 -8.30273438 58.93164062 C-9.20838947 63.28644987 -10.10394293 67.64316193 -11 72 C-16.94 72 -22.88 72 -29 72 C-29.45375 69.525 -29.9075 67.05 -30.375 64.5 C-31.56793034 58.03013819 -31.56793034 58.03013819 -33.0625 51.625 C-35.4063264 42.56220457 -36.26504759 34.39446469 -36 25 C-35.34 25 -34.68 25 -34 25 C-34 24.34 -34 23.68 -34 23 C-32.35 22.67 -30.7 22.34 -29 22 C-29.639375 21.71125 -30.27875 21.4225 -30.9375 21.125 C-33 20 -33 20 -34 18 C-33.34 17.34 -32.68 16.68 -32 16 C-30.41348318 17.55926748 -28.83092685 19.12256518 -27.25 20.6875 C-26.36828125 21.55761719 -25.4865625 22.42773438 -24.578125 23.32421875 C-23.72734375 24.20722656 -22.8765625 25.09023437 -22 26 C-21.27296875 26.74894531 -20.5459375 27.49789062 -19.796875 28.26953125 C-17.35934488 31.97351724 -16.71686112 35.67053613 -16 40 C-15.78907715 39.32533691 -15.5781543 38.65067383 -15.36083984 37.95556641 C-14.37878883 34.84103132 -13.37704381 31.73315771 -12.375 28.625 C-12.04371094 27.56410156 -11.71242188 26.50320312 -11.37109375 25.41015625 C-9.32311009 19.11164045 -6.9042695 13.65850239 -3.29296875 8.09765625 C-1.70469301 5.52090679 -0.7686171 2.92074499 0 0 Z " fill="#95787E" transform="translate(93,120)"/>
<path d="M0 0 C3.14344435 1.74635797 5.46862726 3.46862726 8 6 C8.125 9.125 8.125 9.125 8 12 C9.546875 11.938125 9.546875 11.938125 11.125 11.875 C14.92197972 11.99748322 17.54122905 12.47170586 21 14 C21.99 15.485 21.99 15.485 23 17 C21.02 16.34 19.04 15.68 17 15 C18.32 16.65 19.64 18.3 21 20 C19.02 20 17.04 20 15 20 C14.8509288 22.0745356 14.8509288 22.0745356 16 24 C15.01 24.33 14.02 24.66 13 25 C13 25.66 13 26.32 13 27 C13.66 27 14.32 27 15 27 C18.50080032 31.31333176 18.53170927 35.50226185 18.6875 40.8125 C18.72166016 41.60076172 18.75582031 42.38902344 18.79101562 43.20117188 C18.87299875 45.13363119 18.93818845 47.06679035 19 49 C17.65035156 48.76990234 17.65035156 48.76990234 16.2734375 48.53515625 C12.52230105 47.92190363 8.77316449 47.45538192 5 47 C5 46.67 5 46.34 5 46 C7.64 45.67 10.28 45.34 13 45 C12.67 44.01 12.34 43.02 12 42 C12.66 41.67 13.32 41.34 14 41 C14.061875 39.783125 14.12375 38.56625 14.1875 37.3125 C14.22230469 36.62800781 14.25710937 35.94351563 14.29296875 35.23828125 C13.85896385 31.92248381 13.29303086 30.50604466 11 28 C7.55791803 26.90703157 4.08246633 26.5594889 0.5 26.1875 C-0.44359375 26.06697266 -1.3871875 25.94644531 -2.359375 25.82226562 C-8.92393 25.03756814 -15.3938071 24.86223671 -22 25 C-22.98822603 26.96725212 -23.96858378 28.93222877 -24.89453125 30.9296875 C-27.08461336 35.57079768 -29.56653608 39.18504009 -33 43 C-33.66 42.01 -34.32 41.02 -35 40 C-35.99 40 -36.98 40 -38 40 C-41.14751965 34.52605278 -42.77848239 29.50317075 -41.375 23.1875 C-39.63963805 20.4266969 -37.79991876 19.67995126 -35 18 C-33.86522415 16.73514009 -32.76395615 15.43984941 -31.6875 14.125 C-24.44827478 5.62745452 -11.37079283 -1.76443337 0 0 Z " fill="#5F4E45" transform="translate(83,7)"/>
<path d="M0 0 C2 2 2 2 2.125 5.125 C2.08375 6.07375 2.0425 7.0225 2 8 C1.34 8 0.68 8 0 8 C-0.66 9.98 -1.32 11.96 -2 14 C-1.34 14 -0.68 14 0 14 C2.14732856 20.0515623 -0.9487996 25.63843898 -3.41015625 31.16796875 C-5.34565865 35.64751579 -6.75259384 40.27848371 -8.1875 44.9375 C-8.46013672 45.81212891 -8.73277344 46.68675781 -9.01367188 47.58789062 C-9.67909689 49.72425516 -10.34112354 51.86160862 -11 54 C-11.66 53.67 -12.32 53.34 -13 53 C-13.12375 51.7625 -13.2475 50.525 -13.375 49.25 C-14.38919422 43.92977779 -17.40565051 40.77469674 -21 36.9375 C-21.5470459 36.35323242 -22.0940918 35.76896484 -22.65771484 35.16699219 C-24.05529055 33.72784493 -25.52295179 32.35745766 -27 31 C-27.66 31 -28.32 31 -29 31 C-27.35 32.65 -25.7 34.3 -24 36 C-25.98 36 -27.96 36 -30 36 C-30 36.66 -30 37.32 -30 38 C-30.66 38 -31.32 38 -32 38 C-32 39.65 -32 41.3 -32 43 C-32.33 43 -32.66 43 -33 43 C-35.28092027 34.20063307 -35.43259542 25.39997754 -35.625 16.375 C-35.66327043 14.87888578 -35.70232708 13.38279145 -35.7421875 11.88671875 C-35.83718183 8.25799678 -35.92156352 4.6291221 -36 1 C-34.12900113 3.47809535 -32.34699099 5.97951352 -30.625 8.5625 C-28.43652121 11.63554357 -26.41390064 13.29304968 -23 15 C-20.5 16.5 -20.5 16.5 -18 18 C-17.34 14.37 -16.68 10.74 -16 7 C-15.67 7 -15.34 7 -15 7 C-14.67 8.65 -14.34 10.3 -14 12 C-13.22076172 11.36771484 -13.22076172 11.36771484 -12.42578125 10.72265625 C-5.49912127 5.28119508 -5.49912127 5.28119508 -1 5 C-1.66 4.34 -2.32 3.68 -3 3 C-2.01 2.01 -1.02 1.02 0 0 Z " fill="#8A584A" transform="translate(89,107)"/>
<path d="M0 0 C0.97517578 0.0928125 1.95035156 0.185625 2.95507812 0.28125 C10.01444597 1.15337506 10.01444597 1.15337506 13.33984375 4.71875 C15.13581856 8.92497506 14.99816728 11.37032445 14.6875 15.875 C13.6975 16.205 12.7075 16.535 11.6875 16.875 C12.3475 18.195 13.0075 19.515 13.6875 20.875 C12.77226563 20.99617188 11.85703125 21.11734375 10.9140625 21.2421875 C9.72554687 21.40976562 8.53703125 21.57734375 7.3125 21.75 C6.12914062 21.91242187 4.94578125 22.07484375 3.7265625 22.2421875 C0.59183341 22.6052585 0.59183341 22.6052585 -1.3125 24.875 C-3.625 25.140625 -3.625 25.140625 -6.3125 25.125 C-7.6428125 25.13273437 -7.6428125 25.13273437 -9 25.140625 C-11.3125 24.875 -11.3125 24.875 -13.3125 22.875 C-15.54285297 22.59758755 -15.54285297 22.59758755 -18.1015625 22.6796875 C-19.04257813 22.68613281 -19.98359375 22.69257812 -20.953125 22.69921875 C-21.93796875 22.71597656 -22.9228125 22.73273437 -23.9375 22.75 C-24.93007813 22.75902344 -25.92265625 22.76804687 -26.9453125 22.77734375 C-29.40128134 22.80095884 -31.85677168 22.83389201 -34.3125 22.875 C-34.3125 24.195 -34.3125 25.515 -34.3125 26.875 C-33.6525 27.205 -32.9925 27.535 -32.3125 27.875 C-33.3025 28.865 -34.2925 29.855 -35.3125 30.875 C-35.3125 28.565 -35.3125 26.255 -35.3125 23.875 C-35.9725 23.875 -36.6325 23.875 -37.3125 23.875 C-37.6425 20.905 -37.9725 17.935 -38.3125 14.875 C-36.9925 14.545 -35.6725 14.215 -34.3125 13.875 C-33.9825 14.865 -33.6525 15.855 -33.3125 16.875 C-30.39399652 13.63221836 -28.10940542 10.70586652 -26.25 6.75 C-20.83121167 -4.38625002 -10.77889902 -1.30829523 0 0 Z " fill="#94614E" transform="translate(83.3125,32.125)"/>
<path d="M0 0 C0.99 0 1.98 0 3 0 C5.40765079 2.40765079 5.74716196 4.31045622 6.10546875 7.64453125 C5.90452346 12.1323095 3.85694461 15.97771363 2 20 C1.57460937 21.27810547 1.57460937 21.27810547 1.140625 22.58203125 C-0.2528863 25.53608432 -1.77397748 26.64559352 -4.4375 28.5 C-12.08507225 33.84196151 -14.86439835 42.50597192 -16.69921875 51.3828125 C-17.17728308 54.25119849 -17.61766812 57.11741885 -18 60 C-18.66 60 -19.32 60 -20 60 C-20 58.68 -20 57.36 -20 56 C-20.99 56 -21.98 56 -23 56 C-25.52197309 48.33183857 -25.52197309 48.33183857 -24.2421875 45.06640625 C-23.125 43.4375 -23.125 43.4375 -21 41 C-21.99 41 -22.98 41 -24 41 C-24 41.66 -24 42.32 -24 43 C-24.66 43 -25.32 43 -26 43 C-26.350625 41.783125 -26.70125 40.56625 -27.0625 39.3125 C-28.6272841 34.99794966 -30.7424551 33.51385126 -34.546875 31.1640625 C-36 30 -36 30 -36.4375 27.1875 C-36.293125 26.465625 -36.14875 25.74375 -36 25 C-35.34 25 -34.68 25 -34 25 C-34 24.34 -34 23.68 -34 23 C-32.35 22.67 -30.7 22.34 -29 22 C-29.639375 21.71125 -30.27875 21.4225 -30.9375 21.125 C-33 20 -33 20 -34 18 C-33.34 17.34 -32.68 16.68 -32 16 C-30.41348318 17.55926748 -28.83092685 19.12256518 -27.25 20.6875 C-26.36828125 21.55761719 -25.4865625 22.42773438 -24.578125 23.32421875 C-23.72734375 24.20722656 -22.8765625 25.09023437 -22 26 C-21.27296875 26.74894531 -20.5459375 27.49789062 -19.796875 28.26953125 C-17.35934488 31.97351724 -16.71686112 35.67053613 -16 40 C-15.78907715 39.32533691 -15.5781543 38.65067383 -15.36083984 37.95556641 C-14.37878883 34.84103132 -13.37704381 31.73315771 -12.375 28.625 C-12.04371094 27.56410156 -11.71242188 26.50320312 -11.37109375 25.41015625 C-9.32311009 19.11164045 -6.9042695 13.65850239 -3.29296875 8.09765625 C-1.70469301 5.52090679 -0.7686171 2.92074499 0 0 Z " fill="#C6A4AD" transform="translate(93,120)"/>
<path d="M0 0 C0.66 0.66 1.32 1.32 2 2 C1.01 2.495 1.01 2.495 0 3 C-0.37224452 5.34277702 -0.64702347 7.70131453 -0.875 10.0625 C-1.46287768 15.30898444 -2.30718729 19.65814771 -4.99609375 24.2421875 C-6.07841361 26.13730009 -6.78352375 28.00312018 -7.5 30.0625 C-8.45856081 32.81037431 -9.5929687 34.92909882 -11.25 37.3125 C-14.05527 42.05576187 -12.85224795 46.7858531 -12 52 C-11.64554613 54.22912102 -11.2913841 56.45828846 -10.9375 58.6875 C-10.76347656 59.76773438 -10.58945313 60.84796875 -10.41015625 61.9609375 C-9.90516686 65.70266843 -9.85225354 69.23246527 -10 73 C-13 69.375 -13 69.375 -13 66 C-13.99 66 -14.98 66 -16 66 C-16.495 66.99 -16.495 66.99 -17 68 C-16.9278125 67.45214844 -16.855625 66.90429688 -16.78125 66.33984375 C-15.9936965 59.61282425 -15.95245852 52.98332947 -16.0625 46.22265625 C-16 43 -16 43 -15 40 C-15.66 40 -16.32 40 -17 40 C-17 40.66 -17 41.32 -17 42 C-17.66 42 -18.32 42 -19 42 C-18.0718232 35.23756906 -18.0718232 35.23756906 -17.1875 32.3125 C-17.125625 31.549375 -17.06375 30.78625 -17 30 C-18.89586384 27.85410577 -18.89586384 27.85410577 -21 26 C-21 25.01 -21 24.02 -21 23 C-21.66 23 -22.32 23 -23 23 C-23.33 21.68 -23.66 20.36 -24 19 C-20.37 19 -16.74 19 -13 19 C-15.27864583 18.77213542 -17.55729167 18.54427083 -19.8359375 18.31640625 C-22 18 -22 18 -24 17 C-24 16.34 -24 15.68 -24 15 C-23.01 14.67 -22.02 14.34 -21 14 C-20.6278958 12.67696283 -20.29369827 11.34262065 -20 10 C-19.34 9.67 -18.68 9.34 -18 9 C-18 7.68 -18 6.36 -18 5 C-19.32 5.33 -20.64 5.66 -22 6 C-21.67 5.01 -21.34 4.02 -21 3 C-19.04196493 2.94610913 -17.08351091 2.90725783 -15.125 2.875 C-13.48917969 2.84019531 -13.48917969 2.84019531 -11.8203125 2.8046875 C-9 3 -9 3 -7 5 C-6.8046875 7.1640625 -6.8046875 7.1640625 -6.875 9.625 C-6.89304687 10.44226563 -6.91109375 11.25953125 -6.9296875 12.1015625 C-6.95289062 12.72804688 -6.97609375 13.35453125 -7 14 C-6.01 11.69 -5.02 9.38 -4 7 C-3.34 7 -2.68 7 -2 7 C-2.04125 6.21625 -2.0825 5.4325 -2.125 4.625 C-2 2 -2 2 0 0 Z " fill="#785B4C" transform="translate(109,54)"/>
<path d="M0 0 C1.875 0.1875 1.875 0.1875 4 1 C6.19136708 4.6907235 6.33028674 8.59225402 6.71484375 12.7734375 C7.08593372 15.67098931 7.95409953 18.28065877 9 21 C8.38125 21.4125 7.7625 21.825 7.125 22.25 C4.93231719 24.05573879 4.07211583 25.4090534 3 28 C3.969375 28.309375 4.93875 28.61875 5.9375 28.9375 C9 30 9 30 10 31 C10.99 30.67 11.98 30.34 13 30 C13.33266291 36.20970773 12.45029331 40.28264895 10 46 C9.34 46 8.68 46 8 46 C8 46.66 8 47.32 8 48 C4.91111478 50.05925681 4.29064073 50.2390374 0.8125 50.125 C-0.445625 50.08375 -1.70375 50.0425 -3 50 C-3.33 51.32 -3.66 52.64 -4 54 C-8.48837049 52.74743149 -11.63836665 51.26558668 -15 48 C-15.8125 45.75 -15.8125 45.75 -16 44 C-15.01 44 -14.02 44 -13 44 C-12.67 44.99 -12.34 45.98 -12 47 C-11.01 46.505 -11.01 46.505 -10 46 C-8.00039988 45.960008 -5.99952758 45.95653201 -4 46 C-4 45.01 -4 44.02 -4 43 C-4.66 42.67 -5.32 42.34 -6 42 C-6 41.01 -6 40.02 -6 39 C-4.865625 38.855625 -3.73125 38.71125 -2.5625 38.5625 C0.80777201 38.38828522 0.80777201 38.38828522 2 37 C1.01 36.34 0.02 35.68 -1 35 C-0.01 34.34 0.98 33.68 2 33 C-1.44069624 30.70620251 -2.72290301 30 -7 30 C-7.33 30.66 -7.66 31.32 -8 32 C-10.5 30.6875 -10.5 30.6875 -13 29 C-13 28.01 -13 27.02 -13 26 C-11.34385343 25.61781233 -9.67542976 25.28604898 -8 25 C-7.67 25.33 -7.34 25.66 -7 26 C-6.67 25.34 -6.34 24.68 -6 24 C-3.69 24 -1.38 24 1 24 C2.97742952 16.0902819 2.18246547 7.79451954 0 0 Z " fill="#6E4A3D" transform="translate(75,59)"/>
<path d="M0 0 C3.71394431 0.95229341 6.278452 0.95696948 10 0 C10.86441596 3.45766384 10.95627195 5.59992197 10 9 C9.80427142 12.64017553 9.80427142 12.64017553 11 16 C9.37988281 18.46948242 9.37988281 18.46948242 7 21 C4.15917969 21.56762695 4.15917969 21.56762695 0.921875 21.48828125 C-0.81835938 21.46411133 -0.81835938 21.46411133 -2.59375 21.43945312 C-3.8003125 21.39755859 -5.006875 21.35566406 -6.25 21.3125 C-7.47203125 21.28994141 -8.6940625 21.26738281 -9.953125 21.24414062 C-12.96998502 21.18521758 -15.98437515 21.10299265 -19 21 C-18.35252393 17.20841096 -17.83505773 15.59407782 -15 13 C-13.9063313 11.13625584 -13.9063313 11.13625584 -13 9.125 C-12.6596875 8.42503906 -12.319375 7.72507812 -11.96875 7.00390625 C-11.6490625 6.34261719 -11.329375 5.68132813 -11 5 C-8.58073149 0.26226583 -8.58073149 0.26226583 -6.0625 -0.875 C-3.77142823 -1.01385283 -2.19224196 -0.66431575 0 0 Z " fill="#BB7D64" transform="translate(70,34)"/>
<path d="M0 0 C0.66 0.33 1.32 0.66 2 1 C2 1.66 2 2.32 2 3 C2.59167969 3.06574219 3.18335938 3.13148438 3.79296875 3.19921875 C6.62745699 3.77721391 8.5553761 4.4249403 11 6 C13.40268948 10.11889626 14.71169248 14.42596699 16 19 C16.36738281 20.21623047 16.36738281 20.21623047 16.7421875 21.45703125 C17.77517674 25.15739681 18 28.10108989 18 32 C11.73 32 5.46 32 -1 32 C-1 25.4 -1 18.8 -1 12 C3 14 3 14 3.75 16.125 C3.87375 17.053125 3.87375 17.053125 4 18 C5.32 18 6.64 18 8 18 C7.236875 17.175 6.47375 16.35 5.6875 15.5 C1.79423638 10.83250782 0 6.05903721 0 0 Z " fill="#141624" transform="translate(1,160)"/>
<path d="M0 0 C2.0625 2 2.0625 2 4 5 C4.45890625 5.61875 4.9178125 6.2375 5.390625 6.875 C9.28987413 12.70244926 9.35666547 17.3950848 8.78515625 24.27734375 C8 27 8 27 5.96875 28.2265625 C5.3190625 28.48179688 4.669375 28.73703125 4 29 C3.61781233 30.65614657 3.28604898 32.32457024 3 34 C2.02149805 35.02104551 1.02019573 36.0206121 0 37 C-1.19027984 39.59915538 -1.19027984 39.59915538 -2 42 C-3.14519012 39.70961976 -3.07351912 38.46931463 -3 35.9375 C-3 34.638125 -3 33.33875 -3 32 C-4.87824891 30.12175109 -8.03935276 30.60897603 -10.5625 30.4375 C-11.76003906 30.35371094 -12.95757812 30.26992188 -14.19140625 30.18359375 C-15.58166016 30.09271484 -15.58166016 30.09271484 -17 30 C-16.34 29.34 -15.68 28.68 -15 28 C-11.9609375 28.0234375 -11.9609375 28.0234375 -8.375 28.375 C-7.18648437 28.48585938 -5.99796875 28.59671875 -4.7734375 28.7109375 C-3.85820313 28.80632813 -2.94296875 28.90171875 -2 29 C-2.23396484 28.21496094 -2.23396484 28.21496094 -2.47265625 27.4140625 C-3.37161549 23.29882689 -3.39940123 19.09644478 -3.62109375 14.8984375 C-3.71661517 11.87706323 -3.71661517 11.87706323 -6 10 C-6 9.01 -6 8.02 -6 7 C-6.66 7 -7.32 7 -8 7 C-8.33 6.01 -8.66 5.02 -9 4 C-8.01 3.67 -7.02 3.34 -6 3 C-6.66 2.01 -7.32 1.02 -8 0 C-4.99733781 -1.5013311 -3.18669322 -0.8922741 0 0 Z " fill="#49433F" transform="translate(104,27)"/>
<path d="M0 0 C0.33 1.65 0.66 3.3 1 5 C1.66 5 2.32 5 3 5 C3.33 4.01 3.66 3.02 4 2 C5.98 3.65 7.96 5.3 10 7 C9.34 9.31 8.68 11.62 8 14 C7.30132812 13.84402344 6.60265625 13.68804687 5.8828125 13.52734375 C4.97273438 13.33269531 4.06265625 13.13804688 3.125 12.9375 C2.22007813 12.74027344 1.31515625 12.54304688 0.3828125 12.33984375 C-2.01014125 11.76797843 -2.01014125 11.76797843 -4 13 C-6.81594854 13.20794697 -9.61785111 13.37426834 -12.4375 13.5 C-18.30264963 13.70132605 -18.30264963 13.70132605 -24 15 C-24.6837045 16.32467746 -25.34964186 17.65863633 -26 19 C-26.99 19.66 -27.98 20.32 -29 21 C-28.125 13.25 -28.125 13.25 -27 11 C-24.71484375 10.5859375 -24.71484375 10.5859375 -21.9375 10.375 C-20.55884766 10.26285156 -20.55884766 10.26285156 -19.15234375 10.1484375 C-18.08693359 10.07496094 -18.08693359 10.07496094 -17 10 C-17.185625 9.38125 -17.37125 8.7625 -17.5625 8.125 C-18 6 -18 6 -17 4 C-14.93359375 3.3671875 -14.93359375 3.3671875 -12.4375 2.875 C-11.61121094 2.70742188 -10.78492187 2.53984375 -9.93359375 2.3671875 C-9.29550781 2.24601562 -8.65742187 2.12484375 -8 2 C-8 1.67 -8 1.34 -8 1 C-2.25 0 -2.25 0 0 0 Z " fill="#3A3635" transform="translate(84,16)"/>
<path d="M0 0 C5.828125 3.609375 5.828125 3.609375 7.375 7.125 C8 10 8 10 8 12 C8.66 12 9.32 12 10 12 C10 11.34 10 10.68 10 10 C11.32 9.67 12.64 9.34 14 9 C13.69964844 9.4846875 13.39929688 9.969375 13.08984375 10.46875 C10.03536192 15.85292136 9.70512393 18.95724503 11 25 C11.99 25 12.98 25 14 25 C14 26.32 14 27.64 14 29 C14.66 29 15.32 29 16 29 C16 29.99 16 30.98 16 32 C15.34 32 14.68 32 14 32 C14 31.34 14 30.68 14 30 C13.34 30 12.68 30 12 30 C11.8453125 31.670625 11.8453125 31.670625 11.6875 33.375 C11.460625 34.57125 11.23375 35.7675 11 37 C10.01 37.66 9.02 38.32 8 39 C5.41616713 35.9796613 4.51922863 33.72646062 3.9375 29.8125 C3.39859807 26.40394531 2.79955843 23.09047642 1.9375 19.75 C0.43875372 13.29476996 0.33028629 6.597034 0 0 Z " fill="#97807F" transform="translate(59,151)"/>
<path d="M0 0 C1.231394 3.69418201 0.64432764 6.2056261 0 10 C0.8971875 8.824375 0.8971875 8.824375 1.8125 7.625 C4.78983378 4.05219946 6.22811614 3.07487273 10.90625 2.62109375 C12.43710875 2.55078568 13.96842425 2.4899162 15.5 2.4375 C21.33330462 2.27631341 21.33330462 2.27631341 27 1 C30.1875 1.9375 30.1875 1.9375 33 3 C33 3.66 33 4.32 33 5 C33.66 5.33 34.32 5.66 35 6 C33.741875 6.020625 32.48375 6.04125 31.1875 6.0625 C30.47980469 6.07410156 29.77210937 6.08570313 29.04296875 6.09765625 C27 6 27 6 24 5 C21.70995138 4.90434686 19.4170403 4.87015425 17.125 4.875 C15.30355469 4.87113281 15.30355469 4.87113281 13.4453125 4.8671875 C9.14196051 5.00549576 9.14196051 5.00549576 5 6 C3.71314894 7.80248334 3.71314894 7.80248334 3 10 C0.53057538 15.32705573 -2.05896411 19.62107123 -6 24 C-6.66 23.01 -7.32 22.02 -8 21 C-8.99 21 -9.98 21 -11 21 C-13.4294516 17.3558226 -13.16179575 15.28758728 -13 11 C-12.01 11.33 -11.02 11.66 -10 12 C-9.95875 10.9275 -9.9175 9.855 -9.875 8.75 C-9 5 -9 5 -6.125 2.625 C-3 1 -3 1 0 0 Z " fill="#5E534D" transform="translate(56,26)"/>
<path d="M0 0 C4.29 0.33 8.58 0.66 13 1 C13.84915953 7.02903265 14.19192513 11.81801802 12.5703125 17.69921875 C10.90650193 24.41144083 11.18852459 29.74618067 12.4375 36.4375 C13.52613602 42.39409795 14.17404798 47.93616834 14 54 C11 50.375 11 50.375 11 47 C10.01 47 9.02 47 8 47 C7.67 47.66 7.34 48.32 7 49 C7.0721875 48.45214844 7.144375 47.90429688 7.21875 47.33984375 C8.0063035 40.61282425 8.04754148 33.98332947 7.9375 27.22265625 C8 24 8 24 9 21 C8.34 21 7.68 21 7 21 C7 21.66 7 22.32 7 23 C6.34 23 5.68 23 5 23 C5.9281768 16.23756906 5.9281768 16.23756906 6.8125 13.3125 C6.874375 12.549375 6.93625 11.78625 7 11 C5.10413616 8.85410577 5.10413616 8.85410577 3 7 C3 6.01 3 5.02 3 4 C2.34 4 1.68 4 1 4 C0.67 2.68 0.34 1.36 0 0 Z " fill="#805445" transform="translate(85,73)"/>
<path d="M0 0 C0.99 0 1.98 0 3 0 C5.40765079 2.40765079 5.74716196 4.31045622 6.10546875 7.64453125 C5.90452346 12.1323095 3.85694461 15.97771363 2 20 C1.71511719 20.85078125 1.43023437 21.7015625 1.13671875 22.578125 C-0.24381223 25.51946249 -1.74824561 26.68188348 -4.375 28.5625 C-7.52889427 30.84617261 -10.30287945 33.18588107 -13 36 C-12.05880451 25.88214848 -8.8269907 16.68010177 -3.328125 8.16796875 C-1.73184011 5.56226842 -0.77624607 2.94973507 0 0 Z " fill="#F0D5DB" transform="translate(93,120)"/>
<path d="M0 0 C1.32 0 2.64 0 4 0 C4.33 1.65 4.66 3.3 5 5 C5.66 4.67 6.32 4.34 7 4 C7.23074219 4.61488281 7.46148437 5.22976562 7.69921875 5.86328125 C9.74248413 11.03310106 9.74248413 11.03310106 13.5 15 C15.67109253 15.86843701 17.70237925 16.57451468 20 17 C19.46700621 19.66496895 18.68918086 21.60920551 17.4375 24.0625 C15.27965107 28.86004761 15.74845122 33.84790836 16 39 C14.15625 38.87890625 14.15625 38.87890625 12 38 C7.28472265 28.88471094 5.31434055 17.95554315 3 8 C2.01 8 1.02 8 0 8 C0 5.36 0 2.72 0 0 Z " fill="#E2AB90" transform="translate(44,56)"/>
<path d="M0 0 C1.30638791 3.91916373 0.42117696 6.94925263 -0.3984375 10.87890625 C-0.63006088 12.03071632 -0.63006088 12.03071632 -0.86636353 13.20579529 C-1.19408681 14.82795235 -1.52551023 16.44936562 -1.86035156 18.07006836 C-2.37342786 20.55488616 -2.87518475 23.04178132 -3.375 25.52929688 C-3.69465192 27.10430088 -4.01494282 28.67917536 -4.3359375 30.25390625 C-4.48702972 30.99975479 -4.63812195 31.74560333 -4.79379272 32.51405334 C-5.88316235 37.7663247 -5.88316235 37.7663247 -7 40 C-7.66 40 -8.32 40 -9 40 C-9.33 37.36 -9.66 34.72 -10 32 C-10.99 32.495 -10.99 32.495 -12 33 C-11.67 32.01 -11.34 31.02 -11 30 C-10.8716941 26.08667005 -10.78209439 22.85346362 -11.75 19.0625 C-12.13471405 14.34975294 -10.53625108 10.93016923 -8 7 C-5.51146242 4.41192092 -2.86354906 2.16156252 0 0 Z " fill="#937271" transform="translate(90,146)"/>
<path d="M0 0 C1.875 0.1875 1.875 0.1875 4 1 C6.19136708 4.6907235 6.33028674 8.59225402 6.71484375 12.7734375 C7.08593372 15.67098931 7.95409953 18.28065877 9 21 C8.38125 21.4125 7.7625 21.825 7.125 22.25 C4.93231719 24.05573879 4.07211583 25.4090534 3 28 C4.98 28.66 6.96 29.32 9 30 C8.01 31.11375 8.01 31.11375 7 32.25 C4.60788553 34.97242945 4.60788553 34.97242945 5 39 C2.04335481 40.4783226 -0.74229737 40.06032783 -4 40 C-4 40.66 -4 41.32 -4 42 C-4.66 42 -5.32 42 -6 42 C-6 41.01 -6 40.02 -6 39 C-4.865625 38.855625 -3.73125 38.71125 -2.5625 38.5625 C0.80777201 38.38828522 0.80777201 38.38828522 2 37 C1.01 36.34 0.02 35.68 -1 35 C-0.01 34.34 0.98 33.68 2 33 C-1.44069624 30.70620251 -2.72290301 30 -7 30 C-7.33 30.66 -7.66 31.32 -8 32 C-10.5 30.6875 -10.5 30.6875 -13 29 C-13 28.01 -13 27.02 -13 26 C-11.34385343 25.61781233 -9.67542976 25.28604898 -8 25 C-7.67 25.33 -7.34 25.66 -7 26 C-6.67 25.34 -6.34 24.68 -6 24 C-3.69 24 -1.38 24 1 24 C2.97742952 16.0902819 2.18246547 7.79451954 0 0 Z " fill="#6A4A3E" transform="translate(75,59)"/>
<path d="M0 0 C0.14695312 1.26457031 0.14695312 1.26457031 0.296875 2.5546875 C0.44640625 3.65039062 0.5959375 4.74609375 0.75 5.875 C0.88921875 6.96554688 1.0284375 8.05609375 1.171875 9.1796875 C1.70935435 12.12778129 1.70935435 12.12778129 4.078125 13.3828125 C4.71234375 13.58648437 5.3465625 13.79015625 6 14 C6 15.32 6 16.64 6 18 C4.99839844 18.06058594 3.99679688 18.12117188 2.96484375 18.18359375 C1.62238669 18.26808405 0.27993928 18.35272768 -1.0625 18.4375 C-3.02896484 18.55931641 -3.02896484 18.55931641 -5.03515625 18.68359375 C-8.73663238 18.97898249 -12.33370448 19.43265388 -16 20 C-15.47653297 16.12634401 -14.69742764 14.69742764 -12 12 C-10.94320397 10.0996587 -10.94320397 10.0996587 -10.0625 8.0625 C-7.58939829 2.95643829 -6.0421449 0 0 0 Z " fill="#E8AF91" transform="translate(67,35)"/>
<path d="M0 0 C0 0.66 0 1.32 0 2 C-2.90548882 4.04169485 -4.40142046 5 -8 5 C-8 5.99 -8 6.98 -8 8 C-7.34 8.33 -6.68 8.66 -6 9 C-6.99 10.32 -7.98 11.64 -9 13 C-9.33 12.34 -9.66 11.68 -10 11 C-9.55296014 15.47883696 -9.55296014 15.47883696 -7 19 C-7.27683361 20.76481425 -7.55518602 22.52939959 -7.83984375 24.29296875 C-8.18882757 30.19164646 -6.9170202 36.17957425 -6 42 C-8.475 42.495 -8.475 42.495 -11 43 C-13.6972162 39.13541863 -14.38355847 36.50719746 -14.3984375 31.81640625 C-14.40230469 30.64142578 -14.40617188 29.46644531 -14.41015625 28.25585938 C-14.39855469 27.03705078 -14.38695312 25.81824219 -14.375 24.5625 C-14.38660156 23.34755859 -14.39820313 22.13261719 -14.41015625 20.88085938 C-14.40628906 19.70458984 -14.40242187 18.52832031 -14.3984375 17.31640625 C-14.39505371 16.24849854 -14.39166992 15.18059082 -14.38818359 14.08032227 C-13.83721177 9.70823959 -12.36605995 6.27498929 -9.125 3.25 C-6.20633188 1.5331364 -3.43648912 0 0 0 Z " fill="#36394C" transform="translate(14,117)"/>
<path d="M0 0 C2.01822917 0.06510417 4.03645833 0.13020833 6.0546875 0.1953125 C6.3846875 3.4953125 6.7146875 6.7953125 7.0546875 10.1953125 C9.0346875 10.1953125 11.0146875 10.1953125 13.0546875 10.1953125 C13.73962123 7.33753217 13.73962123 7.33753217 14.0546875 4.1953125 C13.3946875 3.2053125 12.7346875 2.2153125 12.0546875 1.1953125 C13.3746875 1.8553125 14.6946875 2.5153125 16.0546875 3.1953125 C16.46346441 7.36483699 16.46402267 9.55402073 14.1796875 13.1328125 C9.83343032 16.00134224 6.12951708 16.14684305 1.0546875 15.1953125 C-1.52168721 13.31016027 -2.54198678 12.00196393 -3.9453125 9.1953125 C-4.1328125 5.6953125 -4.1328125 5.6953125 -3.9453125 2.1953125 C-1.9453125 0.1953125 -1.9453125 0.1953125 0 0 Z " fill="#B78775" transform="translate(56.9453125,55.8046875)"/>
<path d="M0 0 C0.33 0.99 0.66 1.98 1 3 C-0.32 3.99 -1.64 4.98 -3 6 C-2.67 6.99 -2.34 7.98 -2 9 C-4.64 9.66 -7.28 10.32 -10 11 C-10 11.66 -10 12.32 -10 13 C-8.02 12.67 -6.04 12.34 -4 12 C-5.125 13.9375 -5.125 13.9375 -7 16 C-8.98985949 16.38932033 -10.99199544 16.71887936 -13 17 C-15.82137181 17.99280504 -15.82137181 17.99280504 -18 20 C-19.36900354 23.57996259 -19.36900354 23.57996259 -20 27 C-20.66 27 -21.32 27 -22 27 C-22.66 27.99 -23.32 28.98 -24 30 C-25.52305825 21.01395631 -25.52305825 21.01395631 -23 17 C-21.33333333 16 -19.66666667 15 -18 14 C-16.86522415 12.73514009 -15.76395615 11.43984941 -14.6875 10.125 C-10.6026041 5.27139283 -6.02748914 2.00916305 0 0 Z " fill="#6F645D" transform="translate(66,11)"/>
<path d="M0 0 C2.36065578 3.54098367 2.9048385 6.83331431 3.625 10.9375 C3.7590625 11.65357422 3.893125 12.36964844 4.03125 13.10742188 C4.64416965 16.4816071 5 19.55839631 5 23 C4.01 22.67 3.02 22.34 2 22 C1.67 22 1.34 22 1 22 C1.33 31.24 1.66 40.48 2 50 C0 48 0 48 -1 45 C-1.66 44.67 -2.32 44.34 -3 44 C-3.36877593 13.92427386 -3.36877593 13.92427386 0 0 Z " fill="#D7BFBB" transform="translate(53,90)"/>
<path d="M0 0 C0.99 0.33 1.98 0.66 3 1 C4.1875 3.5625 4.1875 3.5625 5 6 C5.66 6 6.32 6 7 6 C7 6.66 7 7.32 7 8 C7.99 8.66 8.98 9.32 10 10 C9.45276317 13.37462715 8.9451 15.08235 7 18 C6.7834375 19.2375 6.7834375 19.2375 6.5625 20.5 C5.91460579 23.37952983 5.07467215 24.00831474 3 26 C1.80972016 28.59915538 1.80972016 28.59915538 1 31 C-0.14519012 28.70961976 -0.07351912 27.46931463 0 24.9375 C0 23.638125 0 22.33875 0 21 C-1.87824891 19.12175109 -5.03935276 19.60897603 -7.5625 19.4375 C-8.76003906 19.35371094 -9.95757812 19.26992188 -11.19140625 19.18359375 C-12.58166016 19.09271484 -12.58166016 19.09271484 -14 19 C-13.34 18.34 -12.68 17.68 -12 17 C-8.9609375 17.0234375 -8.9609375 17.0234375 -5.375 17.375 C-4.18648437 17.48585938 -2.99796875 17.59671875 -1.7734375 17.7109375 C-0.85820313 17.80632813 0.05703125 17.90171875 1 18 C0.83628906 17.48953125 0.67257813 16.9790625 0.50390625 16.453125 C-0.16698481 13.18708172 -0.0933456 10.0813253 -0.0625 6.75 C-0.05347656 5.48671875 -0.04445313 4.2234375 -0.03515625 2.921875 C-0.02355469 1.95765625 -0.01195313 0.9934375 0 0 Z " fill="#3B3432" transform="translate(101,38)"/>
<path d="M0 0 C0.495 0.99 0.495 0.99 1 2 C0.67 2.66 0.34 3.32 0 4 C-0.15004973 5.3734635 -0.24838006 6.7528526 -0.31640625 8.1328125 C-0.37924805 9.34130859 -0.37924805 9.34130859 -0.44335938 10.57421875 C-0.48267578 11.41597656 -0.52199219 12.25773437 -0.5625 13.125 C-0.62727539 14.39923828 -0.62727539 14.39923828 -0.69335938 15.69921875 C-0.79954236 17.79928223 -0.90028497 19.89961948 -1 22 C-1.33 22 -1.66 22 -2 22 C-2.495 18.535 -2.495 18.535 -3 15 C-3.99 15.33 -4.98 15.66 -6 16 C-6.33 15.01 -6.66 14.02 -7 13 C-7.5775 13.144375 -8.155 13.28875 -8.75 13.4375 C-9.86375 13.7159375 -9.86375 13.7159375 -11 14 C-12.0209375 14.2784375 -12.0209375 14.2784375 -13.0625 14.5625 C-15 15 -15 15 -18 15 C-18.6496875 15.7115625 -18.6496875 15.7115625 -19.3125 16.4375 C-21.68077932 18.63035122 -23.84514493 18.55832029 -27 19 C-29.75256244 19.84979475 -29.75256244 19.84979475 -32 21 C-32.33 21.66 -32.66 22.32 -33 23 C-35.475 22.01 -35.475 22.01 -38 21 C-34.67439482 18.78292988 -31.21573127 17.26211723 -27.5625 15.6875 C-26.85037354 15.37554687 -26.13824707 15.06359375 -25.40454102 14.7421875 C-22.13154293 13.31573121 -18.86087719 11.94700828 -15.5234375 10.67578125 C-8.9466231 8.16993171 -4.48657873 5.48184091 0 0 Z " fill="#535362" transform="translate(52,96)"/>
<path d="M0 0 C3.60084929 -0.42362933 5.06003725 0.03285057 8.3125 1.8125 C9.199375 2.534375 10.08625 3.25625 11 4 C11 7 11 7 9 10 C5.375 10.1875 5.375 10.1875 2 10 C2 10.99 2 11.98 2 13 C2.99 13.33 3.98 13.66 5 14 C4.67 14.99 4.34 15.98 4 17 C2.68 17 1.36 17 0 17 C0 16.34 0 15.68 0 15 C-0.99 15 -1.98 15 -3 15 C-4.125 9.25 -4.125 9.25 -3 7 C-3.66 7 -4.32 7 -5 7 C-4.67 5.35 -4.34 3.7 -4 2 C-2.68 1.67 -1.36 1.34 0 1 C0 0.67 0 0.34 0 0 Z " fill="#B9856F" transform="translate(67,88)"/>
<path d="M0 0 C0.99 0.33 1.98 0.66 3 1 C3.74767924 23.6796035 3.74767924 23.6796035 -0.57421875 28.90234375 C-1.04472656 29.26457031 -1.51523438 29.62679687 -2 30 C-1.67 28.35 -1.34 26.7 -1 25 C-1.66 24.67 -2.32 24.34 -3 24 C-2.67 23.34 -2.34 22.68 -2 22 C-2.66 22 -3.32 22 -4 22 C-3.49396008 19.83125748 -3.00016187 18.00032373 -2 16 C-1.34 16 -0.68 16 0 16 C-0.33 13.69 -0.66 11.38 -1 9 C-1.99 9.66 -2.98 10.32 -4 11 C-3.34 11.66 -2.68 12.32 -2 13 C-2.90492187 13.39832031 -2.90492187 13.39832031 -3.828125 13.8046875 C-4.62734375 14.15789062 -5.4265625 14.51109375 -6.25 14.875 C-7.43335937 15.39707031 -7.43335937 15.39707031 -8.640625 15.9296875 C-9.41921875 16.28289062 -10.1978125 16.63609375 -11 17 C-11.73734375 17.33257812 -12.4746875 17.66515625 -13.234375 18.0078125 C-15.17393632 18.88065814 -15.17393632 18.88065814 -16 21 C-16.66 18.69 -17.32 16.38 -18 14 C-15.03 14 -12.06 14 -9 14 C-8.34 12.68 -7.68 11.36 -7 10 C-6.175 9.195625 -5.35 8.39125 -4.5 7.5625 C-2.0481606 5.04936462 -1.03839869 3.30399584 0 0 Z " fill="#62433A" transform="translate(91,99)"/>
<path d="M0 0 C1.03253906 0.00676758 1.03253906 0.00676758 2.0859375 0.01367188 C3.76566335 0.02533664 5.44534375 0.04326729 7.125 0.0625 C7.125 1.0525 7.125 2.0425 7.125 3.0625 C7.681875 3.990625 7.681875 3.990625 8.25 4.9375 C9.125 7.0625 9.125 7.0625 8.5 9.75 C7.125 12.0625 7.125 12.0625 5.125 12.9375 C3.125 13.0625 3.125 13.0625 1.125 12.0625 C-0.11561454 8.89204062 -0.875 6.48011705 -0.875 3.0625 C-3.20794775 3.02008277 -5.54202567 3.02157063 -7.875 3.0625 C-9.25677162 4.2176251 -9.25677162 4.2176251 -9 7.375 C-8.90393262 10.20898763 -8.72749568 12.39845099 -7.875 15.0625 C-10.6722908 12.99493723 -10.90192273 11.91809629 -11.5625 8.375 C-11.665625 7.281875 -11.76875 6.18875 -11.875 5.0625 C-12.535 5.0625 -13.195 5.0625 -13.875 5.0625 C-13.875 3.7425 -13.875 2.4225 -13.875 1.0625 C-9.21962644 0.14157719 -4.72814567 -0.05955997 0 0 Z " fill="#5B453B" transform="translate(62.875,53.9375)"/>
<path d="M0 0 C0.99 0.66 1.98 1.32 3 2 C3.6875 5.625 3.6875 5.625 4 9 C4.66 9 5.32 9 6 9 C6 8.34 6 7.68 6 7 C7.32 6.67 8.64 6.34 10 6 C9.69964844 6.4846875 9.39929688 6.969375 9.08984375 7.46875 C6.03536192 12.85292136 5.70512393 15.95724503 7 22 C7.99 22.33 8.98 22.66 10 23 C7.07888909 22.90422587 4.76819589 22.79872846 2 22 C-2.21224099 17.1083653 -2.17493551 9.2393665 -2 3 C-1.34 2.01 -0.68 1.02 0 0 Z " fill="#B09597" transform="translate(63,154)"/>
<path d="M0 0 C0.42925781 0.57492188 0.85851563 1.14984375 1.30078125 1.7421875 C2.39229145 3.192516 3.4931235 4.63590136 4.60546875 6.0703125 C5.12753906 6.74835938 5.64960937 7.42640625 6.1875 8.125 C6.71730469 8.80820313 7.24710938 9.49140625 7.79296875 10.1953125 C9 12 9 12 9 14 C10.32 14.66 11.64 15.32 13 16 C12.690625 16.721875 12.38125 17.44375 12.0625 18.1875 C11.07439461 20.80307309 10.4712246 23.25118982 10 26 C9.01 26.33 8.02 26.66 7 27 C4.27927233 24.6795847 3.49699259 22.96114573 2.83203125 19.47265625 C2.66123047 18.59802734 2.49042969 17.72339844 2.31445312 16.82226562 C2.14880859 15.91154297 1.98316406 15.00082031 1.8125 14.0625 C1.63525391 13.15564453 1.45800781 12.24878906 1.27539062 11.31445312 C0.53485076 7.42876326 0 3.97673407 0 0 Z " fill="#73443B" transform="translate(53,108)"/>
<path d="M0 0 C0 0.66 0 1.32 0 2 C0.66 2.33 1.32 2.66 2 3 C0.741875 3.020625 -0.51625 3.04125 -1.8125 3.0625 C-2.52019531 3.07410156 -3.22789063 3.08570313 -3.95703125 3.09765625 C-6 3 -6 3 -9 2 C-11.29004862 1.90434686 -13.5829597 1.87015425 -15.875 1.875 C-17.69644531 1.87113281 -17.69644531 1.87113281 -19.5546875 1.8671875 C-23.85803949 2.00549576 -23.85803949 2.00549576 -28 3 C-29.2806149 4.79505755 -29.2806149 4.79505755 -30 7 C-30.64270075 8.35565623 -31.2885324 9.70983259 -31.9375 11.0625 C-32.25589844 11.73410156 -32.57429688 12.40570313 -32.90234375 13.09765625 C-34.06399917 15.11091671 -35.22040841 16.50848851 -37 18 C-37.66 18 -38.32 18 -39 18 C-39 17.34 -39 16.68 -39 16 C-39.66 16 -40.32 16 -41 16 C-36.98181818 5.49090909 -36.98181818 5.49090909 -34 4 C-33.67 4.99 -33.34 5.98 -33 7 C-32.1028125 5.824375 -32.1028125 5.824375 -31.1875 4.625 C-28.19552706 1.03463247 -26.76137672 0.07319479 -22.05859375 -0.37890625 C-20.51861775 -0.44920662 -18.97818822 -0.51007824 -17.4375 -0.5625 C-3.50445405 -1.10325405 -3.50445405 -1.10325405 0 0 Z " fill="#584540" transform="translate(89,29)"/>
<path d="M0 0 C0.66 0 1.32 0 2 0 C2.11069824 0.56396484 2.22139648 1.12792969 2.33544922 1.70898438 C2.84653116 4.30640811 3.36074654 6.9032024 3.875 9.5 C4.04902344 10.386875 4.22304688 11.27375 4.40234375 12.1875 C5.21023619 16.25688413 6.0498673 20.29654362 7.09375 24.3125 C7.85889094 27.42583209 8.35957021 30.31484254 8.625 33.5 C8.69976562 34.3559375 8.77453125 35.211875 8.8515625 36.09375 C8.90054688 36.7228125 8.94953125 37.351875 9 38 C7.02 38 5.04 38 3 38 C3.33 37.01 3.66 36.02 4 35 C3.95826827 29.01149693 2.89520699 23.28937658 1.4375 17.5 C-0.0267645 11.56475313 -0.32938071 6.08744357 0 0 Z " fill="#1D1823" transform="translate(55,154)"/>
<path d="M0 0 C3.5625 1 3.5625 1 6 2 C4.3125 3.625 4.3125 3.625 2 5 C0.32110979 4.36474424 -1.34416775 3.69313908 -3 3 C-6.5325286 2.34846241 -6.5325286 2.34846241 -10 4 C-11.83425577 6.91297285 -13.20338241 9.85007768 -14.54296875 13.01953125 C-16.0182026 16.03723482 -17.57502997 17.72690701 -20 20 C-20.7872678 22.1381966 -20.7872678 22.1381966 -21 24 C-21.66 24 -22.32 24 -23 24 C-23 25.32 -23 26.64 -23 28 C-22.34 28.33 -21.68 28.66 -21 29 C-21.99 29.99 -22.98 30.98 -24 32 C-24 29.69 -24 27.38 -24 25 C-24.66 25 -25.32 25 -26 25 C-26.33 22.03 -26.66 19.06 -27 16 C-25.68 15.67 -24.36 15.34 -23 15 C-22.67 15.99 -22.34 16.98 -22 18 C-19.08149652 14.75721836 -16.79690542 11.83086652 -14.9375 7.875 C-11.34256841 0.48699098 -8.07513931 -0.976269 0 0 Z " fill="#946455" transform="translate(72,31)"/>
<path d="M0 0 C0.66 0 1.32 0 2 0 C3.1936095 7.16165702 3.43791484 13.81042579 2 21 C-1.3 20.01 -4.6 19.02 -8 18 C-6.34716981 7.53207547 -6.34716981 7.53207547 -2 4 C-0.76487921 1.86690808 -0.76487921 1.86690808 0 0 Z " fill="#C88A78" transform="translate(75,63)"/>
<path d="M0 0 C1.65 0 3.3 0 5 0 C5.33 0.99 5.66 1.98 6 3 C9.465 2.505 9.465 2.505 13 2 C13 2.66 13 3.32 13 4 C11.68 4.33 10.36 4.66 9 5 C9 5.66 9 6.32 9 7 C8.21753906 7.19335938 7.43507813 7.38671875 6.62890625 7.5859375 C5.61699219 7.84632813 4.60507813 8.10671875 3.5625 8.375 C2.55316406 8.63023437 1.54382813 8.88546875 0.50390625 9.1484375 C-2.15570324 9.72573954 -2.15570324 9.72573954 -3 12 C-3.99 12 -4.98 12 -6 12 C-6 11.34 -6 10.68 -6 10 C-6.66 9.67 -7.32 9.34 -8 9 C-8.33 9.99 -8.66 10.98 -9 12 C-8.67 9.36 -8.34 6.72 -8 4 C-7.01 4 -6.02 4 -5 4 C-4.67 3.01 -4.34 2.02 -4 1 C-2.68 1.66 -1.36 2.32 0 3 C0 2.01 0 1.02 0 0 Z " fill="#2C2C3A" transform="translate(112,174)"/>
<path d="M0 0 C1.48923364 2.73134721 2.33993746 5.08227651 2.81640625 8.15234375 C2.94080078 8.92900391 3.06519531 9.70566406 3.19335938 10.50585938 C3.31517578 11.30830078 3.43699219 12.11074219 3.5625 12.9375 C3.81314373 14.53005167 4.06442849 16.12250261 4.31640625 17.71484375 C4.43258301 18.45718262 4.54875977 19.19952148 4.66845703 19.96435547 C5.05256562 22.32274828 5.50419083 24.66261391 6 27 C5.34 27.33 4.68 27.66 4 28 C-1.72727273 25.54545455 -1.72727273 25.54545455 -3 23 C-2.61323376 29.18825981 -0.51267749 32.96625655 3 38 C3.66 38.99 4.32 39.98 5 41 C3.515 41.495 3.515 41.495 2 42 C2 41.34 2 40.68 2 40 C1.34 40 0.68 40 0 40 C-3.50607348 36.70944228 -5.30458032 34.57036995 -5.48828125 29.6953125 C-5.4554319 28.17110255 -5.39635309 26.64725612 -5.3125 25.125 C-5.28994141 24.34125 -5.26738281 23.5575 -5.24414062 22.75 C-5.18568018 20.8324974 -5.09601283 18.9159894 -5 17 C-4.5875 17.66 -4.175 18.32 -3.75 19 C-3.1725 19.66 -2.595 20.32 -2 21 C-0.68 21 0.64 21 2 21 C1.855625 19.98679688 1.71125 18.97359375 1.5625 17.9296875 C1.37478709 16.57815455 1.18729904 15.22659036 1 13.875 C0.90460937 13.20984375 0.80921875 12.5446875 0.7109375 11.859375 C0.16388547 7.87371019 -0.10022182 4.02140062 0 0 Z " fill="#202332" transform="translate(5,138)"/>
<path d="M0 0 C1.0725 0.00515625 2.145 0.0103125 3.25 0.015625 C4.85875 0.00789063 4.85875 0.00789063 6.5 0 C9.25 0.265625 9.25 0.265625 11.25 2.265625 C8.28 2.265625 5.31 2.265625 2.25 2.265625 C2.25 2.925625 2.25 3.585625 2.25 4.265625 C3.24 4.595625 4.23 4.925625 5.25 5.265625 C4.92 6.915625 4.59 8.565625 4.25 10.265625 C3.59 10.265625 2.93 10.265625 2.25 10.265625 C1.92 11.915625 1.59 13.565625 1.25 15.265625 C-0.07 15.595625 -1.39 15.925625 -2.75 16.265625 C-4.58807713 12.48134856 -4.9531953 10.31273646 -3.75 6.265625 C-3.42 5.605625 -3.09 4.945625 -2.75 4.265625 C-6.38 4.265625 -10.01 4.265625 -13.75 4.265625 C-13.75 3.935625 -13.75 3.605625 -13.75 3.265625 C-13.12351562 3.21664062 -12.49703125 3.16765625 -11.8515625 3.1171875 C-11.03429687 3.04242188 -10.21703125 2.96765625 -9.375 2.890625 C-8.56289062 2.82101563 -7.75078125 2.75140625 -6.9140625 2.6796875 C-3.81231801 2.08621292 -3.3048563 0.31921907 0 0 Z " fill="#62493F" transform="translate(86.75,53.734375)"/>
<path d="M0 0 C0.66 0.33 1.32 0.66 2 1 C2.20696539 7.62956863 1.52583046 13.48163031 0.0625 19.9375 C-0.11990234 20.78634766 -0.30230469 21.63519531 -0.49023438 22.50976562 C-1.84022498 28.68044996 -1.84022498 28.68044996 -3 31 C-3.66 31 -4.32 31 -5 31 C-5.33 28.36 -5.66 25.72 -6 23 C-6.66 23.33 -7.32 23.66 -8 24 C-7.505 22.515 -7.505 22.515 -7 21 C-6.34 21 -5.68 21 -5 21 C-5.05220703 20.11248047 -5.05220703 20.11248047 -5.10546875 19.20703125 C-5.28017028 14.10741039 -4.98081506 11.29237368 -2 7 C-1.61500109 5.34450469 -1.27206865 3.6777567 -1 2 C-0.67 1.34 -0.34 0.68 0 0 Z " fill="#9F8586" transform="translate(86,155)"/>
<path d="M0 0 C5.59753384 4.54799625 10.3143947 9.52331848 15 15 C14.34 16.98 13.68 18.96 13 21 C12.01 21 11.02 21 10 21 C10 18.69 10 16.38 10 14 C5.545 13.01 5.545 13.01 1 12 C0.67 12.66 0.34 13.32 0 14 C-0.99 14 -1.98 14 -3 14 C-3 12.35 -3 10.7 -3 9 C-2.34 9 -1.68 9 -1 9 C-1 8.34 -1 7.68 -1 7 C0.65 6.67 2.3 6.34 4 6 C3.0409375 5.566875 3.0409375 5.566875 2.0625 5.125 C0 4 0 4 -1 2 C-0.67 1.34 -0.34 0.68 0 0 Z " fill="#C9A3A3" transform="translate(60,136)"/>
<path d="M0 0 C2.62175033 3.9326255 2.74930269 7.46298323 3.33984375 12.08984375 C4.03668495 15.1617177 5.13538096 16.54040281 7 19 C6.67 19.99 6.34 20.98 6 22 C6.639375 22.28875 7.27875 22.5775 7.9375 22.875 C10 24 10 24 11 26 C9.02 26 7.04 26 5 26 C5 26.66 5 27.32 5 28 C4.34 28 3.68 28 3 28 C3 29.65 3 31.3 3 33 C2.67 33 2.34 33 2 33 C0.16656665 25.5443133 -0.25165491 18.53275043 -0.125 10.875 C-0.11597656 9.823125 -0.10695312 8.77125 -0.09765625 7.6875 C-0.07435853 5.12475122 -0.04165112 2.56250488 0 0 Z " fill="#A98489" transform="translate(54,117)"/>
<path d="M0 0 C0.99 0.495 0.99 0.495 2 1 C2 2.98 2 4.96 2 7 C3.546875 6.938125 3.546875 6.938125 5.125 6.875 C8.92197972 6.99748322 11.54122905 7.47170586 15 9 C15.99 10.485 15.99 10.485 17 12 C15.02 11.34 13.04 10.68 11 10 C12.32 11.65 13.64 13.3 15 15 C13.02 15 11.04 15 9 15 C8.8509288 17.0745356 8.8509288 17.0745356 10 19 C6.30458414 19.95024979 3.69541586 19.95024979 0 19 C0.99 18.67 1.98 18.34 3 18 C3 17.236875 3 16.47375 3 15.6875 C3 13.79166667 3 11.89583333 3 10 C2.34 9.34 1.68 8.68 1 8 C0.43479997 5.34462628 0.26211802 2.70855287 0 0 Z " fill="#4C4440" transform="translate(89,12)"/>
<path d="M0 0 C0.33 0.66 0.66 1.32 1 2 C0.34 2 -0.32 2 -1 2 C-1.0825 2.721875 -1.165 3.44375 -1.25 4.1875 C-2.75502955 9.8313608 -7.19189733 13.91555678 -12 17 C-15.11053826 17.11709064 -17.97007239 16.68005042 -21 16 C-20.67 14.35 -20.34 12.7 -20 11 C-17.02148438 11.04882812 -17.02148438 11.04882812 -14.04296875 11.09765625 C-11.79694539 11.08263217 -11.79694539 11.08263217 -9 10 C-9 9.34 -9 8.68 -9 8 C-8.34 8 -7.68 8 -7 8 C-6.34 6.35 -5.68 4.7 -5 3 C-4.34 3 -3.68 3 -3 3 C-3 2.34 -3 1.68 -3 1 C-2.01 0.67 -1.02 0.34 0 0 Z " fill="#48352E" transform="translate(92,97)"/>
<path d="M0 0 C0.14695312 1.26457031 0.14695312 1.26457031 0.296875 2.5546875 C0.44640625 3.65039062 0.5959375 4.74609375 0.75 5.875 C0.88921875 6.96554688 1.0284375 8.05609375 1.171875 9.1796875 C1.70935435 12.12778129 1.70935435 12.12778129 4.078125 13.3828125 C4.71234375 13.58648437 5.3465625 13.79015625 6 14 C6 15.32 6 16.64 6 18 C1.71 18 -2.58 18 -7 18 C-5.68 17.34 -4.36 16.68 -3 16 C-1.92760703 12.78282108 -2.06390515 11.94716388 -2.9375 8.8125 C-3.288125 7.554375 -3.63875 6.29625 -4 5 C-5.65 5.33 -7.3 5.66 -9 6 C-5.61538462 0 -5.61538462 0 0 0 Z " fill="#D99E82" transform="translate(67,35)"/>
<path d="M0 0 C2.03125 0.0859375 2.03125 0.0859375 4.5 0.375 C5.3146875 0.46523437 6.129375 0.55546875 6.96875 0.6484375 C9 1 9 1 10 2 C9.71269945 4.33944736 9.38063221 6.6739143 9 9 C12.27773504 8.24849977 12.27773504 8.24849977 14 5 C14 6.65 14 8.3 14 10 C13.195625 10.268125 12.39125 10.53625 11.5625 10.8125 C10.716875 11.204375 9.87125 11.59625 9 12 C8.67 12.99 8.34 13.98 8 15 C7.34 15 6.68 15 6 15 C5.4121875 13.14375 5.4121875 13.14375 4.8125 11.25 C3.35377695 7.29461634 1.58978096 5.32850657 -2 3 C-1 1 -1 1 0 0 Z " fill="#DEC8CE" transform="translate(61,148)"/>
<path d="M0 0 C2.61551697 2.25029311 3.43703254 3.7710297 3.94921875 7.16796875 C4.13774414 8.38516602 4.13774414 8.38516602 4.33007812 9.62695312 C4.44802734 10.47193359 4.56597656 11.31691406 4.6875 12.1875 C4.81705078 13.01314453 4.94660156 13.83878906 5.08007812 14.68945312 C5.8482804 19.84738271 6.12625824 24.78733821 6 30 C3 26.375 3 26.375 3 23 C2.01 23 1.02 23 0 23 C-0.33 23.66 -0.66 24.32 -1 25 C-0.9278125 24.45214844 -0.855625 23.90429688 -0.78125 23.33984375 C0.13188961 15.54010957 0.09410386 7.84198809 0 0 Z " fill="#8A716B" transform="translate(93,97)"/>
<path d="M0 0 C0.99 0.495 0.99 0.495 2 1 C2.47070312 3.0378418 2.47070312 3.0378418 2.78125 5.69921875 C2.90113281 6.66150391 3.02101562 7.62378906 3.14453125 8.61523438 C3.26183594 9.62908203 3.37914062 10.64292969 3.5 11.6875 C4.53375468 20.4993677 4.53375468 20.4993677 7 29 C7.40098325 30.61878424 7.77894357 32.24359112 8.125 33.875 C8.29257813 34.65617187 8.46015625 35.43734375 8.6328125 36.2421875 C8.75398438 36.82226562 8.87515625 37.40234375 9 38 C9.99 38 10.98 38 12 38 C12.66 36.68 13.32 35.36 14 34 C14.66 34 15.32 34 16 34 C15.34 36.64 14.68 39.28 14 42 C11.69 42 9.38 42 7 42 C6.80664062 40.9378125 6.61328125 39.875625 6.4140625 38.78125 C4.8814331 30.15932328 4.8814331 30.15932328 2.9375 21.625 C1.04737743 14.31652605 -0.28027276 7.56736461 0 0 Z " fill="#6D5A5C" transform="translate(57,150)"/>
<path d="M0 0 C2.39749384 0.08745575 4.79148221 0.19437075 7.1875 0.3125 C7.86103516 0.33505859 8.53457031 0.35761719 9.22851562 0.38085938 C13.59040099 0.61491176 16.52554339 1.31308688 20 4 C20.625 6.0625 20.625 6.0625 21 8 C21.99 8.66 22.98 9.32 24 10 C24.66 9.67 25.32 9.34 26 9 C26.33 9.66 26.66 10.32 27 11 C29.01669827 12.13350534 29.01669827 12.13350534 31 13 C31 13.66 31 14.32 31 15 C27.04 14.67 23.08 14.34 19 14 C18.79375 12.9275 18.5875 11.855 18.375 10.75 C17.27941323 6.90539126 17.27941323 6.90539126 14.4375 4.5625 C10.59889229 2.81767831 8.08726155 2.69689 3.953125 2.95703125 C2 3 2 3 0 2 C0 1.34 0 0.68 0 0 Z " fill="#C4BCAD" transform="translate(72,5)"/>
<path d="M0 0 C0.33 0.66 0.66 1.32 1 2 C0.67 2.66 0.34 3.32 0 4 C-0.66 4 -1.32 4 -2 4 C-2 4.66 -2 5.32 -2 6 C-5.08888522 8.05925681 -5.70935927 8.2390374 -9.1875 8.125 C-11.0746875 8.063125 -11.0746875 8.063125 -13 8 C-13.33 9.32 -13.66 10.64 -14 12 C-18.48837049 10.74743149 -21.63836665 9.26558668 -25 6 C-25.8125 3.75 -25.8125 3.75 -26 2 C-25.01 2 -24.02 2 -23 2 C-22.67 2.99 -22.34 3.98 -22 5 C-20.35 4.67 -18.7 4.34 -17 4 C-16.67 4.99 -16.34 5.98 -16 7 C-15.34 6.67 -14.68 6.34 -14 6 C-12.45976004 5.93049459 -10.91665012 5.91547643 -9.375 5.9375 C-8.14910156 5.95103516 -8.14910156 5.95103516 -6.8984375 5.96484375 C-5.95871094 5.98224609 -5.95871094 5.98224609 -5 6 C-4.67 5.01 -4.34 4.02 -4 3 C-1.9375 1.3125 -1.9375 1.3125 0 0 Z " fill="#5B4338" transform="translate(85,101)"/>
<path d="M0 0 C0.66 0.99 1.32 1.98 2 3 C4.56282742 3.72965366 4.56282742 3.72965366 7 4 C7 3.34 7 2.68 7 2 C10.37097383 0.50178941 12.20442119 0 16 0 C15.979375 0.78375 15.95875 1.5675 15.9375 2.375 C15.81315937 4.98114961 15.81315937 4.98114961 17 7 C10.73 7 4.46 7 -2 7 C-1.34 4.69 -0.68 2.38 0 0 Z " fill="#0E101A" transform="translate(100,185)"/>
<path d="M0 0 C2.31 1.98 4.62 3.96 7 6 C9.74547874 7.37050596 9.74547874 7.37050596 12 8 C12 9.65 12 11.3 12 13 C10.33388095 13.042721 8.66617115 13.04063832 7 13 C6.67 12.67 6.34 12.34 6 12 C5.34 14.97 4.68 17.94 4 21 C3.67 21 3.34 21 3 21 C2.01 14.07 1.02 7.14 0 0 Z " fill="#252226" transform="translate(95,98)"/>
<path d="M0 0 C2.34515209 3.66430014 2.36881381 6.72175983 2 11 C0.5 14.4375 0.5 14.4375 -1 17 C-2.32 17 -3.64 17 -5 17 C-6.77409808 18.92022703 -6.77409808 18.92022703 -8 21 C-8 19.35 -8 17.7 -8 16 C-7.34 15.67 -6.68 15.34 -6 15 C-5.08719862 12.42562419 -5.08719862 12.42562419 -4.375 9.4375 C-4.11460938 8.42558594 -3.85421875 7.41367188 -3.5859375 6.37109375 C-3.39257812 5.58863281 -3.19921875 4.80617187 -3 4 C-2.34 4 -1.68 4 -1 4 C-0.67 2.68 -0.34 1.36 0 0 Z " fill="#F7E5F1" transform="translate(95,124)"/>
<path d="M0 0 C0.99 0.33 1.98 0.66 3 1 C3 1.66 3 2.32 3 3 C3.61875 3.309375 4.2375 3.61875 4.875 3.9375 C6.25 4.625 7.625 5.3125 9 6 C9 6.66 9 7.32 9 8 C7.68 8 6.36 8 5 8 C5 8.66 5 9.32 5 10 C3.02 10.99 3.02 10.99 1 12 C1 11.34 1 10.68 1 10 C-1.31 9.34 -3.62 8.68 -6 8 C-4.02 5.36 -2.04 2.72 0 0 Z " fill="#46302A" transform="translate(82,80)"/>
<path d="M0 0 C1 3 1 3 0.22265625 4.65625 C-0.16019531 5.2646875 -0.54304688 5.873125 -0.9375 6.5 C-3.68747488 11.56524583 -3.37236731 16.37311627 -3 22 C-4.32 21.67 -5.64 21.34 -7 21 C-7.33 19.68 -7.66 18.36 -8 17 C-7.34 16.67 -6.68 16.34 -6 16 C-6.165 14.9275 -6.33 13.855 -6.5 12.75 C-7 9 -7 9 -7 5 C-6.34 5 -5.68 5 -5 5 C-5 4.34 -5 3.68 -5 3 C-2.5 1.375 -2.5 1.375 0 0 Z " fill="#C48A72" transform="translate(63,73)"/>
<path d="M0 0 C0.99 0.33 1.98 0.66 3 1 C5.06145107 1.068991 7.12501401 1.08467727 9.1875 1.0625 C10.27417969 1.05347656 11.36085938 1.04445313 12.48046875 1.03515625 C13.31191406 1.02355469 14.14335938 1.01195313 15 1 C14.80843773 9.15010393 14.80843773 9.15010393 11.5625 12.5625 C9 14 9 14 7 14 C6.82057837 10.05272412 6.90649311 7.4019487 9 4 C7.88625 3.896875 6.7725 3.79375 5.625 3.6875 C3.830625 3.3471875 3.830625 3.3471875 2 3 C1.34 2.01 0.68 1.02 0 0 Z " fill="#945945" transform="translate(55,69)"/>
<path d="M0 0 C2.64 0.66 5.28 1.32 8 2 C7.85904936 3.6254308 7.71207913 5.25034051 7.5625 6.875 C7.48128906 7.77992187 7.40007812 8.68484375 7.31640625 9.6171875 C7 12 7 12 6 14 C2.6496302 13.42235003 1.31766228 12.41423154 -1 10 C-1.70125 9.67 -2.4025 9.34 -3.125 9 C-5 8 -5 8 -6 5 C-4.68 5.33 -3.36 5.66 -2 6 C-2 6.66 -2 7.32 -2 8 C0.31 8.66 2.62 9.32 5 10 C4.67 8.35 4.34 6.7 4 5 C3.01 5 2.02 5 1 5 C0.67 3.35 0.34 1.7 0 0 Z " fill="#9E6E58" transform="translate(65,111)"/>
<path d="M0 0 C3.6875 0.875 3.6875 0.875 7 2 C7.33 4.97 7.66 7.94 8 11 C7.34 10.67 6.68 10.34 6 10 C5.67 10.66 5.34 11.32 5 12 C4.34 12 3.68 12 3 12 C2.67 10.35 2.34 8.7 2 7 C0.68 7.33 -0.64 7.66 -2 8 C-2.33 7.34 -2.66 6.68 -3 6 C-2.01 5.01 -1.02 4.02 0 3 C-0.99 2.67 -1.98 2.34 -3 2 C-2.01 1.34 -1.02 0.68 0 0 Z " fill="#524A42" transform="translate(82,9)"/>
<path d="M0 0 C0.66 0.33 1.32 0.66 2 1 C1.38641858 9.80171974 -0.29549385 18.35954742 -2 27 C-2.99 27 -3.98 27 -5 27 C-4.32969264 20.90373091 -3.23964287 14.99077746 -1.9375 9 C-1.75123047 8.12988281 -1.56496094 7.25976562 -1.37304688 6.36328125 C-0.9183875 4.24153748 -0.45962195 2.12067429 0 0 Z " fill="#474351" transform="translate(87,165)"/>
<path d="M0 0 C0.99 0 1.98 0 3 0 C3 0.66 3 1.32 3 2 C4.65 2.33 6.3 2.66 8 3 C7.67 5.64 7.34 8.28 7 11 C7.66 11.33 8.32 11.66 9 12 C5.31731261 11.50233954 3.34971233 10.93714041 1 8 C-0.35439668 5.29120665 -0.06501451 2.99066732 0 0 Z " fill="#C6937D" transform="translate(53,59)"/>
<path d="M0 0 C0.99 0.33 1.98 0.66 3 1 C4.89212737 1.22179785 6.78884472 1.40614015 8.6875 1.5625 C9.68136719 1.64628906 10.67523438 1.73007812 11.69921875 1.81640625 C12.83810547 1.90728516 12.83810547 1.90728516 14 2 C13.814375 3.051875 13.62875 4.10375 13.4375 5.1875 C13.04920669 8.57119882 13.11752515 10.76425888 14 14 C10.55783328 11.3401439 10.00495326 8.09711714 9 4 C7.68 3.67 6.36 3.34 5 3 C5.2475 3.515625 5.495 4.03125 5.75 4.5625 C6.15027964 8.46522651 4.06779228 10.74166065 2 14 C1.34 13.67 0.68 13.34 0 13 C0.66 12.01 1.32 11.02 2 10 C2.38464895 4.66531571 2.38464895 4.66531571 0 0 Z " fill="#412F27" transform="translate(70,56)"/>
<path d="M0 0 C0 0.66 0 1.32 0 2 C-2.90548882 4.04169485 -4.40142046 5 -8 5 C-8 5.99 -8 6.98 -8 8 C-7.34 8.33 -6.68 8.66 -6 9 C-6.99 10.32 -7.98 11.64 -9 13 C-9.33 12.34 -9.66 11.68 -10 11 C-10.99 12.98 -11.98 14.96 -13 17 C-13.33 17 -13.66 17 -14 17 C-13.8082033 12.5982658 -13.56992191 9.00832338 -11.375 5.125 C-8.16391791 2.25192655 -4.45445296 0 0 0 Z " fill="#444453" transform="translate(14,117)"/>
<path d="M0 0 C2.69082872 0.17635452 5.32851446 0.61835921 8 1 C8 1.99 8 2.98 8 4 C8.66 4 9.32 4 10 4 C10 4.99 10 5.98 10 7 C9.34 7 8.68 7 8 7 C8 6.34 8 5.68 8 5 C7.34 5 6.68 5 6 5 C5.566875 6.2065625 5.566875 6.2065625 5.125 7.4375 C4 10 4 10 2 11 C1.01 7.7 0.02 4.4 -1 1 C-0.67 0.67 -0.34 0.34 0 0 Z " fill="#9E8684" transform="translate(65,176)"/>
<path d="M0 0 C0.33 0 0.66 0 1 0 C1.19504458 2.10348074 1.38078496 4.20782585 1.5625 6.3125 C1.66691406 7.48425781 1.77132812 8.65601562 1.87890625 9.86328125 C2 13 2 13 1 16 C-0.98 16 -2.96 16 -5 16 C-5 15.01 -5 14.02 -5 13 C-4.01 13 -3.02 13 -2 13 C-2.226875 12.154375 -2.45375 11.30875 -2.6875 10.4375 C-3.09143364 5.99422997 -1.97302401 3.94604801 0 0 Z " fill="#ECB09D" transform="translate(75,64)"/>
<path d="M0 0 C0.99 0 1.98 0 3 0 C6.00617269 3.00617269 5.59585316 5.82381598 6 10 C5.01 10.495 5.01 10.495 4 11 C3.34 9.35 2.68 7.7 2 6 C1.67 6.66 1.34 7.32 1 8 C0.34 8 -0.32 8 -1 8 C-1.66 10.97 -2.32 13.94 -3 17 C-3.33 17 -3.66 17 -4 17 C-5.35964259 11.68503351 -5.35964259 11.68503351 -3.6875 8.5 C-3.130625 7.675 -2.57375 6.85 -2 6 C-1.28856912 4.01548229 -0.61008664 2.01797888 0 0 Z " fill="#DABFC5" transform="translate(93,120)"/>
<path d="M0 0 C0.33 0.99 0.66 1.98 1 3 C0.01 4.485 0.01 4.485 -1 6 C-1.99 6 -2.98 6 -4 6 C-5.58501985 7.66408552 -5.58501985 7.66408552 -7 9.8125 C-8.84382365 12.44859162 -10.65698675 14.78947857 -13 17 C-13 15.02 -13 13.04 -13 11 C-12.01 11.33 -11.02 11.66 -10 12 C-9.95875 10.9275 -9.9175 9.855 -9.875 8.75 C-9 5 -9 5 -6.125 2.625 C-3 1 -3 1 0 0 Z " fill="#574D4A" transform="translate(56,26)"/>
<path d="M0 0 C2.93271655 2.93271655 3.09360769 6.49791413 3.875 10.4375 C5.35785391 17.54697643 7.21388041 24.2718176 10 31 C9.34 31.33 8.68 31.66 8 32 C7.01121251 29.1697092 6.03385664 26.33627247 5.0625 23.5 C4.78470703 22.70851563 4.50691406 21.91703125 4.22070312 21.1015625 C2.49717298 16.03479919 1.48310636 11.33251581 1 6 C0.01 5.67 -0.98 5.34 -2 5 C-2 3.68 -2 2.36 -2 1 C-1.34 0.67 -0.68 0.34 0 0 Z " fill="#A87A64" transform="translate(47,64)"/>
<path d="M0 0 C3.60084929 -0.42362933 5.06003725 0.03285057 8.3125 1.8125 C9.199375 2.534375 10.08625 3.25625 11 4 C11 7 11 7 9 10 C7.68 10 6.36 10 5 10 C4.1641146 8.52227402 3.33135744 7.04277811 2.5 5.5625 C2.0359375 4.73878906 1.571875 3.91507812 1.09375 3.06640625 C0 1 0 1 0 0 Z " fill="#9A5D54" transform="translate(67,88)"/>
<path d="M0 0 C2.5 1.5 2.5 1.5 4 3 C2.35 3 0.7 3 -1 3 C0.32 4.32 1.64 5.64 3 7 C2.113125 6.814375 1.22625 6.62875 0.3125 6.4375 C-2.85178811 6.01957516 -4.94839642 6.19222258 -8 7 C-8.185625 6.071875 -8.185625 6.071875 -8.375 5.125 C-8.87197356 2.80879168 -8.87197356 2.80879168 -11 1 C-7.30624122 -0.23125293 -3.84512599 -0.46420032 0 0 Z " fill="#5D534D" transform="translate(83,7)"/>
<path d="M0 0 C0.33 0 0.66 0 1 0 C1.46255483 2.77532898 1.65973051 4.31575297 1 7 C-2.44118082 11.66359541 -6.36168094 15.35131543 -12 17 C-12.99 16.67 -13.98 16.34 -15 16 C-14.360625 15.7525 -13.72125 15.505 -13.0625 15.25 C-10.82123176 14.20265017 -10.82123176 14.20265017 -10.375 12 C-10.189375 11.01 -10.189375 11.01 -10 10 C-8 8 -8 8 -5.375 7.875 C-4.59125 7.91625 -3.8075 7.9575 -3 8 C-2.67 7.34 -2.34 6.68 -2 6 C-1.34 6 -0.68 6 0 6 C0 4.02 0 2.04 0 0 Z " fill="#D8D5CE" transform="translate(52,89)"/>
<path d="M0 0 C1.9375 0.375 1.9375 0.375 4 1 C5.17426264 3.34852528 5.11508173 4.73774065 5.09765625 7.3515625 C5.09443359 8.20234375 5.09121094 9.053125 5.08789062 9.9296875 C5.07951172 10.81914063 5.07113281 11.70859375 5.0625 12.625 C5.05798828 13.5221875 5.05347656 14.419375 5.04882812 15.34375 C5.03702591 17.56256648 5.02056155 19.78125018 5 22 C4.34 22 3.68 22 3 22 C2.67 22.99 2.34 23.98 2 25 C1 22 1 22 2 19 C2.21647902 12.50562929 1.76174555 6.2919484 0 0 Z " fill="#A26C58" transform="translate(75,59)"/>
<path d="M0 0 C2.9468517 0.63146822 5.42548753 1.41607143 8 3 C10.689555 7.2252577 12.65367686 11.93400433 12 17 C9.38327828 15.69163914 9.00331175 14.33876318 7.6875 11.75 C5.5478593 7.74454167 3.27836403 5.09102894 0 2 C0 1.34 0 0.68 0 0 Z " fill="#BEB4A9" transform="translate(100,22)"/>
<path d="M0 0 C2 1 2 1 3.125 4.3125 C4 8 4 8 4 12 C2.7625 11.7834375 2.7625 11.7834375 1.5 11.5625 C-2.32686278 10.94746848 -6.15216707 10.46439363 -10 10 C-10 9.67 -10 9.34 -10 9 C-7.36 8.67 -4.72 8.34 -2 8 C-2.33 7.01 -2.66 6.02 -3 5 C-2.34 4.67 -1.68 4.34 -1 4 C-0.34786708 1.97536745 -0.34786708 1.97536745 0 0 Z " fill="#7A5A4C" transform="translate(98,44)"/>
<path d="M0 0 C1.12894876 0.93274109 2.25300876 1.87140122 3.375 2.8125 C4.00148438 3.33457031 4.62796875 3.85664063 5.2734375 4.39453125 C7 6 7 6 9 9 C5.17010894 10.80230168 2.21878192 11.19622241 -2 11 C-2.33 11.99 -2.66 12.98 -3 14 C-3 12.35 -3 10.7 -3 9 C-2.34 9 -1.68 9 -1 9 C-1 8.34 -1 7.68 -1 7 C0.65 6.67 2.3 6.34 4 6 C3.0409375 5.566875 3.0409375 5.566875 2.0625 5.125 C0 4 0 4 -1 2 C-0.67 1.34 -0.34 0.68 0 0 Z " fill="#C1989B" transform="translate(60,136)"/>
<path d="M0 0 C3.96 0 7.92 0 12 0 C12.33 0.66 12.66 1.32 13 2 C12.67 2.66 12.34 3.32 12 4 C11.34 4 10.68 4 10 4 C9.67 5.65 9.34 7.3 9 9 C7.0625 8.1875 7.0625 8.1875 5 7 C4.67 6.01 4.34 5.02 4 4 C3.67 3.34 3.34 2.68 3 2 C1.68 2.33 0.36 2.66 -1 3 C-0.67 2.01 -0.34 1.02 0 0 Z " fill="#6E5549" transform="translate(88,57)"/>
<path d="M0 0 C1.0725 0.00515625 2.145 0.0103125 3.25 0.015625 C4.85875 0.00789063 4.85875 0.00789063 6.5 0 C9.25 0.265625 9.25 0.265625 11.25 2.265625 C8.28 2.265625 5.31 2.265625 2.25 2.265625 C1.940625 3.19375 1.63125 4.121875 1.3125 5.078125 C0.625 7.140625 -0.0625 9.203125 -0.75 11.265625 C-1.41 10.935625 -2.07 10.605625 -2.75 10.265625 C-2.75 8.615625 -2.75 6.965625 -2.75 5.265625 C-6.38 4.935625 -10.01 4.605625 -13.75 4.265625 C-13.75 3.935625 -13.75 3.605625 -13.75 3.265625 C-13.12351562 3.21664062 -12.49703125 3.16765625 -11.8515625 3.1171875 C-11.03429687 3.04242188 -10.21703125 2.96765625 -9.375 2.890625 C-8.56289062 2.82101563 -7.75078125 2.75140625 -6.9140625 2.6796875 C-3.81231801 2.08621292 -3.3048563 0.31921907 0 0 Z " fill="#533D37" transform="translate(86.75,53.734375)"/>
<path d="M0 0 C-0.99 0.33 -1.98 0.66 -3 1 C-3 2.98 -3 4.96 -3 7 C-5.64 7.33 -8.28 7.66 -11 8 C-10.67 7.01 -10.34 6.02 -10 5 C-11.32 5 -12.64 5 -14 5 C-14 4.34 -14 3.68 -14 3 C-9.07015675 0.96006486 -5.42039575 -0.40652968 0 0 Z " fill="#564A45" transform="translate(70,19)"/>
<path d="M0 0 C0.66 0.33 1.32 0.66 2 1 C2.33 1.99 2.66 2.98 3 4 C3.66 4 4.32 4 5 4 C4.25 11.625 4.25 11.625 2 15 C0.47406951 12.16797647 -0.51690246 9.5063738 -1.25 6.375 C-1.44078125 5.59898437 -1.6315625 4.82296875 -1.828125 4.0234375 C-1.88484375 3.35570312 -1.9415625 2.68796875 -2 2 C-1.34 1.34 -0.68 0.68 0 0 Z " fill="#70423C" transform="translate(75,146)"/>
<path d="M0 0 C0.66 0.99 1.32 1.98 2 3 C2.66 2.67 3.32 2.34 4 2 C3.67 4.31 3.34 6.62 3 9 C2.34 9 1.68 9 1 9 C1 10.32 1 11.64 1 13 C1.66 13.33 2.32 13.66 3 14 C2.01 14.99 1.02 15.98 0 17 C0 14.69 0 12.38 0 10 C-0.66 10 -1.32 10 -2 10 C-2.33 7.03 -2.66 4.06 -3 1 C-2.01 0.67 -1.02 0.34 0 0 Z " fill="#816A5E" transform="translate(48,46)"/>
<path d="M0 0 C1.32 0.66 2.64 1.32 4 2 C3.01 3.485 3.01 3.485 2 5 C1.60986284 6.9896995 1.26797351 8.99019869 1 11 C0.01 11 -0.98 11 -2 11 C-2 10.34 -2 9.68 -2 9 C-2.66 8.67 -3.32 8.34 -4 8 C-4.33 8.99 -4.66 9.98 -5 11 C-4.67 8.36 -4.34 5.72 -4 3 C-3.01 3 -2.02 3 -1 3 C-0.67 2.01 -0.34 1.02 0 0 Z " fill="#3D3B4F" transform="translate(108,175)"/>
<path d="M0 0 C1.65 1.32 3.3 2.64 5 4 C3.15568929 5.84431071 1.3045807 7.67845785 -0.5625 9.5 C-3.09670564 11.94606204 -3.09670564 11.94606204 -5 15 C-5.63122172 6.79411765 -5.63122172 6.79411765 -3.0625 3.5625 C-2.381875 3.046875 -1.70125 2.53125 -1 2 C-0.67 1.34 -0.34 0.68 0 0 Z " fill="#DEDBD0" transform="translate(5,113)"/>
<path d="M0 0 C0.33 0 0.66 0 1 0 C0.48400816 7.8822202 -1.0921453 15.34458305 -3 23 C-3.66 23 -4.32 23 -5 23 C-4.5541145 19.72734339 -4.09115745 16.45732561 -3.625 13.1875 C-3.49867187 12.25873047 -3.37234375 11.32996094 -3.2421875 10.37304688 C-3.11328125 9.48037109 -2.984375 8.58769531 -2.8515625 7.66796875 C-2.73635254 6.84578857 -2.62114258 6.0236084 -2.50244141 5.17651367 C-2 3 -2 3 0 0 Z " fill="#D5C6D0" transform="translate(86,163)"/>
<path d="M0 0 C0.33 0.66 0.66 1.32 1 2 C0.34 2 -0.32 2 -1 2 C-1.0825 2.721875 -1.165 3.44375 -1.25 4.1875 C-2.54082988 9.02811207 -5.77143638 12.40829972 -10 15 C-10.99 15 -11.98 15 -13 15 C-11.60804085 12.2160817 -9.84424221 12.02101003 -7 11 C-6.67 8.69 -6.34 6.38 -6 4 C-5.01 3.67 -4.02 3.34 -3 3 C-3 2.34 -3 1.68 -3 1 C-2.01 0.67 -1.02 0.34 0 0 Z " fill="#3D2B23" transform="translate(92,97)"/>
<path d="M0 0 C0.66 0 1.32 0 2 0 C2.24234375 0.66386719 2.4846875 1.32773438 2.734375 2.01171875 C4.61153659 6.95731756 6.33322093 11.07130813 10 15 C9.01 15.33 8.02 15.66 7 16 C7 15.34 7 14.68 7 14 C6.34 14 5.68 14 5 14 C0.21455558 9.44243388 0.21455558 9.44243388 -0.32421875 5.8203125 C-0.31384641 3.87722826 -0.16689066 1.93593167 0 0 Z " fill="#272938" transform="translate(0,164)"/>
<path d="M0 0 C1.32 0 2.64 0 4 0 C4.33 1.65 4.66 3.3 5 5 C5.66 4.67 6.32 4.34 7 4 C7.66 6.97 8.32 9.94 9 13 C8.67 12.34 8.34 11.68 8 11 C7.360625 10.855625 6.72125 10.71125 6.0625 10.5625 C4 10 4 10 2 7 C1.01 7.495 1.01 7.495 0 8 C0 5.36 0 2.72 0 0 Z " fill="#D7A38D" transform="translate(44,56)"/>
<path d="M0 0 C0.99 0 1.98 0 3 0 C3 1.98 3 3.96 3 6 C3.99 6.33 4.98 6.66 6 7 C6.80078125 8.7421875 6.80078125 8.7421875 7.3125 10.875 C7.58513672 11.92300781 7.58513672 11.92300781 7.86328125 12.9921875 C8 15 8 15 6 18 C4.14223235 14.86501708 3.79859524 12.62528568 4 9 C3.01 9.33 2.02 9.66 1 10 C1.03255208 7.98177083 1.06510417 5.96354167 1.09765625 3.9453125 C1.12649242 1.91814596 1.12649242 1.91814596 0 0 Z " fill="#38303F" transform="translate(47,128)"/>
<path d="M0 0 C0.66 0 1.32 0 2 0 C2 0.66 2 1.32 2 2 C2.66 2 3.32 2 4 2 C4.33 1.34 4.66 0.68 5 0 C5.33 1.32 5.66 2.64 6 4 C5.34 4 4.68 4 4 4 C4 4.66 4 5.32 4 6 C4.66 6 5.32 6 6 6 C5.34 7.65 4.68 9.3 4 11 C2.68 11 1.36 11 0 11 C0.875 5.25 0.875 5.25 2 3 C1.01 3.33 0.02 3.66 -1 4 C-0.67 2.68 -0.34 1.36 0 0 Z " fill="#866A6F" transform="translate(71,181)"/>
<path d="M0 0 C2.63380355 3.95070533 2.80016718 7.54407513 3.4375 12.1875 C3.85268609 15.19150809 3.85268609 15.19150809 6 18 C5.01 18.33 4.02 18.66 3 19 C0.43238452 16.38521048 0.0043655 15.05471424 -0.29296875 11.328125 C-0.27316751 9.96843965 -0.23759202 8.6089066 -0.1875 7.25 C-0.17396484 6.55261719 -0.16042969 5.85523437 -0.14648438 5.13671875 C-0.1112945 3.42414459 -0.05749155 1.71197059 0 0 Z " fill="#9C746F" transform="translate(54,117)"/>
<path d="M0 0 C0.66 0.33 1.32 0.66 2 1 C1.45276317 4.37462715 0.9451 6.08235 -1 9 C-1.2165625 10.2375 -1.2165625 10.2375 -1.4375 11.5 C-2.08539421 14.37952983 -2.92532785 15.00831474 -5 17 C-6.19027984 19.59915538 -6.19027984 19.59915538 -7 22 C-8 20 -8 20 -7.1875 16.5 C-6 13 -6 13 -4 11 C-2.98469075 8.25269263 -2.12968331 5.5331425 -1.4375 2.6875 C-1 1 -1 1 0 0 Z " fill="#3F393B" transform="translate(109,47)"/>
<path d="M0 0 C0.33 0.99 0.66 1.98 1 3 C1.66 3 2.32 3 3 3 C4.55577239 8.65735415 3.24281523 11.79666866 1 17 C0.67 17 0.34 17 0 17 C-1.33257403 5.47835991 -1.33257403 5.47835991 0 0 Z " fill="#282531" transform="translate(89,154)"/>
<path d="M0 0 C0.99 0.495 0.99 0.495 2 1 C2.4140625 3.28515625 2.4140625 3.28515625 2.625 6.0625 C2.69976562 6.98160156 2.77453125 7.90070313 2.8515625 8.84765625 C2.92503906 9.91306641 2.92503906 9.91306641 3 11 C2.34 11 1.68 11 1 11 C1.33 16.28 1.66 21.56 2 27 C-0.26598448 23.60102327 -0.23742654 22.43680827 -0.1953125 18.45703125 C-0.18886719 17.38388672 -0.18242188 16.31074219 -0.17578125 15.20507812 C-0.15064453 13.52575195 -0.15064453 13.52575195 -0.125 11.8125 C-0.11597656 10.68134766 -0.10695312 9.55019531 -0.09765625 8.38476562 C-0.07406862 5.58963172 -0.041153 2.79492155 0 0 Z " fill="#292432" transform="translate(54,143)"/>
<path d="M0 0 C0.8971875 0.5259375 0.8971875 0.5259375 1.8125 1.0625 C0.90757813 1.46082031 0.90757813 1.46082031 -0.015625 1.8671875 C-0.81484375 2.22039062 -1.6140625 2.57359375 -2.4375 2.9375 C-3.22640625 3.28554687 -4.0153125 3.63359375 -4.828125 3.9921875 C-5.60671875 4.34539062 -6.3853125 4.69859375 -7.1875 5.0625 C-7.92484375 5.39507812 -8.6621875 5.72765625 -9.421875 6.0703125 C-11.36143632 6.94315814 -11.36143632 6.94315814 -12.1875 9.0625 C-12.8475 6.7525 -13.5075 4.4425 -14.1875 2.0625 C-11.2175 2.0625 -8.2475 2.0625 -5.1875 2.0625 C-5.1875 1.4025 -5.1875 0.7425 -5.1875 0.0625 C-2.1875 -0.9375 -2.1875 -0.9375 0 0 Z " fill="#704D43" transform="translate(87.1875,110.9375)"/>
<path d="M0 0 C1.65 0 3.3 0 5 0 C5.66 1.32 6.32 2.64 7 4 C5.41727399 5.58272601 3.61965997 5.34735747 1.4375 5.5625 C0.19806641 5.68818359 0.19806641 5.68818359 -1.06640625 5.81640625 C-2.02353516 5.90728516 -2.02353516 5.90728516 -3 6 C-3.33 5.01 -3.66 4.02 -4 3 C-3.01 3 -2.02 3 -1 3 C-0.67 2.01 -0.34 1.02 0 0 Z " fill="#815649" transform="translate(72,102)"/>
<path d="M0 0 C-0.11442461 1.60495567 -0.24194694 3.20898119 -0.375 4.8125 C-0.44460937 5.70582031 -0.51421875 6.59914062 -0.5859375 7.51953125 C-1 10 -1 10 -3 13 C-3 12.34 -3 11.68 -3 11 C-3.66 11 -4.32 11 -5 11 C-5.35061325 5.653148 -5.35061325 5.653148 -5 3 C-2.09375 0 -2.09375 0 0 0 Z " fill="#E4C0CF" transform="translate(77,163)"/>
<path d="M0 0 C0.33 0 0.66 0 1 0 C1 2.31 1 4.62 1 7 C0.34 7 -0.32 7 -1 7 C-0.65213292 8.97536745 -0.65213292 8.97536745 0 11 C0.66 11.33 1.32 11.66 2 12 C2.6328125 14.28515625 2.6328125 14.28515625 3.125 17.0625 C3.29257812 17.98160156 3.46015625 18.90070313 3.6328125 19.84765625 C3.75398438 20.55792969 3.87515625 21.26820312 4 22 C3.01 21.67 2.02 21.34 1 21 C-1.97834353 14.60207686 -3.02156174 9.51161849 -1 2.5625 C-0.67 1.716875 -0.34 0.87125 0 0 Z " fill="#E7C0AC" transform="translate(46,58)"/>
<path d="M0 0 C0.99 0.99 1.98 1.98 3 3 C2.25 5.4375 2.25 5.4375 1 8 C-1 8.875 -1 8.875 -3 9 C-3.66 8.67 -4.32 8.34 -5 8 C-5.625 5.9375 -5.625 5.9375 -6 4 C-5.01 3.67 -4.02 3.34 -3 3 C-1.33289654 1.50014391 -1.33289654 1.50014391 0 0 Z " fill="#7E5748" transform="translate(69,58)"/>
<path d="M0 0 C0.99 0.33 1.98 0.66 3 1 C2.505 1.4125 2.01 1.825 1.5 2.25 C-0.43386092 4.12202338 -0.43386092 4.12202338 0 8 C-2.95664519 9.4783226 -5.74229737 9.06032783 -9 9 C-9 9.66 -9 10.32 -9 11 C-9.66 11 -10.32 11 -11 11 C-11 10.01 -11 9.02 -11 8 C-9.865625 7.855625 -8.73125 7.71125 -7.5625 7.5625 C-4.19222799 7.38828522 -4.19222799 7.38828522 -3 6 C-3.99 5.34 -4.98 4.68 -6 4 C-4 2.66666667 -2 1.33333333 0 0 Z " fill="#875649" transform="translate(80,90)"/>
<path d="M0 0 C2.97415818 3.3797252 3.91767514 6.67070055 5 11 C5.226875 11.70125 5.45375 12.4025 5.6875 13.125 C6.09949593 15.59697561 5.60266296 17.58934817 5 20 C2.83614399 16.75421598 2.2255829 14.34716433 1.375 10.5625 C0.98441406 8.86287109 0.98441406 8.86287109 0.5859375 7.12890625 C0 4 0 4 0 0 Z " fill="#66392E" transform="translate(53,108)"/>
<path d="M0 0 C1.485 0.99 1.485 0.99 3 2 C3 2.66 3 3.32 3 4 C4.65 3.67 6.3 3.34 8 3 C8.33 3.99 8.66 4.98 9 6 C8.01 6.99 7.02 7.98 6 9 C0.24489796 5.57142857 0.24489796 5.57142857 -0.9375 2.8125 C-0.958125 2.214375 -0.97875 1.61625 -1 1 C-0.67 0.67 -0.34 0.34 0 0 Z " fill="#684C40" transform="translate(60,102)"/>
<path d="M0 0 C0.33 0 0.66 0 1 0 C1.04898438 0.58007812 1.09796875 1.16015625 1.1484375 1.7578125 C1.59649405 6.43923092 2.298021 10.57485459 4 15 C1.525 16.485 1.525 16.485 -1 18 C-1.33 17.34 -1.66 16.68 -2 16 C-1.34 16 -0.68 16 0 16 C-0.08378906 15.26394531 -0.16757813 14.52789062 -0.25390625 13.76953125 C-0.35574219 12.79371094 -0.45757812 11.81789063 -0.5625 10.8125 C-0.66691406 9.84957031 -0.77132812 8.88664062 -0.87890625 7.89453125 C-0.99758751 5.05766623 -0.67765639 2.74576329 0 0 Z " fill="#875947" transform="translate(80,65)"/>
<path d="M0 0 C2.03125 0.0859375 2.03125 0.0859375 4.5 0.375 C5.3146875 0.46523437 6.129375 0.55546875 6.96875 0.6484375 C9 1 9 1 10 2 C10.04063832 3.66617115 10.042721 5.33388095 10 7 C9.01 6.67 8.02 6.34 7 6 C7.33 5.34 7.66 4.68 8 4 C4.7 3.67 1.4 3.34 -2 3 C-1 1 -1 1 0 0 Z " fill="#F0D6DA" transform="translate(61,148)"/>
<path d="M0 0 C0.66 0 1.32 0 2 0 C2.24915939 1.76813112 2.47366632 3.53974982 2.6875 5.3125 C2.81511719 6.29863281 2.94273438 7.28476563 3.07421875 8.30078125 C3 11 3 11 1.51953125 12.85546875 C1.01808594 13.23316406 0.51664062 13.61085937 0 14 C0.33 12.35 0.66 10.7 1 9 C0.34 8.67 -0.32 8.34 -1 8 C-0.67 7.34 -0.34 6.68 0 6 C-0.66 6 -1.32 6 -2 6 C-1.49396008 3.83125748 -1.00016187 2.00032373 0 0 Z " fill="#744842" transform="translate(89,115)"/>
<path d="M0 0 C0.68359375 1.703125 0.68359375 1.703125 1 4 C-0.21484375 6.359375 -0.21484375 6.359375 -1.9375 8.75 C-2.50339844 9.54921875 -3.06929688 10.3484375 -3.65234375 11.171875 C-4.09707031 11.77515625 -4.54179688 12.3784375 -5 13 C-6 10 -6 10 -4.75 6.5 C-3.32677386 3.65354771 -2.41672888 1.95639957 0 0 Z " fill="#856566" transform="translate(85,150)"/>
<path d="M0 0 C0.99 0.33 1.98 0.66 3 1 C3 1.66 3 2.32 3 3 C3.66 3 4.32 3 5 3 C5.33 2.34 5.66 1.68 6 1 C6.33 3.31 6.66 5.62 7 8 C5.35 7.67 3.7 7.34 2 7 C1.34 4.69 0.68 2.38 0 0 Z " fill="#C28E75" transform="translate(63,113)"/>
<path d="M0 0 C0.33 0.99 0.66 1.98 1 3 C0.360625 3.226875 -0.27875 3.45375 -0.9375 3.6875 C-3.27193661 4.85250896 -3.27193661 4.85250896 -3.75 7.625 C-3.8325 8.40875 -3.915 9.1925 -4 10 C-4.66 10 -5.32 10 -6 10 C-6.33 11.32 -6.66 12.64 -7 14 C-7 11.03 -7 8.06 -7 5 C-6.34 5 -5.68 5 -5 5 C-5 4.34 -5 3.68 -5 3 C-2.5 1.375 -2.5 1.375 0 0 Z " fill="#D2927D" transform="translate(63,73)"/>
<path d="M0 0 C2.01822917 0.06510417 4.03645833 0.13020833 6.0546875 0.1953125 C5.7246875 1.5153125 5.3946875 2.8353125 5.0546875 4.1953125 C3.0746875 4.5253125 1.0946875 4.8553125 -0.9453125 5.1953125 C-0.9453125 4.5353125 -0.9453125 3.8753125 -0.9453125 3.1953125 C-1.9353125 2.8653125 -2.9253125 2.5353125 -3.9453125 2.1953125 C-1.9453125 0.1953125 -1.9453125 0.1953125 0 0 Z " fill="#907164" transform="translate(56.9453125,55.8046875)"/>
<path d="M0 0 C0.66 0 1.32 0 2 0 C2.33 0.99 2.66 1.98 3 3 C2.01 3.66 1.02 4.32 0 5 C-2.20426699 7.36754603 -2.96469578 8.48220481 -3.1875 11.75 C-3.125625 12.4925 -3.06375 13.235 -3 14 C-4.32 14 -5.64 14 -7 14 C-6.47985572 10.1509323 -5.74828063 8.64257753 -3 6 C-1.95377125 4.02379014 -0.94560065 2.0262871 0 0 Z " fill="#D8AA8F" transform="translate(58,41)"/>
<path d="M0 0 C1.98 0.99 1.98 0.99 4 2 C4 2.99 4 3.98 4 5 C7.465 6.485 7.465 6.485 11 8 C11 8.66 11 9.32 11 10 C9.1875 10.6875 9.1875 10.6875 7 11 C5.25 9.5625 5.25 9.5625 4 8 C3.01 8.495 3.01 8.495 2 9 C1.34 6.03 0.68 3.06 0 0 Z " fill="#795B4E" transform="translate(56,95)"/>
<path d="M0 0 C0.66 0 1.32 0 2 0 C1.33333333 3.33333333 0.66666667 6.66666667 0 10 C-0.66 10 -1.32 10 -2 10 C-2 8.68 -2 7.36 -2 6 C-2.66 6 -3.32 6 -4 6 C-4 6.66 -4 7.32 -4 8 C-4.66 8 -5.32 8 -6 8 C-5.625 6.0625 -5.625 6.0625 -5 4 C-4.34 3.67 -3.68 3.34 -3 3 C-2.67 2.34 -2.34 1.68 -2 1 C-1.67 1.33 -1.34 1.66 -1 2 C-0.67 1.34 -0.34 0.68 0 0 Z " fill="#6A5246" transform="translate(96,88)"/>
<path d="M0 0 C0.99 0.33 1.98 0.66 3 1 C1.68 4.3 0.36 7.6 -1 11 C-1.99 11 -2.98 11 -4 11 C-3.67 8.03 -3.34 5.06 -3 2 C-2.34 2 -1.68 2 -1 2 C-0.67 1.34 -0.34 0.68 0 0 Z " fill="#9B695E" transform="translate(85,131)"/>
<path d="M0 0 C1.12588014 0.95729916 2.2506715 1.91587895 3.375 2.875 C4.00148438 3.40867187 4.62796875 3.94234375 5.2734375 4.4921875 C6.55836651 5.61432007 7.79371975 6.79371975 9 8 C7.68 8 6.36 8 5 8 C5 8.66 5 9.32 5 10 C4.34 10 3.68 10 3 10 C-0.00617269 6.99382731 0.40414684 4.17618402 0 0 Z " fill="#2C292B" transform="translate(95,98)"/>
<path d="M0 0 C3.63 0 7.26 0 11 0 C11 0.99 11 1.98 11 3 C7.37 3 3.74 3 0 3 C0 2.01 0 1.02 0 0 Z " fill="#5C3F30" transform="translate(71,99)"/>
<path d="M0 0 C2 3 2 3 2 5 C3.32 5.66 4.64 6.32 6 7 C5.67 8.32 5.34 9.64 5 11 C5 10.34 5 9.68 5 9 C4.13375 8.87625 4.13375 8.87625 3.25 8.75 C0.3840696 7.79468987 -0.9990764 6.21530827 -3 4 C-2.34 3.67 -1.68 3.34 -1 3 C-0.67 2.01 -0.34 1.02 0 0 Z " fill="#6B493C" transform="translate(87,77)"/>
<path d="M0 0 C0.99 0.495 0.99 0.495 2 1 C2 2.98 2 4.96 2 7 C3.546875 6.938125 3.546875 6.938125 5.125 6.875 C8.92197972 6.99748322 11.54122905 7.47170586 15 9 C15.99 10.485 15.99 10.485 17 12 C10.25 11.25 10.25 11.25 8 9 C5.67724823 8.59952556 3.34260643 8.2602896 1 8 C0.67 5.36 0.34 2.72 0 0 Z " fill="#877D70" transform="translate(89,12)"/>
<path d="M0 0 C1.25541557 3.76624671 0.37061958 5.37188934 -1 9 C-1.99 9 -2.98 9 -4 9 C-4.66 7.02 -5.32 5.04 -6 3 C-5.01 2.67 -4.02 2.34 -3 2 C-2.34 2.33 -1.68 2.66 -1 3 C-0.67 2.01 -0.34 1.02 0 0 Z " fill="#383B4B" transform="translate(37,112)"/>
<path d="M0 0 C1.15837573 3.47512718 0.77265943 5.13670286 0.0625 8.6875 C-0.13214844 9.68136719 -0.32679687 10.67523438 -0.52734375 11.69921875 C-0.68332031 12.45847656 -0.83929688 13.21773437 -1 14 C-1.99 14 -2.98 14 -4 14 C-3.53328373 8.58609132 -2.75702189 4.79482068 0 0 Z " fill="#3B3747" transform="translate(86,178)"/>
<path d="M0 0 C1.60031344 3.20062687 0.03173691 5.72271806 -1 9 C-2.65 9.33 -4.3 9.66 -6 10 C-6.33 9.01 -6.66 8.02 -7 7 C-4.69 4.69 -2.38 2.38 0 0 Z " fill="#4C4957" transform="translate(52,96)"/>
<path d="M0 0 C2.4375 0.75 2.4375 0.75 5 2 C5.8125 4.125 5.8125 4.125 6 6 C4.68 6 3.36 6 2 6 C1.67 6.66 1.34 7.32 1 8 C0.34 5.69 -0.32 3.38 -1 1 C-0.67 0.67 -0.34 0.34 0 0 Z " fill="#D59683" transform="translate(65,91)"/>
<path d="M0 0 C0.66 0.33 1.32 0.66 2 1 C1.979375 1.78375 1.95875 2.5675 1.9375 3.375 C1.81315937 5.98114961 1.81315937 5.98114961 3 8 C1.4375 10.5 1.4375 10.5 -1 13 C-4.75 13.3125 -4.75 13.3125 -8 13 C-8 12.67 -8 12.34 -8 12 C-5.69 11.34 -3.38 10.68 -1 10 C-0.67 6.7 -0.34 3.4 0 0 Z " fill="#AB6F59" transform="translate(78,42)"/>
<path d="M0 0 C2.22889496 -0.05428973 4.45817471 -0.09292338 6.6875 -0.125 C8.54955078 -0.15980469 8.54955078 -0.15980469 10.44921875 -0.1953125 C13.81237857 -0.01032021 15.9985587 0.54232105 19 2 C19 2.33 19 2.66 19 3 C16.95809019 2.85761163 14.91647955 2.71092972 12.875 2.5625 C11.73804687 2.48128906 10.60109375 2.40007813 9.4296875 2.31640625 C6.2459522 2.02269035 3.14489093 1.56875687 0 1 C0 0.67 0 0.34 0 0 Z " fill="#745248" transform="translate(66,30)"/>
<path d="M0 0 C1.49080078 0.02707031 1.49080078 0.02707031 3.01171875 0.0546875 C3.77097656 0.07789063 4.53023437 0.10109375 5.3125 0.125 C5.3125 1.115 5.3125 2.105 5.3125 3.125 C0.4791528 3.20833357 -3.92442563 3.07761487 -8.6875 2.125 C-5.26655758 -0.15562828 -4.00562778 -0.09425007 0 0 Z " fill="#4C4340" transform="translate(72.6875,15.875)"/>
<path d="M0 0 C0.99 0.33 1.98 0.66 3 1 C3 1.66 3 2.32 3 3 C4.32 3.66 5.64 4.32 7 5 C6.67 6.32 6.34 7.64 6 9 C5.34 9 4.68 9 4 9 C3.67 7.35 3.34 5.7 3 4 C1.68 4.33 0.36 4.66 -1 5 C-1.33 4.34 -1.66 3.68 -2 3 C-1.34 2.01 -0.68 1.02 0 0 Z " fill="#49443F" transform="translate(81,12)"/>
<path d="M0 0 C0.33 0.99 0.66 1.98 1 3 C0.01 4.485 0.01 4.485 -1 6 C-1.99 6 -2.98 6 -4 6 C-4.99 6.66 -5.98 7.32 -7 8 C-7 6.35 -7 4.7 -7 3 C-4.69 2.01 -2.38 1.02 0 0 Z " fill="#4C4440" transform="translate(56,26)"/>
<path d="M0 0 C2.03833424 1.2739589 4.03852126 2.61061923 6 4 C6 4.66 6 5.32 6 6 C2.04 5.67 -1.92 5.34 -6 5 C-5.67 4.01 -5.34 3.02 -5 2 C-5 2.66 -5 3.32 -5 4 C-3.35 3.67 -1.7 3.34 0 3 C0 2.01 0 1.02 0 0 Z " fill="#B5AC9C" transform="translate(97,14)"/>
<path d="M0 0 C1.65 0 3.3 0 5 0 C5.66 1.65 6.32 3.3 7 5 C4.69 5.33 2.38 5.66 0 6 C0 4.02 0 2.04 0 0 Z " fill="#40434D" transform="translate(112,174)"/>
<path d="M0 0 C1.485 0.99 1.485 0.99 3 2 C3 2.66 3 3.32 3 4 C4.32 3.67 5.64 3.34 7 3 C6.67 5.31 6.34 7.62 6 10 C5.34 10 4.68 10 4 10 C3.67 9.01 3.34 8.02 3 7 C2.01 7.495 2.01 7.495 1 8 C0.67 5.36 0.34 2.72 0 0 Z " fill="#A37C7E" transform="translate(54,132)"/>
<path d="M0 0 C2.64 0.66 5.28 1.32 8 2 C7.67 3.32 7.34 4.64 7 6 C6.01 6.495 6.01 6.495 5 7 C4.34 6.34 3.68 5.68 3 5 C2.34 5 1.68 5 1 5 C0.67 3.35 0.34 1.7 0 0 Z " fill="#A67D68" transform="translate(65,111)"/>
<path d="M0 0 C4.8051553 -0.56531239 7.24303897 1.11675084 11 4 C11 4.33 11 4.66 11 5 C7.12459955 5.17615457 4.24484731 5.28341107 1 3 C0.67 2.01 0.34 1.02 0 0 Z " fill="#BF9885" transform="translate(67,88)"/>
<path d="M0 0 C0 0.99 0 1.98 0 3 C-0.99 2.67 -1.98 2.34 -3 2 C-3.33 2.99 -3.66 3.98 -4 5 C-4.33 4.34 -4.66 3.68 -5 3 C-6.65 3.33 -8.3 3.66 -10 4 C-10 3.34 -10 2.68 -10 2 C-6.3558226 -0.4294516 -4.28758728 -0.16179575 0 0 Z " fill="#836352" transform="translate(72,81)"/>
<path d="M0 0 C1.64826111 2.96687001 2.44271087 5.65626525 3 9 C2.01 9.66 1.02 10.32 0 11 C-1.82941851 7.23355012 -2.23162684 5.03077875 -1 1 C-0.67 0.67 -0.34 0.34 0 0 Z " fill="#634C46" transform="translate(84,59)"/>
<path d="M0 0 C0 3.36751897 -0.69347588 4.6635394 -2.3125 7.5625 C-2.74175781 8.34753906 -3.17101563 9.13257813 -3.61328125 9.94140625 C-5 12 -5 12 -8 14 C-7.65015815 8.40253042 -3.85992893 3.85992893 0 0 Z " fill="#AD816C" transform="translate(60,36)"/>
<path d="M0 0 C1.65 0 3.3 0 5 0 C4.67 0.99 4.34 1.98 4 3 C4.99 3.33 5.98 3.66 7 4 C6.34 4 5.68 4 5 4 C5 4.66 5 5.32 5 6 C3.35 6 1.7 6 0 6 C-1.24546405 3.50907189 -0.7767578 2.58919267 0 0 Z " fill="#212031" transform="translate(102,183)"/>
<path d="M0 0 C1.15837573 3.47512718 0.77265943 5.13670286 0.0625 8.6875 C-0.13214844 9.68136719 -0.32679687 10.67523438 -0.52734375 11.69921875 C-0.68332031 12.45847656 -0.83929688 13.21773437 -1 14 C-2 12 -3 10 -4 8 C-3.34 7.01 -2.68 6.02 -2 5 C-2.33 4.01 -2.66 3.02 -3 2 C-2.01 1.34 -1.02 0.68 0 0 Z " fill="#856D6E" transform="translate(90,146)"/>
<path d="M0 0 C3.26189156 0.5623951 4.91134848 1.4140505 7 4 C7.33 4.99 7.66 5.98 8 7 C8.66 7.66 9.32 8.32 10 9 C6.43179569 8.44149846 5.00428942 7.27801323 2.75 4.5 C1.96882813 3.55640625 1.96882813 3.55640625 1.171875 2.59375 C0 1 0 1 0 0 Z " fill="#D6D4CC" transform="translate(95,96)"/>
<path d="M0 0 C0.33 0 0.66 0 1 0 C0.67 5.28 0.34 10.56 0 16 C-1.32 15.67 -2.64 15.34 -4 15 C-3.01 15 -2.02 15 -1 15 C-1.09539063 14.25234375 -1.19078125 13.5046875 -1.2890625 12.734375 C-1.39992187 11.74953125 -1.51078125 10.7646875 -1.625 9.75 C-1.74101563 8.77546875 -1.85703125 7.8009375 -1.9765625 6.796875 C-2.00112537 3.86570607 -1.5312717 2.45471036 0 0 Z " fill="#A27059" transform="translate(61,80)"/>
<path d="M0 0 C0.33 0.99 0.66 1.98 1 3 C2.98 3 4.96 3 7 3 C6.01 4.32 5.02 5.64 4 7 C1.5625 6.625 1.5625 6.625 -1 6 C-1.33 5.34 -1.66 4.68 -2 4 C-1.0625 1.875 -1.0625 1.875 0 0 Z " fill="#A77561" transform="translate(63,63)"/>
<path d="M0 0 C3.96 0 7.92 0 12 0 C12 0.33 12 0.66 12 1 C10.35 1 8.7 1 7 1 C7 1.66 7 2.32 7 3 C7.66 3 8.32 3 9 3 C9 3.66 9 4.32 9 5 C6.5625 4.625 6.5625 4.625 4 4 C3.67 3.34 3.34 2.68 3 2 C1.68 2.33 0.36 2.66 -1 3 C-0.67 2.01 -0.34 1.02 0 0 Z " fill="#5F504A" transform="translate(88,57)"/>
<path d="M0 0 C0.99 0.495 0.99 0.495 2 1 C3.14242743 5.68395246 3.08252495 10.21355271 3 15 C-0.34944548 9.97583178 -0.09834146 5.90048743 0 0 Z " fill="#7A676C" transform="translate(57,150)"/>
<path d="M0 0 C3.465 1.485 3.465 1.485 7 3 C6.67 4.32 6.34 5.64 6 7 C2.66462511 5.88820837 1.36292656 4.52588702 -1 2 C-0.67 1.34 -0.34 0.68 0 0 Z " fill="#353439" transform="translate(135,121)"/>
<path d="M0 0 C-0.33 1.32 -0.66 2.64 -1 4 C-3.31 3.67 -5.62 3.34 -8 3 C-8.33 3.66 -8.66 4.32 -9 5 C-9.99 5.495 -9.99 5.495 -11 6 C-11 4.68 -11 3.36 -11 2 C-3.375 0 -3.375 0 0 0 Z " fill="#D6B8BF" transform="translate(69,145)"/>
<path d="M0 0 C2.475 0.99 2.475 0.99 5 2 C4.34 3.32 3.68 4.64 3 6 C1.68 6 0.36 6 -1 6 C-0.67 4.02 -0.34 2.04 0 0 Z " fill="#362925" transform="translate(81,82)"/>
<path d="M0 0 C0.33 0.99 0.66 1.98 1 3 C-1.3125 6.1875 -1.3125 6.1875 -4 9 C-4.66 9 -5.32 9 -6 9 C-4.83857315 4.64464931 -3.92300495 2.35380297 0 0 Z " fill="#665D54" transform="translate(54,30)"/>
<path d="M0 0 C-0.78375 0.556875 -1.5675 1.11375 -2.375 1.6875 C-5.08704858 4.07668565 -5.96133543 5.60073413 -7 9 C-7.33 9 -7.66 9 -8 9 C-8 6.03 -8 3.06 -8 0 C-2.25 -1.125 -2.25 -1.125 0 0 Z " fill="#E1DFDB" transform="translate(8,119)"/>
<path d="M0 0 C0.66 0 1.32 0 2 0 C2.33 2.31 2.66 4.62 3 7 C3.99 7.33 4.98 7.66 6 8 C6 8.99 6 9.98 6 11 C4.125 10.75 4.125 10.75 2 10 C-0.35535899 6.82026536 -0.17494335 3.84875379 0 0 Z " fill="#D6AA93" transform="translate(53,59)"/>
<path d="M0 0 C2.0625 0.4375 2.0625 0.4375 4 1 C3.67 2.65 3.34 4.3 3 6 C2.01 6.33 1.02 6.66 0 7 C-0.38133299 5.0085944 -0.71325582 3.00720923 -1 1 C-0.67 0.67 -0.34 0.34 0 0 Z " fill="#DBD4C9" transform="translate(42,48)"/>
<path d="M0 0 C0.66 0.33 1.32 0.66 2 1 C2 2.32 2 3.64 2 5 C-2.43076923 7.09230769 -2.43076923 7.09230769 -5.3125 6.625 C-5.869375 6.41875 -6.42625 6.2125 -7 6 C-6.21625 5.566875 -5.4325 5.13375 -4.625 4.6875 C-1.78301625 3.10779753 -1.78301625 3.10779753 0 0 Z " fill="#EDB99D" transform="translate(61,47)"/>
<path d="M0 0 C0.33 0 0.66 0 1 0 C1.33 2.64 1.66 5.28 2 8 C1.01 8.33 0.02 8.66 -1 9 C-1 8.34 -1 7.68 -1 7 C-1.66 7 -2.32 7 -3 7 C-1.125 2.25 -1.125 2.25 0 0 Z " fill="#473B36" transform="translate(51,38)"/>
<path d="M0 0 C2.5 1.5 2.5 1.5 4 3 C1.36 3 -1.28 3 -4 3 C-4 2.34 -4 1.68 -4 1 C-6.31 1.33 -8.62 1.66 -11 2 C-7.3187559 -0.45416273 -4.27738037 -0.59384154 0 0 Z " fill="#696056" transform="translate(83,7)"/>
<path d="M0 0 C1.98 0.495 1.98 0.495 4 1 C3.67 2.32 3.34 3.64 3 5 C1.68 5 0.36 5 -1 5 C-0.67 3.35 -0.34 1.7 0 0 Z " fill="#E3D2DD" transform="translate(90,140)"/>
<path d="M0 0 C0.33 0 0.66 0 1 0 C2.13764351 4.26616316 3 7.56486311 3 12 C2.01 11.67 1.02 11.34 0 11 C-1.6691198 7.38357376 -0.65669883 3.79425988 0 0 Z " fill="#D79C80" transform="translate(55,101)"/>
<path d="M0 0 C4.16138263 -0.08159574 7.9472484 0.01751476 12 1 C8.61242079 3.08466413 5.94726562 3.42905061 2 3 C1.34 2.01 0.68 1.02 0 0 Z " fill="#735044" transform="translate(72,88)"/>
<path d="M0 0 C1.32 0.66 2.64 1.32 4 2 C4 3.32 4 4.64 4 6 C1.36 6 -1.28 6 -4 6 C-3.34 5.34 -2.68 4.68 -2 4 C-1.01 4 -0.02 4 1 4 C0.67 2.68 0.34 1.36 0 0 Z " fill="#CB8A74" transform="translate(69,47)"/>
<path d="M0 0 C1.8871875 0.061875 1.8871875 0.061875 3.8125 0.125 C2.625 2.125 2.625 2.125 0.8125 4.125 C-2.9279533 4.686068 -3.96606724 4.27262184 -7.1875 2.125 C-4.09861478 0.06574319 -3.47814073 -0.1140374 0 0 Z " fill="#6A5F58" transform="translate(58.1875,22.875)"/>
<path d="M0 0 C2.53430818 2.20374624 3.40203927 3.71121596 4 7 C4.185625 7.7425 4.37125 8.485 4.5625 9.25 C4.7790625 10.11625 4.7790625 10.11625 5 11 C4.01 11.495 4.01 11.495 3 12 C2.49166409 10.75336669 1.99368855 9.50250613 1.5 8.25 C1.2215625 7.55390625 0.943125 6.8578125 0.65625 6.140625 C0 4 0 4 0 0 Z " fill="#181A29" transform="translate(1,160)"/>
<path d="M0 0 C0.61875 0.804375 1.2375 1.60875 1.875 2.4375 C3.74164041 5.03874519 3.74164041 5.03874519 6 6 C5.67 6.99 5.34 7.98 5 9 C4.01 8.67 3.02 8.34 2 8 C0.3125 4.4375 0.3125 4.4375 -1 1 C-0.67 0.67 -0.34 0.34 0 0 Z " fill="#393735" transform="translate(106,36)"/>
<path d="M0 0 C0.66 0 1.32 0 2 0 C2 0.99 2 1.98 2 3 C-1.96 4.98 -1.96 4.98 -6 7 C-6.33 6.01 -6.66 5.02 -7 4 C-4 2 -4 2 0 2 C0 1.34 0 0.68 0 0 Z " fill="#786C61" transform="translate(56,19)"/>
<path d="M0 0 C2.31 0 4.62 0 7 0 C6.01 0.66 5.02 1.32 4 2 C4.99 2.66 5.98 3.32 7 4 C4.03 4 1.06 4 -2 4 C-1.34 2.68 -0.68 1.36 0 0 Z " fill="#635650" transform="translate(63,15)"/>
<path d="M0 0 C2.475 0.495 2.475 0.495 5 1 C5 3.64 5 6.28 5 9 C2 5.375 2 5.375 2 2 C1.34 2 0.68 2 0 2 C0 1.34 0 0.68 0 0 Z " fill="#9F898A" transform="translate(94,118)"/>
<path d="M0 0 C0.33 2.31 0.66 4.62 1 7 C0.34 5.68 -0.32 4.36 -1 3 C-2.65 3 -4.3 3 -6 3 C-6 2.34 -6 1.68 -6 1 C-4 0 -4 0 0 0 Z " fill="#CE9376" transform="translate(67,35)"/>
<path d="M0 0 C0.66 0.33 1.32 0.66 2 1 C2 1.99 2 2.98 2 4 C-0.64 4.33 -3.28 4.66 -6 5 C-2.25 1.125 -2.25 1.125 0 0 Z " fill="#49403E" transform="translate(65,22)"/>
<path d="M0 0 C0.33 0.99 0.66 1.98 1 3 C2.32 3 3.64 3 5 3 C5.33 3.99 5.66 4.98 6 6 C5.01 6.66 4.02 7.32 3 8 C0.37613513 4.93882432 0 4.26826873 0 0 Z " fill="#85706E" transform="translate(64,182)"/>
<path d="M0 0 C0.66 0.33 1.32 0.66 2 1 C2 1.99 2 2.98 2 4 C-0.31 4.33 -2.62 4.66 -5 5 C-4.34 4.67 -3.68 4.34 -3 4 C-2.67 3.01 -2.34 2.02 -2 1 C-1.34 0.67 -0.68 0.34 0 0 Z " fill="#060912" transform="translate(114,169)"/>
<path d="M0 0 C0.33 0 0.66 0 1 0 C0.67 3.3 0.34 6.6 0 10 C-0.99 9.67 -1.98 9.34 -3 9 C-1.125 2.25 -1.125 2.25 0 0 Z " fill="#C2B2B9" transform="translate(86,163)"/>
<path d="M0 0 C0.33 0 0.66 0 1 0 C1 1.65 1 3.3 1 5 C-0.98 5.66 -2.96 6.32 -5 7 C-5.33 6.01 -5.66 5.02 -6 4 C-5.34 3.34 -4.68 2.68 -4 2 C-4 2.66 -4 3.32 -4 4 C-3.01 3.67 -2.02 3.34 -1 3 C-0.67 2.01 -0.34 1.02 0 0 Z " fill="#D7B8BF" transform="translate(74,153)"/>
<path d="M0 0 C0.99 0.99 1.98 1.98 3 3 C2.34 3 1.68 3 1 3 C0.67 4.65 0.34 6.3 0 8 C-0.66 8 -1.32 8 -2 8 C-1.125 1.125 -1.125 1.125 0 0 Z " fill="#B69D9E" transform="translate(63,154)"/>
<path d="M0 0 C0 0.66 0 1.32 0 2 C-4.15267176 5.11450382 -4.15267176 5.11450382 -7.3125 4.6875 C-7.869375 4.460625 -8.42625 4.23375 -9 4 C-6.43425105 1.43425105 -3.68548192 0 0 0 Z " fill="#53535E" transform="translate(14,117)"/>
<path d="M0 0 C-1.26418246 0.69965443 -2.53665402 1.38434763 -3.8125 2.0625 C-4.52019531 2.44535156 -5.22789063 2.82820313 -5.95703125 3.22265625 C-8 4 -8 4 -11 3 C-3.53658537 -1.76829268 -3.53658537 -1.76829268 0 0 Z " fill="#E1DFDC" transform="translate(22,113)"/>
<path d="M0 0 C0.66 0.33 1.32 0.66 2 1 C1.37240135 3.92879371 0.41377341 6.36095629 -1 9 C-1.33 9 -1.66 9 -2 9 C-1.125 1.125 -1.125 1.125 0 0 Z " fill="#7A6553" transform="translate(100,80)"/>
<path d="M0 0 C0.66 0.33 1.32 0.66 2 1 C1.67 2.65 1.34 4.3 1 6 C-0.65 6 -2.3 6 -4 6 C-4 5.01 -4 4.02 -4 3 C-3.01 2.67 -2.02 2.34 -1 2 C-0.67 1.34 -0.34 0.68 0 0 Z " fill="#F5BBA3" transform="translate(74,74)"/>
<path d="M0 0 C0.99 0.66 1.98 1.32 3 2 C2.1875 4.4375 2.1875 4.4375 1 7 C0.01 7.33 -0.98 7.66 -2 8 C-2.66 7.67 -3.32 7.34 -4 7 C-4 6.34 -4 5.68 -4 5 C-3.01 4.67 -2.02 4.34 -1 4 C-0.26676204 1.98491642 -0.26676204 1.98491642 0 0 Z " fill="#725243" transform="translate(89,64)"/>
<path d="M0 0 C0.33 0.99 0.66 1.98 1 3 C0.319375 3.5878125 0.319375 3.5878125 -0.375 4.1875 C-2.27642919 6.30832487 -3.06204028 8.33042235 -4 11 C-5 9 -5 9 -4.25 5.5 C-3 2 -3 2 0 0 Z " fill="#47372E" transform="translate(106,58)"/>
<path d="M0 0 C2.125 0.375 2.125 0.375 4 1 C3.01 1 2.02 1 1 1 C0.67 1.99 0.34 2.98 0 4 C-3.63 4 -7.26 4 -11 4 C-11 3.67 -11 3.34 -11 3 C-10.37351562 2.95101562 -9.74703125 2.90203125 -9.1015625 2.8515625 C-8.28429687 2.77679688 -7.46703125 2.70203125 -6.625 2.625 C-5.81289062 2.55539063 -5.00078125 2.48578125 -4.1640625 2.4140625 C-1.79665809 2.17107412 -1.79665809 2.17107412 0 0 Z " fill="#62463E" transform="translate(84,54)"/>
<path d="M0 0 C3.81684226 1.55500981 6.19195732 4.03595495 9 7 C6.1875 6.875 6.1875 6.875 3 6 C1.125 2.9375 1.125 2.9375 0 0 Z " fill="#63594F" transform="translate(95,20)"/>
<path d="M0 0 C0.33 0.66 0.66 1.32 1 2 C1.66 2 2.32 2 3 2 C2.74438677 4.3431213 2.40729228 6.67843403 2 9 C1.01 9.495 1.01 9.495 0 10 C0.020625 9.21625 0.04125 8.4325 0.0625 7.625 C0.18684063 5.01885039 0.18684063 5.01885039 -1 3 C-0.67 2.01 -0.34 1.02 0 0 Z " fill="#E0C1C9" transform="translate(84,139)"/>
<path d="M0 0 C0.99 0 1.98 0 3 0 C3 1.98 3 3.96 3 6 C3.66 6.33 4.32 6.66 5 7 C4.01 7.99 3.02 8.98 2 10 C1.11064623 6.696686 0.53725895 3.37705625 0 0 Z " fill="#484859" transform="translate(47,128)"/>
<path d="M0 0 C1.98 0.99 1.98 0.99 4 2 C4 4.31 4 6.62 4 9 C3.01 9 2.02 9 1 9 C1.20625 8.071875 1.4125 7.14375 1.625 6.1875 C2.36692966 2.84826598 2.36692966 2.84826598 0 0 Z " fill="#9A776B" transform="translate(69,57)"/>
<path d="M0 0 C0.33 0.99 0.66 1.98 1 3 C-0.98 3.66 -2.96 4.32 -5 5 C-5 4.01 -5 3.02 -5 2 C-3.35 1.34 -1.7 0.68 0 0 Z " fill="#72685B" transform="translate(66,11)"/>
<path d="M0 0 C0.66 0.66 1.32 1.32 2 2 C1.75 5.0625 1.75 5.0625 1 8 C0.01 8.495 0.01 8.495 -1 9 C-0.67 6.03 -0.34 3.06 0 0 Z " fill="#55586A" transform="translate(1,125)"/>
<path d="M0 0 C1.32 0.33 2.64 0.66 4 1 C4 1.66 4 2.32 4 3 C5.98 3.66 7.96 4.32 10 5 C8.3125 5.6875 8.3125 5.6875 6 6 C3.3125 4.75 3.3125 4.75 1 3 C0.67 2.01 0.34 1.02 0 0 Z " fill="#A6755F" transform="translate(59,116)"/>
<path d="M0 0 C3.465 1.485 3.465 1.485 7 3 C6.67 3.66 6.34 4.32 6 5 C2.73045798 4.43628586 1.17424117 3.50037734 -1 1 C-0.67 0.67 -0.34 0.34 0 0 Z " fill="#2F2D31" transform="translate(113,110)"/>
<path d="M0 0 C-6.4 3.07692308 -6.4 3.07692308 -9.4375 2.6875 C-9.953125 2.460625 -10.46875 2.23375 -11 2 C-10.67 1.34 -10.34 0.68 -10 0 C-6.18015204 -0.77811718 -3.73159669 -1.24386556 0 0 Z " fill="#DEDDDB" transform="translate(35,108)"/>
<path d="M0 0 C0.33 0 0.66 0 1 0 C1 2.31 1 4.62 1 7 C-0.32 7 -1.64 7 -3 7 C-1.125 1.125 -1.125 1.125 0 0 Z " fill="#724E41" transform="translate(87,89)"/>
<path d="M0 0 C0.66 0.99 1.32 1.98 2 3 C0.68 5.31 -0.64 7.62 -2 10 C-2.66 9.67 -3.32 9.34 -4 9 C-3.34 8.01 -2.68 7.02 -2 6 C-1.29835358 4.01200182 -0.62627128 2.01301483 0 0 Z " fill="#5D3427" transform="translate(74,60)"/>
<path d="M0 0 C0.99 0.33 1.98 0.66 3 1 C3 2.32 3 3.64 3 5 C1.68 5 0.36 5 -1 5 C-0.67 3.35 -0.34 1.7 0 0 Z " fill="#4E443C" transform="translate(89,58)"/>
<path d="M0 0 C0.66 0 1.32 0 2 0 C2 1.65 2 3.3 2 5 C1.34 5 0.68 5 0 5 C-0.66 5.99 -1.32 6.98 -2 8 C-1.125 1.125 -1.125 1.125 0 0 Z " fill="#6A605C" transform="translate(44,33)"/>
<path d="M0 0 C0.6875 1.75 0.6875 1.75 1 4 C-0.3125 6.25 -0.3125 6.25 -2 8 C-2.66 8 -3.32 8 -4 8 C-2.87548273 5.0280615 -1.77706209 2.66559313 0 0 Z " fill="#21222E" transform="translate(143,171)"/>
<path d="M0 0 C1.67542976 0.28604898 3.34385343 0.61781233 5 1 C5 1.66 5 2.32 5 3 C2.69 3 0.38 3 -2 3 C-1 1 -1 1 0 0 Z " fill="#F7E5ED" transform="translate(61,148)"/>
<path d="M0 0 C0.66 0 1.32 0 2 0 C1.6875 2.375 1.6875 2.375 1 5 C0.01 5.66 -0.98 6.32 -2 7 C-1.125 2.25 -1.125 2.25 0 0 Z " fill="#43485C" transform="translate(2,131)"/>
<path d="M0 0 C0.33 0 0.66 0 1 0 C1.33 2.64 1.66 5.28 2 8 C1.01 8.495 1.01 8.495 0 9 C-0.87890625 2.84765625 -0.87890625 2.84765625 -1 1 C-0.67 0.67 -0.34 0.34 0 0 Z " fill="#C4ADB0" transform="translate(97,122)"/>
<path d="M0 0 C2.86724686 0.57344937 3.8614515 0.8614515 6 3 C5.01 4.485 5.01 4.485 4 6 C3.01 5.67 2.02 5.34 1 5 C0.67 3.35 0.34 1.7 0 0 Z " fill="#21222B" transform="translate(112,113)"/>
<path d="M0 0 C2.475 0.99 2.475 0.99 5 2 C5 2.66 5 3.32 5 4 C4.01 3.67 3.02 3.34 2 3 C-0.00875442 3.27571139 -2.01178687 3.60235737 -4 4 C-3.01 3.67 -2.02 3.34 -1 3 C-0.67 2.01 -0.34 1.02 0 0 Z " fill="#976456" transform="translate(72,102)"/>
<path d="M0 0 C0.33 0.99 0.66 1.98 1 3 C-0.98 3.99 -0.98 3.99 -3 5 C-3.99 4.34 -4.98 3.68 -6 3 C-4.02 2.01 -2.04 1.02 0 0 Z " fill="#643C32" transform="translate(85,90)"/>
<path d="M0 0 C2.31 0.66 4.62 1.32 7 2 C6.67 2.66 6.34 3.32 6 4 C3.36 3.34 0.72 2.68 -2 2 C-1.34 1.34 -0.68 0.68 0 0 Z " fill="#493E39" transform="translate(82,27)"/>
</svg>
