<svg id="Layer_1" data-name="Layer 1" xmlns="http://www.w3.org/2000/svg" viewBox="0 0 548.69 98.81"><defs><style>.cls-1{fill:#005de8;}</style></defs><polygon class="cls-1" points="350.04 3.38 268.57 3.38 265.98 25.94 293.84 25.94 285.77 96.27 311.51 96.27 319.58 25.94 347.45 25.94 350.04 3.38"/><polygon class="cls-1" points="375.94 59.65 420.53 59.65 422.86 39.34 378.28 39.34 379.89 25.28 429.12 25.28 431.63 3.38 356.93 3.38 346.27 96.27 421.63 96.27 424.14 74.37 374.25 74.37 375.94 59.65"/><path class="cls-1" d="M512.77,13.47c-5.5-6.37-14.89-10.08-29.09-10.08H439.76L429.09,96.27h25.75l3.23-28.13h11.28l15.48,28.13h29.71L496.11,63.89c12.1-4.91,20.74-14.33,22.38-28.53l0-.26C519.57,25.94,517.6,18.78,512.77,13.47ZM492.46,36.69l0,.26c-.78,6.77-6.31,11-15.07,11h-17l2.56-22.29h16.85C488.42,25.68,493.3,29.39,492.46,36.69Z"/><path class="cls-1" d="M122.08,80.83a53.86,53.86,0,0,0,7-10,39.35,39.35,0,0,0,4-10.78A24.81,24.81,0,0,0,133,48.15a15.81,15.81,0,0,0-7.52-9.39c-4.57-2.68-10.46-3-15.76-2.22A48.44,48.44,0,0,0,91,44a61.46,61.46,0,0,0-5.08,3.69,3.84,3.84,0,0,0-1,1.72c-.27,1.53-.49,3-.64,4.57V54c0,.55.14,2.41,1.08,1.51a1.1,1.1,0,0,1,.14-.11,47.17,47.17,0,0,1,7.62-6.15,37.7,37.7,0,0,1,14.53-5.76c4.12-.62,8.7-.35,12.25,1.72a12.34,12.34,0,0,1,5.85,7.3,19.25,19.25,0,0,1,.11,9.27,30.23,30.23,0,0,1-3.13,8.38,42.19,42.19,0,0,1-5.44,7.76,47.45,47.45,0,0,1-6.31,6,45.08,45.08,0,0,1-6.6,4.31,37.1,37.1,0,0,1-5,2.2h0s-1.78.78-.91,1.74a30.2,30.2,0,0,0,3.58,2.4s1.32.7,3.42-.48A59.33,59.33,0,0,0,114,88.5,60.16,60.16,0,0,0,122.08,80.83Z"/><path class="cls-1" d="M153.3,4.3c-11-6.24-24.42-5.45-36.59.84l0,0-.27.15c-1.15.69.29.67.29.67h0c10.09-2,19.88-2.92,30.93,2C161,14.46,166.8,28.76,169.21,40.3h0s1.27,2.89,2.15.1C171.67,25,165.4,11.18,153.3,4.3Z"/><path class="cls-1" d="M144.14,13.34c-9.89-5.35-25.59-3.6-37.45-.65a6.8,6.8,0,0,0-2.5,1.36q-1.68,1.56-3.26,3.29c-.18.22-1.26,1.62.19,1.22h.08c12.83-3.6,28.54-4.93,37.5,0,13.15,7.19,16.94,20,16.25,33.73-.68,13.58-6.3,27.3-14,38.95h0s-.56,1.4.49.81a54.17,54.17,0,0,0,6-4.26c.29-.35,1.92-2.26,2.66-3.39,6.94-11.05,11.67-23.86,12-36.52C162.46,33.44,157.79,20.73,144.14,13.34Z"/><path class="cls-1" d="M147.51,55.59c.83-5.43.86-11.15-.86-16.37a23,23,0,0,0-10.3-12.82c-6.17-3.79-14.18-4.64-21.5-3.94a68.53,68.53,0,0,0-22.38,6.41l-.12.2c-.54.95-1.06,1.9-1.55,2.87a2,2,0,0,1-.13.25c-.21.43-.4.87-.61,1.3s-.34,1.44,1.16.74l.08,0a61.41,61.41,0,0,1,19.89-6.06c6.46-.71,13.56-.05,19,3.33A20,20,0,0,1,139.14,43a32.61,32.61,0,0,1,.53,14.81,54.14,54.14,0,0,1-4.55,14.17,78.81,78.81,0,0,1-8.66,14.12,93.68,93.68,0,0,1-9.78,10.85h0l-.15.13-.79.76c-.33.39-.47.79.09.89a36.1,36.1,0,0,0,4.54.09v0a4.77,4.77,0,0,0,2.77-1.15,98.56,98.56,0,0,0,9.91-11,83.3,83.3,0,0,0,9.54-15.46A57.12,57.12,0,0,0,147.51,55.59Z"/><path class="cls-1" d="M105.13,80.88a31.17,31.17,0,0,0,4.59-3,33.71,33.71,0,0,0,4.38-4.14,29.66,29.66,0,0,0,3.78-5.38,21.45,21.45,0,0,0,2.17-5.82,13.36,13.36,0,0,0-.08-6.44A8.51,8.51,0,0,0,115.91,51a13.1,13.1,0,0,0-8.5-1.19,26.12,26.12,0,0,0-10.09,4A32.47,32.47,0,0,0,89,61.48a26.71,26.71,0,0,0-2.68,4.39,20.88,20.88,0,0,0-1.42,3.72c0,.2-.11.39-.16.6a15,15,0,0,0-.09,6.62,8.91,8.91,0,0,0,2.56,4.33,9.29,9.29,0,0,0,2.87,1.76c.27.11.54.21.82.3a14.36,14.36,0,0,0,4.71.51,20.27,20.27,0,0,0,4.76-.87A26,26,0,0,0,105.13,80.88ZM94.71,77.74a6.38,6.38,0,0,1-2.48-1.38,5.92,5.92,0,0,1-1.72-2.9A10,10,0,0,1,90.58,69a13.1,13.1,0,0,1,1.06-2.9,17.36,17.36,0,0,1,1.79-2.94A21.71,21.71,0,0,1,99,58.07a17.36,17.36,0,0,1,6.76-2.68,8.83,8.83,0,0,1,5.7.8,5.73,5.73,0,0,1,2.72,3.4,9.1,9.1,0,0,1,.06,4.31,14.6,14.6,0,0,1-1.46,3.9,19.12,19.12,0,0,1-2.54,3.61,22,22,0,0,1-2.93,2.77,21.62,21.62,0,0,1-3.07,2,17.21,17.21,0,0,1-3.17,1.31,13.38,13.38,0,0,1-3.19.58A9.25,9.25,0,0,1,94.71,77.74Z"/><path class="cls-1" d="M103.14,70.91a9.47,9.47,0,0,0,2.68-2.13A8.49,8.49,0,0,0,107,67.17a6.54,6.54,0,0,0,.65-1.74,4.06,4.06,0,0,0,0-1.93A2.54,2.54,0,0,0,106.36,62a3.53,3.53,0,0,0-1.85-.42c-.22,0-.43,0-.64.06a7.78,7.78,0,0,0-3,1.19,9.69,9.69,0,0,0-2.48,2.29,7.65,7.65,0,0,0-.8,1.31,6.93,6.93,0,0,0-.48,1.29,4.56,4.56,0,0,0,0,2,2.65,2.65,0,0,0,.76,1.3,2.89,2.89,0,0,0,1.11.62,4.18,4.18,0,0,0,1.37.15,6.15,6.15,0,0,0,1.41-.26A8,8,0,0,0,103.14,70.91Z"/><polygon class="cls-1" points="33.81 25.94 82.38 25.94 84.97 3.38 10.66 3.38 0 96.27 25.74 96.27 29.55 63.09 73.47 63.09 75.92 41.73 32 41.73 33.81 25.94"/><path class="cls-1" d="M256.38,13.47c-5.5-6.37-14.9-10.08-29.09-10.08H183.37L172.71,96.27h25.74l3.23-28.13H213l15.47,28.13h29.73L239.71,63.89C251.82,59,260.47,49.56,262.1,35.36l0-.26C263.18,25.94,261.21,18.78,256.38,13.47ZM236.07,36.69l0,.26c-.78,6.77-6.31,11-15.06,11H204l2.56-22.29H223.4C232,25.68,236.91,29.39,236.07,36.69Z"/><path class="cls-1" d="M540.5,17a3.76,3.76,0,0,0,1.06-.56,4.16,4.16,0,0,0,1-1.06,3.84,3.84,0,0,0,.54-1.59,2.82,2.82,0,0,0-.84-2.54,3.51,3.51,0,0,0-2.46-.93h-4.59l-1.29,11.19h1.83l.5-4.3h1.64l2.33,4.3h2.25L540,17.09Zm.69-3.21a1.73,1.73,0,0,1-.72,1.25,2.2,2.2,0,0,1-1.3.48h-2.76l.41-3.55h2.76a1.7,1.7,0,0,1,1.19.5A1.47,1.47,0,0,1,541.19,13.74Z"/><path class="cls-1" d="M548.27,11.78a8.78,8.78,0,0,0-4.94-5.59,9.94,9.94,0,0,0-4-.82,11.14,11.14,0,0,0-4.2.82,12.93,12.93,0,0,0-3.61,2.24,12.23,12.23,0,0,0-2.65,3.35,11.59,11.59,0,0,0-1.3,4.13,10,10,0,0,0,.35,4.1,9.18,9.18,0,0,0,1.87,3.35,9.06,9.06,0,0,0,3.09,2.26,9.62,9.62,0,0,0,4,.82,11.13,11.13,0,0,0,4.22-.82,11.88,11.88,0,0,0,3.62-2.26A12.63,12.63,0,0,0,547.32,20a11.11,11.11,0,0,0,1.29-4.1A10,10,0,0,0,548.27,11.78Zm-1.38,4.13a9.45,9.45,0,0,1-1.09,3.42,10.46,10.46,0,0,1-2.2,2.82,10.54,10.54,0,0,1-3,1.88,9.36,9.36,0,0,1-3.5.68,8.15,8.15,0,0,1-3.37-.68,7.44,7.44,0,0,1-4.13-4.7,8.28,8.28,0,0,1-.29-3.42,9.42,9.42,0,0,1,1.08-3.43,10.42,10.42,0,0,1,5.22-4.7,9.32,9.32,0,0,1,3.53-.68,8.05,8.05,0,0,1,3.34.69A7.37,7.37,0,0,1,545,9.67a7.66,7.66,0,0,1,1.56,2.81A8.5,8.5,0,0,1,546.89,15.91Z"/></svg>